<svg xmlns="http://www.w3.org/2000/svg" xmlns:xlink="http://www.w3.org/1999/xlink" xmlns:lucid="lucid" width="780.39" height="738.07"><g transform="translate(0 0)" lucid:page-tab-id="VjMd39PQffTe"><path d="M0 0h780.4v738.07H0z" fill="#fff"/><path d="M80 700H48c-4.42 0-8-3.58-8-8V288c0-4.42 3.58-8 8-8h32z" stroke="#333" fill="#fff"/><path d="M80 280h652c4.42 0 8 3.58 8 8v404c0 4.42-3.58 8-8 8H80z" stroke="#333" fill="none"/><use xlink:href="#a" transform="matrix(-1.8369701987210297e-16,-1,1,-1.8369701987210297e-16,40,700) translate(184.05 23.6)"/><path d="M130 365c0 5.63-4.37 10.2-9.75 10.2-5.4 0-9.76-4.57-9.76-10.2 0-5.63 4.36-10.2 9.75-10.2 5.38 0 9.75 4.57 9.75 10.2z" stroke="#333" fill="#fff"/><use xlink:href="#b" transform="matrix(1,0,0,1,110.49126024839289,377.1864075310491) translate(-0.8700617283950614 11.822222222222223)"/><path d="M678.53 589.66c0 5.33-4.48 9.65-10 9.65-5.53 0-10-4.3-10-9.64 0-5.33 4.47-9.65 10-9.65 5.52 0 10 4.33 10 9.66z" stroke="#333" stroke-width="5" fill="#fff"/><use xlink:href="#c" transform="matrix(1,0,0,1,658.5262192548214,601.3143648496326) translate(0.6027777777777761 12.266666666666667)"/><path d="M447.8 590l20-20 20 20-20 20z" stroke="#333" fill="#fff"/><path d="M459.8 582l16 16m-16 0l16-16" stroke="#333" fill="none"/><path d="M180.74 328c0-4.42 3.58-8 8-8h94c4.42 0 8 3.58 8 8v74c0 4.42-3.58 8-8 8h-94c-4.42 0-8-3.58-8-8z" stroke="#333" fill="#fff"/><path d="M220.74 369.1h30v30h-30zm15 5.4v19.2m-9.6-9.6h19.2" stroke="#333" fill="none"/><use xlink:href="#d" transform="matrix(1,0,0,1,180.7368903725893,320) translate(18.517962962962955 26.418666666666667)"/><use xlink:href="#e" transform="matrix(1,0,0,1,180.7368903725893,320) translate(78.89944444444444 26.418666666666667)"/><use xlink:href="#f" transform="matrix(1,0,0,1,180.7368903725893,320) translate(5.6105555555555515 40.01866666666667)"/><use xlink:href="#g" transform="matrix(1,0,0,1,180.7368903725893,320) translate(49.023518518518514 40.01866666666667)"/><use xlink:href="#h" transform="matrix(1,0,0,1,180.7368903725893,320) translate(64.76425925925926 40.01866666666667)"/><path d="M131 365h32.85" stroke="#333" fill="none"/><path d="M131.02 365.5h-.58l.06-.5-.06-.5h.58z" fill="#333"/><path d="M178.62 365l-14.27 4.64v-9.28z" stroke="#333" fill="#333"/><path d="M237.7 440l7.8 8.8v20.5h-19.52V440z" stroke="#333" fill="#fff"/><path d="M237.7 440v8.8h7.8" stroke="#333" fill="none"/><path d="M205 472.65c0-4.42 3.58-8 8-8h45.47c4.42 0 8 3.58 8 8v24c0 4.42-3.58 8-8 8H213c-4.42 0-8-3.58-8-8z" stroke="#000" stroke-opacity="0" fill="#fff" fill-opacity="0"/><use xlink:href="#i" transform="matrix(1,0,0,1,210,469.6510957148049) translate(3.4879629629629676 11.038888888888888)"/><use xlink:href="#j" transform="matrix(1,0,0,1,210,469.6510957148049) translate(38.38858024691358 11.038888888888888)"/><use xlink:href="#k" transform="matrix(1,0,0,1,210,469.6510957148049) translate(10.068209876543213 21.97222222222222)"/><path d="M238.76 440.17c0 .14-.12.25-.25.25s-.24-.1-.24-.25c0-.14.1-.25.25-.25.14 0 .26.1.26.25z" fill="#333"/><path fill="#333"/><path fill="#333"/><path d="M341.47 338c0-4.42 3.6-8 8-8h124c4.42 0 8 3.58 8 8v64c0 4.42-3.58 8-8 8h-124c-4.4 0-8-3.58-8-8z" stroke="#333" fill="#fff"/><path d="M373.67 369.2h30v30h-30zm15 5.4v19.2m-9.6-9.6h19.2" stroke="#333" fill="none"/><path d="M420.77 397.7h6v-6m0 6c-7.17-4.65-9.63-13.83-5.5-21 4.16-7.17 13.33-9.63 20.5-5.5 7.18 4.15 9.64 13.33 5.5 20.5-2.77 4.78-7.47 7.5-13 7.5" stroke="#333" stroke-width="2" fill="none"/><use xlink:href="#l" transform="matrix(1,0,0,1,341.4737807451786,330) translate(11.213333333333319 28.75306666666667)"/><use xlink:href="#m" transform="matrix(1,0,0,1,341.4737807451786,330) translate(83.5262962962963 28.75306666666667)"/><use xlink:href="#n" transform="matrix(1,0,0,1,341.4737807451786,330) translate(99.26703703703704 28.75306666666667)"/><path d="M532.2 338c0-4.42 3.6-8 8-8h84c4.43 0 8 3.58 8 8v64c0 4.42-3.57 8-8 8h-84c-4.4 0-8-3.58-8-8z" stroke="#333" fill="#fff"/><path d="M545.2 369.2h30v30h-30zm15 5.4v19.2m-9.6-9.6h19.2" stroke="#333" fill="none"/><path d="M590.7 397.7h6v-6m0 6c-7.16-4.65-9.62-13.83-5.48-21 4.14-7.17 13.32-9.63 20.5-5.5 7.17 4.15 9.62 13.33 5.48 20.5-2.76 4.78-7.47 7.5-13 7.5" stroke="#333" stroke-width="2" fill="none"/><use xlink:href="#o" transform="matrix(1,0,0,1,532.2106711177679,330) translate(35.24018518518518 14.076666666666668)"/><path d="M287.05 528c0-4.4 3.58-8 8-8h64c4.42 0 8 3.6 8 8v44c0 4.43-3.58 8-8 8h-64c-4.42 0-8-3.57-8-8z" stroke="#333" fill="#fff"/><use xlink:href="#p" transform="matrix(1,0,0,1,287.0524385096428,520.0121734200228) translate(18.943888888888885 24.06666666666667)"/><use xlink:href="#q" transform="matrix(1,0,0,1,287.0524385096428,520.0121734200228) translate(17.684629629629626 37.66666666666667)"/><path d="M176.3 639c0 .14-.13.25-.26.25-.14 0-.25-.1-.25-.25 0-.14.1-.25.24-.25.13 0 .25.1.25.25z" fill="#333"/><path d="M176.04 639" stroke="#333" stroke-width=".5" fill="none"/><path d="M387.22 477.3c0-4.42 3.6-8 8-8h34.8c4.43 0 8 3.58 8 8V492c0 4.42-3.57 8-8 8h-34.8c-4.4 0-8-3.58-8-8z" stroke="#000" stroke-opacity="0" fill="#fff" fill-opacity="0"/><use xlink:href="#r" transform="matrix(1,0,0,1,392.2233891163201,474.30219142960976) translate(4.3151234567901255 8.601388888888888)"/><use xlink:href="#s" transform="matrix(1,0,0,1,392.2233891163201,474.30219142960976) translate(2.3030864197530896 19.53472222222222)"/><use xlink:href="#t" transform="matrix(1,0,0,1,392.2233891163201,474.30219142960976) translate(14.957407407407409 19.53472222222222)"/><path d="M423.73 454.65c0 .55-.45 1-1 1s-1-.45-1-1 .45-1 1-1 1 .45 1 1zm4.08 0c0 .55-.44 1-1 1-.54 0-1-.45-1-1s.46-1 1-1c.56 0 1 .45 1 1zm4.1 0c0 .55-.46 1-1 1-.57 0-1-.45-1-1s.43-1 1-1c.54 0 1 .45 1 1zm4.07 0c0 .55-.45 1-1 1-.56 0-1-.45-1-1s.44-1 1-1c.55 0 1 .45 1 1zm4.08 0c0 .55-.45 1-1 1-.56 0-1-.45-1-1s.44-1 1-1c.55 0 1 .45 1 1zm4.08 0c0 .55-.45 1-1 1-.56 0-1-.45-1-1s.44-1 1-1c.55 0 1 .45 1 1zm4.08 0c0 .55-.44 1-1 1-.55 0-1-.45-1-1s.45-1 1-1c.56 0 1 .45 1 1zm4.08 0c0 .55-.44 1-1 1-.55 0-1-.45-1-1s.45-1 1-1c.56 0 1 .45 1 1zm4.08 0c0 .55-.44 1-1 1-.55 0-1-.45-1-1s.45-1 1-1c.56 0 1 .45 1 1zm4.08 0c0 .55-.44 1-1 1-.55 0-1-.45-1-1s.45-1 1-1c.56 0 1 .45 1 1zm4.08 0c0 .55-.44 1-1 1-.55 0-1-.45-1-1s.45-1 1-1c.56 0 1 .45 1 1zm4.08 0c0 .55-.45 1-1 1s-1-.45-1-1 .45-1 1-1 1 .45 1 1zm4.08 0c0 .55-.45 1-1 1s-1-.45-1-1 .45-1 1-1 1 .45 1 1zm4.08 0c0 .55-.45 1-1 1s-1-.45-1-1 .45-1 1-1 1 .45 1 1zm4.08 0c0 .55-.45 1-1 1s-1-.45-1-1 .45-1 1-1 1 .45 1 1zm4.08 0c0 .55-.45 1-1 1s-1-.45-1-1 .45-1 1-1 1 .45 1 1zm4.08 0c0 .55-.45 1-1 1s-1-.45-1-1 .45-1 1-1 1 .45 1 1zm3.7-.64c0 .56-.46 1-1 1-.57 0-1-.44-1-1 0-.55.43-1 1-1 .54 0 1 .45 1 1zm3.3-1.72c0 .55-.45 1-1 1-.56 0-1-.45-1-1s.44-1 1-1c.55 0 1 .45 1 1zm2.63-2.63c0 .55-.45 1-1 1s-1-.45-1-1c0-.56.45-1 1-1s1 .44 1 1zm1.72-3.3c0 .54-.44 1-1 1-.55 0-1-.46-1-1 0-.57.45-1 1-1 .56 0 1 .43 1 1zm.65-3.7c0 .55-.45 1-1 1s-1-.45-1-1 .45-1 1-1 1 .45 1 1zm0-4.12c0 .55-.45 1-1 1s-1-.45-1-1 .45-1 1-1 1 .45 1 1zm0-4.12c0 .56-.45 1-1 1s-1-.44-1-1c0-.55.45-1 1-1s1 .45 1 1zm0-4.12c0 .56-.45 1-1 1s-1-.44-1-1c0-.55.45-1 1-1s1 .45 1 1zm0-4.12c0 .55-.45 1-1 1s-1-.45-1-1 .45-1 1-1 1 .45 1 1zm0-4.12c0 .55-.45 1-1 1s-1-.45-1-1 .45-1 1-1 1 .45 1 1zm0-4.13c0 .57-.45 1-1 1s-1-.43-1-1c0-.54.45-1 1-1s1 .46 1 1zm0-4.1c0 .54-.45 1-1 1s-1-.46-1-1c0-.56.45-1 1-1s1 .44 1 1zm0-4.13c0 .55-.45 1-1 1s-1-.45-1-1 .45-1 1-1 1 .45 1 1zm0-4.12c0 .55-.45 1-1 1s-1-.45-1-1c0-.56.45-1 1-1s1 .44 1 1zm0-4.13c0 .56-.45 1-1 1s-1-.44-1-1c0-.55.45-1 1-1s1 .45 1 1zm0-4.12c0 .55-.45 1-1 1s-1-.45-1-1 .45-1 1-1 1 .45 1 1zm.64-3.68c0 .55-.44 1-1 1-.55 0-1-.45-1-1 0-.56.45-1 1-1 .56 0 1 .44 1 1zm1.73-3.3c0 .54-.45 1-1 1s-1-.46-1-1c0-.57.45-1 1-1s1 .43 1 1zm2.64-2.65c0 .55-.44 1-1 1-.55 0-1-.45-1-1s.45-1 1-1c.56 0 1 .45 1 1zm3.3-1.72c0 .55-.43 1-1 1-.54 0-1-.45-1-1 0-.56.46-1 1-1 .57 0 1 .44 1 1zm3.7-.65c0 .55-.45 1-1 1s-1-.45-1-1 .45-1 1-1 1 .45 1 1z" fill="#333"/><path d="M422.75 455.65h-1.02v-2h1.02z" fill="#333"/><path d="M528.47 385.3l-14.26 4.64v-9.27z" stroke="#333" stroke-width="2" fill="#fff"/><path d="M368.05 550h27.27c6.62 0 12 5.38 12 12v16c0 6.63 5.37 12 12 12h11.38" stroke="#333" fill="none"/><path d="M368.07 550.5h-.52v-1h.52z" fill="#333"/><path d="M445.46 590l-14.26 4.64v-9.28z" stroke="#333" fill="#333"/><path d="M438.03 618c0-4.42 3.6-8 8-8h44c4.42 0 8 3.58 8 8v4c0 4.42-3.58 8-8 8h-44c-4.4 0-8-3.58-8-8z" fill="#fff" fill-opacity="0"/><use xlink:href="#u" transform="matrix(1,0,0,1,443.03495900642855,615) translate(2.8311728395061735 5.511111111111111)"/><use xlink:href="#v" transform="matrix(1,0,0,1,443.03495900642855,615) translate(8.954629629629629 5.511111111111111)"/><use xlink:href="#w" transform="matrix(1,0,0,1,443.03495900642855,615) translate(39.916358024691355 5.511111111111111)"/><use xlink:href="#x" transform="matrix(1,0,0,1,443.03495900642855,615) translate(8.571913580246914 13.777777777777777)"/><path d="M463.7 528c0-4.4 3.58-8 8-8h89.56c4.42 0 8 3.6 8 8v74c0 4.43-3.58 8-8 8H471.7c-4.42 0-8-3.57-8-8z" fill="#fff" fill-opacity="0"/><use xlink:href="#y" transform="matrix(1,0,0,1,468.69780420355,525.0121734200228) translate(0 25.844444444444445)"/><use xlink:href="#z" transform="matrix(1,0,0,1,468.69780420355,525.0121734200228) translate(0 42.111111111111114)"/><use xlink:href="#A" transform="matrix(1,0,0,1,468.69780420355,525.0121734200228) translate(0 58.37777777777778)"/><use xlink:href="#B" transform="matrix(1,0,0,1,468.69780420355,525.0121734200228) translate(52.71604938271603 58.37777777777778)"/><path d="M287.05 607.3c0-4.4 3.58-8 8-8h64c4.42 0 8 3.6 8 8V652c0 4.42-3.58 8-8 8h-64c-4.42 0-8-3.58-8-8z" stroke="#333" fill="#fff"/><use xlink:href="#C" transform="matrix(1,0,0,1,287.0524385096428,599.3143648496326) translate(11.703148148148147 24.31666666666667)"/><use xlink:href="#D" transform="matrix(1,0,0,1,287.0524385096428,599.3143648496326) translate(55.71425925925926 24.31666666666667)"/><use xlink:href="#E" transform="matrix(1,0,0,1,287.0524385096428,599.3143648496326) translate(25.240185185185183 37.91666666666667)"/><path d="M198.53 588.6l20-20 20 20-20 20z" stroke="#333" fill="#fff"/><path d="M226.53 588.6c0 4.42-3.6 8-8 8-4.42 0-8-3.58-8-8 0-4.4 3.58-8 8-8 4.4 0 8 3.6 8 8zM368.05 629.66h27.03c6.63 0 12-5.38 12-12V602c0-6.63 5.37-12 12-12h11.62" stroke="#333" fill="none"/><path d="M368.07 630.16h-.52v-1h.52z" fill="#333"/><path d="M445.46 590l-14.26 4.64v-9.28z" stroke="#333" fill="#333"/><path d="M80 207.44H48c-4.42 0-8-3.58-8-8V48c0-4.42 3.58-8 8-8h32z" stroke="#333" fill="#fff"/><path d="M80 40h652c4.42 0 8 3.58 8 8v151.44c0 4.42-3.58 8-8 8H80z" stroke="#333" fill="none"/><use xlink:href="#F" transform="matrix(-1.8369701987210297e-16,-1,1,-1.8369701987210297e-16,40.000000000000014,207.44195476961693) translate(30.099999999999994 23.6)"/><use xlink:href="#G" transform="matrix(-1.8369701987210297e-16,-1,1,-1.8369701987210297e-16,40.000000000000014,207.44195476961693) translate(91 23.6)"/><path d="M200 88c0-4.42 3.58-8 8-8h44c4.42 0 8 3.58 8 8v25.28c0 4.42-3.58 8-8 8h-44c-4.42 0-8-3.58-8-8z" stroke="#333" fill="#fff"/><use xlink:href="#H" transform="matrix(1,0,0,1,200,80) translate(10.817037037037037 22.19166666666667)"/><path d="M320 88c0-4.42 3.58-8 8-8h44c4.42 0 8 3.58 8 8v24c0 4.42-3.58 8-8 8h-44c-4.42 0-8-3.58-8-8z" stroke="#333" fill="#fff"/><use xlink:href="#I" transform="matrix(1,0,0,1,320,80) translate(12.690185185185184 21.56666666666667)"/><path d="M231.7 140l7.8 9v21H220v-30z" stroke="#333" fill="#fff"/><path d="M231.7 140v9h7.8" stroke="#333" fill="none"/><path d="M352.2 139.36l7.8 9.38v21.9h-19.5v-31.28z" stroke="#333" fill="#fff"/><path d="M352.2 139.36v9.38h7.8" stroke="#333" fill="none"/><path d="M440 88c0-4.42 3.58-8 8-8h44c4.42 0 8 3.58 8 8v24c0 4.42-3.58 8-8 8h-44c-4.42 0-8-3.58-8-8z" stroke="#333" fill="#fff"/><use xlink:href="#J" transform="matrix(1,0,0,1,440,80) translate(8.329999999999997 21.56666666666667)"/><path d="M560 88.64c0-4.42 3.58-8 8-8h44c4.42 0 8 3.58 8 8v24c0 4.42-3.58 8-8 8h-44c-4.42 0-8-3.58-8-8z" stroke="#333" fill="#fff"/><use xlink:href="#K" transform="matrix(1,0,0,1,560,80.63951130759577) translate(5.779999999999996 21.56666666666667)"/><path d="M471.7 140l7.8 9.38v21.9H460V140z" stroke="#333" fill="#fff"/><path d="M471.7 140v9.38h7.8" stroke="#333" fill="none"/><path d="M591.95 139.36l7.8 9.58v22.34h-19.5v-31.92z" stroke="#333" fill="#fff"/><path d="M591.95 139.36v9.58h7.8" stroke="#333" fill="none"/><path d="M202.36 173.52c0-4.42 3.6-8 8-8h39.28c4.4 0 8 3.58 8 8v26.8c0 4.42-3.6 8-8 8h-39.28c-4.4 0-8-3.58-8-8z" stroke="#000" stroke-opacity="0" fill="#fff" fill-opacity="0"/><use xlink:href="#L" transform="matrix(1,0,0,1,207.3644669393494,170.5185339227873) translate(1.5003086419753124 12.855555555555554)"/><use xlink:href="#M" transform="matrix(1,0,0,1,207.3644669393494,170.5185339227873) translate(34.376234567901236 12.855555555555554)"/><use xlink:href="#N" transform="matrix(1,0,0,1,207.3644669393494,170.5185339227873) translate(-14.115123456790116 23.788888888888888)"/><path d="M332.73 179.28c0-4.42 3.58-8 8-8h24c4.42 0 8 3.58 8 8v15.28c0 4.42-3.58 8-8 8h-24c-4.42 0-8-3.58-8-8z" stroke="#000" stroke-opacity="0" fill="#fff" fill-opacity="0"/><use xlink:href="#O" transform="matrix(1,0,0,1,337.72736736326533,176.27902261519154) translate(5.9141975308641985 7.288888888888889)"/><use xlink:href="#P" transform="matrix(1,0,0,1,337.72736736326533,176.27902261519154) translate(0.8524691358024707 18.22222222222222)"/><path d="M440 179.28c0-4.42 3.58-8 8-8h164c4.42 0 8 3.58 8 8v15.28c0 4.42-3.58 8-8 8H448c-4.42 0-8-3.58-8-8z" stroke="#000" stroke-opacity="0" fill="#fff" fill-opacity="0"/><use xlink:href="#Q" transform="matrix(1,0,0,1,445,176.27902261519154) translate(0 12.788888888888888)"/><use xlink:href="#R" transform="matrix(1,0,0,1,445,176.27902261519154) translate(125.48024691358012 12.788888888888888)"/><path d="M231 122.78c0 .55-.45 1-1 1s-1-.45-1-1 .45-1 1-1 1 .45 1 1zm0 3.87c0 .55-.45 1-1 1s-1-.45-1-1 .45-1 1-1 1 .45 1 1zm0 3.87c0 .55-.45 1-1 1s-1-.45-1-1c0-.56.45-1 1-1s1 .44 1 1zm-.25 4.1c0 .56-.44 1-1 1-.55 0-1-.44-1-1 0-.54.45-1 1-1 .56 0 1 .46 1 1zm0 3.88c0 .55-.44 1-1 1-.55 0-1-.45-1-1s.45-1 1-1c.56 0 1 .45 1 1z" fill="#333"/><path d="M231 122.8h-2v-1.02h2zM230.75 139.5h-2v-1.03h2zM351 121.5c0 .55-.45 1-1 1s-1-.45-1-1 .45-1 1-1 1 .45 1 1zm0 4.03c0 .55-.45 1-1 1s-1-.45-1-1 .45-1 1-1 1 .45 1 1zm0 4.03c0 .55-.45 1-1 1s-1-.45-1-1 .45-1 1-1 1 .45 1 1zm.25 4.27c0 .55-.45 1-1 1-.56 0-1-.45-1-1s.44-1 1-1c.55 0 1 .45 1 1zm0 4.03c0 .55-.45 1-1 1-.56 0-1-.45-1-1s.44-1 1-1c.55 0 1 .45 1 1z" fill="#333"/><path d="M351 121.53h-2v-1.03h2zM351.25 138.86h-2v-1.03h2z" fill="#333"/><path d="M121 100h62.12" stroke="#333" fill="none"/><path d="M121.02 100.5h-.58l.06-.5-.06-.5h.58z" fill="#333"/><path d="M197.88 100l-14.26 4.64v-9.28z" stroke="#333" fill="#333"/><path d="M261 100.64h42.12" stroke="#333" fill="none"/><path d="M261 101.14h-.5v-1h.5z" fill="#333"/><path d="M317.88 100.64l-14.26 4.63V96z" stroke="#333" fill="#333"/><path d="M381 100h42.12" stroke="#333" fill="none"/><path d="M381 100.5h-.5v-1h.5z" fill="#333"/><path d="M437.88 100l-14.26 4.64v-9.28z" stroke="#333" fill="#333"/><path d="M672.14 98.72H621" stroke="#333" fill="none"/><path d="M686.9 98.72l-14.26 4.64V94.1z" stroke="#333" fill="#333"/><path d="M621 99.22h-.5v-1h.5z" fill="#333"/><path d="M501 100h42.12" stroke="#333" fill="none"/><path d="M501 100.5h-.5v-1h.5z" fill="#333"/><path d="M557.88 100l-14.26 4.64v-9.28z" stroke="#333" fill="#333"/><path d="M471 121.5c0 .55-.45 1-1 1s-1-.45-1-1 .45-1 1-1 1 .45 1 1zm0 4.25c0 .55-.45 1-1 1s-1-.45-1-1 .45-1 1-1 1 .45 1 1zm0 4.25c0 .55-.45 1-1 1s-1-.45-1-1 .45-1 1-1 1 .45 1 1zm0 4.25c0 .55-.45 1-1 1s-1-.45-1-1 .45-1 1-1 1 .45 1 1z" fill="#333"/><path d="M471 121.53h-2v-1.03h2zM471 139.5h-2v-1.03h2zM591 122.14c0 .55-.45 1-1 1s-1-.45-1-1 .45-1 1-1 1 .45 1 1zm0 3.93c0 .55-.45 1-1 1s-1-.45-1-1 .45-1 1-1 1 .45 1 1zm0 3.93c0 .55-.45 1-1 1s-1-.45-1-1 .45-1 1-1 1 .45 1 1zm0 3.93c0 .55-.45 1-1 1s-1-.45-1-1 .45-1 1-1 1 .45 1 1z" fill="#333"/><path d="M591 122.17h-2v-1.03h2zM591 138.86h-2v-1.03h2zM236.74 411.5c0 .55-.45 1-1 1-.56 0-1-.45-1-1s.44-1 1-1c.55 0 1 .45 1 1zm0 4.5c0 .55-.45 1-1 1-.56 0-1-.45-1-1s.44-1 1-1c.55 0 1 .45 1 1zm0 4.5c0 .55-.45 1-1 1-.56 0-1-.45-1-1s.44-1 1-1c.55 0 1 .45 1 1zm0 4.5c0 .55-.45 1-1 1-.56 0-1-.45-1-1s.44-1 1-1c.55 0 1 .45 1 1zm0 4.5c0 .55-.45 1-1 1-.56 0-1-.45-1-1s.44-1 1-1c.55 0 1 .45 1 1zm0 4.5c0 .55-.45 1-1 1-.56 0-1-.45-1-1s.44-1 1-1c.55 0 1 .45 1 1zm0 4.5c0 .55-.45 1-1 1-.56 0-1-.45-1-1s.44-1 1-1c.55 0 1 .45 1 1z" fill="#333"/><path d="M236.74 411.53h-2v-1.03h2zM236.74 439.5h-2v-1.03h2zM248 454.65c0 .55-.46 1-1 1-.56 0-1-.45-1-1s.44-1 1-1c.54 0 1 .45 1 1zm3.92 0c0 .55-.45 1-1 1-.56 0-1-.45-1-1s.44-1 1-1c.55 0 1 .45 1 1zm3.92 0c0 .55-.45 1-1 1s-1-.45-1-1 .45-1 1-1 1 .45 1 1zm3.92 0c0 .55-.45 1-1 1s-1-.45-1-1 .45-1 1-1 1 .45 1 1zm3.93 0c0 .55-.46 1-1 1-.57 0-1-.45-1-1s.43-1 1-1c.54 0 1 .45 1 1zm3.9 0c0 .55-.44 1-1 1-.54 0-1-.45-1-1s.46-1 1-1c.56 0 1 .45 1 1zm3.93 0c0 .55-.44 1-1 1-.55 0-1-.45-1-1s.45-1 1-1c.56 0 1 .45 1 1zm3.93 0c0 .55-.45 1-1 1s-1-.45-1-1 .45-1 1-1 1 .45 1 1zm3.92 0c0 .55-.45 1-1 1s-1-.45-1-1 .45-1 1-1 1 .45 1 1zm3.93 0c0 .55-.44 1-1 1-.55 0-1-.45-1-1s.45-1 1-1c.56 0 1 .45 1 1zm3.93 0c0 .55-.45 1-1 1s-1-.45-1-1 .45-1 1-1 1 .45 1 1zm3.92 0c0 .55-.45 1-1 1s-1-.45-1-1 .45-1 1-1 1 .45 1 1zm3.93 0c0 .55-.45 1-1 1-.56 0-1-.45-1-1s.44-1 1-1c.55 0 1 .45 1 1zm3.92 0c0 .55-.45 1-1 1s-1-.45-1-1 .45-1 1-1 1 .45 1 1zm3.7-.64c0 .56-.46 1-1 1-.57 0-1-.44-1-1 0-.55.43-1 1-1 .54 0 1 .45 1 1zm3.3-1.72c0 .55-.45 1-1 1-.56 0-1-.45-1-1s.44-1 1-1c.55 0 1 .45 1 1zm2.63-2.63c0 .55-.45 1-1 1s-1-.45-1-1c0-.56.45-1 1-1s1 .44 1 1zm1.72-3.3c0 .54-.44 1-1 1-.55 0-1-.46-1-1 0-.57.45-1 1-1 .56 0 1 .43 1 1zm.65-3.7c0 .55-.45 1-1 1s-1-.45-1-1 .45-1 1-1 1 .45 1 1zm0-4.05c0 .55-.45 1-1 1s-1-.45-1-1c0-.56.45-1 1-1s1 .44 1 1zm0-4.06c0 .56-.45 1-1 1s-1-.44-1-1c0-.55.45-1 1-1s1 .45 1 1zm0-4.05c0 .54-.45 1-1 1s-1-.46-1-1c0-.56.45-1 1-1s1 .44 1 1zm0-4.07c0 .56-.45 1-1 1s-1-.44-1-1c0-.55.45-1 1-1s1 .45 1 1zm0-4.05c0 .55-.45 1-1 1s-1-.45-1-1 .45-1 1-1 1 .45 1 1zm0-4.05c0 .55-.45 1-1 1s-1-.45-1-1c0-.56.45-1 1-1s1 .44 1 1zm0-4.06c0 .56-.45 1-1 1s-1-.44-1-1c0-.55.45-1 1-1s1 .45 1 1zm0-4.05c0 .55-.45 1-1 1s-1-.45-1-1 .45-1 1-1 1 .45 1 1zm0-4.06c0 .56-.45 1-1 1s-1-.44-1-1c0-.55.45-1 1-1s1 .45 1 1zm0-4.05c0 .56-.45 1-1 1s-1-.44-1-1c0-.54.45-1 1-1s1 .46 1 1zm0-4.04c0 .55-.45 1-1 1s-1-.45-1-1c0-.56.45-1 1-1s1 .44 1 1zm0-4.06c0 .56-.45 1-1 1s-1-.44-1-1c0-.55.45-1 1-1s1 .45 1 1zm.64-3.68c0 .55-.44 1-1 1-.55 0-1-.45-1-1 0-.56.45-1 1-1 .56 0 1 .44 1 1zm1.73-3.3c0 .54-.45 1-1 1s-1-.46-1-1c0-.56.45-1 1-1s1 .44 1 1zm2.64-2.65c0 .56-.44 1-1 1-.55 0-1-.44-1-1 0-.55.45-1 1-1 .56 0 1 .45 1 1zm3.3-1.72c0 .55-.43 1-1 1-.54 0-1-.45-1-1s.46-1 1-1c.57 0 1 .45 1 1zm3.7-.65c0 .56-.45 1-1 1s-1-.44-1-1c0-.55.45-1 1-1s1 .45 1 1z" fill="#333"/><path d="M247.02 455.65H246v-2H247z" fill="#333"/><path d="M337.74 382l-14.27 4.64v-9.27z" stroke="#333" stroke-width="2" fill="#fff"/><path d="M288.02 460.17c0 .14-.1.25-.25.25-.14 0-.25-.1-.25-.25 0-.14.1-.25.25-.25.14 0 .25.1.25.25z" fill="#333"/><path d="M287.77 460.17" stroke="#333" stroke-width=".5" fill="none"/><path d="M413.42 440l7.8 8.8v20.5h-19.5V440z" stroke="#333" fill="#fff"/><path d="M413.42 440v8.8h7.8" stroke="#333" fill="none"/><path d="M412.47 411.5c0 .55-.44 1-1 1-.55 0-1-.45-1-1s.45-1 1-1c.56 0 1 .45 1 1zm0 4.46c0 .55-.44 1-1 1-.55 0-1-.45-1-1s.45-1 1-1c.56 0 1 .45 1 1zm0 4.46c0 .55-.44 1-1 1-.55 0-1-.45-1-1s.45-1 1-1c.56 0 1 .45 1 1zm0 4.46c0 .55-.44 1-1 1-.55 0-1-.45-1-1 0-.56.45-1 1-1 .56 0 1 .44 1 1zm.25 4.7c0 .55-.45 1-1 1s-1-.45-1-1 .45-1 1-1 1 .45 1 1zm0 4.46c0 .55-.45 1-1 1s-1-.45-1-1 .45-1 1-1 1 .45 1 1zm0 4.46c0 .55-.45 1-1 1s-1-.45-1-1 .45-1 1-1 1 .45 1 1z" fill="#333"/><path d="M412.47 411.53h-2v-1.03h2zM412.72 439.5h-2v-1.03h2z" fill="#333"/><path d="M718.53 368.72c0 11.05-8.96 20-20 20-11.05 0-20-8.95-20-20 0-11.04 8.95-20 20-20 11.04 0 20 8.96 20 20z" stroke="#333" fill="#333"/><path d="M686.53 364.22h16.8v-4.5l7.2 9-7.2 9v-4.5h-16.8z" stroke="#333" fill="#fff"/><use xlink:href="#S" transform="matrix(1,0,0,1,678.5262192548214,390.7209773848084) translate(20.5 11.822222222222223)"/><path d="M150 588.6c0 11.05-8.95 20-20 20s-20-8.95-20-20c0-11.04 8.95-20 20-20s20 8.96 20 20z" stroke="#333" fill="#fff"/><path d="M118 584.1h16.8v-4.5l7.2 9-7.2 9v-4.5H118z" stroke="#333" fill="#fff"/><path d="M632.96 370h29.78" stroke="#333" stroke-width=".5" fill="none"/><path d="M632.97 370.25h-.26v-.5h.27z" fill="#333"/><path d="M677.26 370L663 374.64v-9.28z" stroke="#333" stroke-width=".5" fill="#333"/><path d="M151 588.6h30.44" stroke="#333" fill="none"/><path d="M151 589.1h-.56l.06-.47-.02-.53h.53z" fill="#333"/><path d="M196.2 588.6l-14.26 4.64v-9.27z" stroke="#333" fill="#333"/><path d="M218.53 567.4V562c0-6.62 5.37-12 12-12h39.64" stroke="#333" fill="none"/><path d="M219.03 568.4l-.5-.5-.5.5v-1.02h1z" fill="#333"/><path d="M284.93 550l-14.26 4.65v-9.27z" stroke="#333" fill="#333"/><path d="M218.53 609.56v18.84c0 6.62 5.37 12 12 12h40.7" stroke="#333" stroke-width=".5" fill="none"/><path d="M218.78 609.57h-.5v-.5l.25.24.25-.24z" fill="#333"/><path d="M285.74 640.4l-14.26 4.63v-9.27z" stroke="#333" stroke-width=".5" fill="#333"/><path d="M489 590h151.9" stroke="#333" fill="none"/><path d="M489 590.5h-1l.5-.5-.5-.5h1z" fill="#333"/><path d="M655.67 590l-14.27 4.64v-9.28z" stroke="#333" fill="#333"/><path d="M467.8 568.8v-27.5c0-6.63-5.38-12-12-12H392c-6.63 0-12-5.38-12-12v-66.75c0-.03-.02-.05-.05-.05-.02 0-.04-.02-.04-.05v-23.57" stroke="#333" fill="none"/><path d="M468.3 569.8l-.5-.5-.5.5v-1.02h1z" fill="#333"/><path d="M379.9 412.12l4.64 14.26h-9.27z" stroke="#333" fill="#333"/><path d="M120 100c0 5.63-4.37 10.2-9.75 10.2-5.4 0-9.76-4.57-9.76-10.2 0-5.63 4.36-10.2 9.75-10.2 5.38 0 9.75 4.57 9.75 10.2z" stroke="#333" fill="#fff"/><g><use xlink:href="#T" transform="matrix(1,0,0,1,100.49126024839288,112.1864075310491) translate(-0.8700617283950614 11.822222222222223)"/></g><path d="M708.53 98.72c0 5.33-4.48 9.65-10 9.65-5.53 0-10-4.32-10-9.65s4.47-9.65 10-9.65c5.52 0 10 4.32 10 9.65z" stroke="#333" stroke-width="5" fill="#fff"/><g><use xlink:href="#U" transform="matrix(1,0,0,1,688.5262192548214,110.37303237977227) translate(0.6027777777777761 12.266666666666667)"/></g><path d="M348.7 219.75c0 .55-.46 1-1 1-.57 0-1-.45-1-1s.43-1 1-1c.54 0 1 .45 1 1zm-4 0c0 .55-.46 1-1 1-.56 0-1-.45-1-1s.44-1 1-1c.54 0 1 .45 1 1zm-4 0c0 .55-.46 1-1 1-.56 0-1-.45-1-1s.44-1 1-1c.54 0 1 .45 1 1zm-4 0c0 .55-.46 1-1 1-.56 0-1-.45-1-1s.44-1 1-1c.54 0 1 .45 1 1zm-4 0c0 .55-.45 1-1 1-.56 0-1-.45-1-1s.44-1 1-1c.55 0 1 .45 1 1zm-4 0c0 .55-.45 1-1 1-.56 0-1-.45-1-1s.44-1 1-1c.55 0 1 .45 1 1zm-4 0c0 .55-.45 1-1 1s-1-.45-1-1 .45-1 1-1 1 .45 1 1zm-4 0c0 .55-.45 1-1 1s-1-.45-1-1 .45-1 1-1 1 .45 1 1zm-4 0c0 .55-.45 1-1 1s-1-.45-1-1 .45-1 1-1 1 .45 1 1zm-4 0c0 .55-.44 1-1 1-.55 0-1-.45-1-1s.45-1 1-1c.56 0 1 .45 1 1zm-4 0c0 .55-.44 1-1 1-.55 0-1-.45-1-1s.45-1 1-1c.56 0 1 .45 1 1zm-4 0c0 .55-.44 1-1 1-.54 0-1-.45-1-1s.46-1 1-1c.56 0 1 .45 1 1zm-4 0c0 .55-.44 1-1 1-.54 0-1-.45-1-1s.46-1 1-1c.56 0 1 .45 1 1zm-4 0c0 .55-.44 1-1 1-.54 0-1-.45-1-1s.46-1 1-1c.56 0 1 .45 1 1zm-4 0c0 .55-.43 1-1 1-.54 0-1-.45-1-1s.46-1 1-1c.57 0 1 .45 1 1zm-3.98 0c0 .55-.45 1-1 1-.56 0-1-.45-1-1s.44-1 1-1c.55 0 1 .45 1 1zm-4 0c0 .55-.45 1-1 1s-1-.45-1-1 .45-1 1-1 1 .45 1 1zm-4 0c0 .55-.45 1-1 1s-1-.45-1-1 .45-1 1-1 1 .45 1 1zm-4 0c0 .55-.45 1-1 1s-1-.45-1-1 .45-1 1-1 1 .45 1 1zm-4 0c0 .55-.44 1-1 1-.55 0-1-.45-1-1s.45-1 1-1c.56 0 1 .45 1 1zm-4 0c0 .55-.44 1-1 1-.55 0-1-.45-1-1s.45-1 1-1c.56 0 1 .45 1 1zm-4 0c0 .55-.44 1-1 1-.54 0-1-.45-1-1s.46-1 1-1c.56 0 1 .45 1 1zm-4 0c0 .55-.44 1-1 1-.54 0-1-.45-1-1s.46-1 1-1c.56 0 1 .45 1 1zm-4 0c0 .55-.43 1-1 1-.54 0-1-.45-1-1s.46-1 1-1c.57 0 1 .45 1 1zm-4 0c0 .55-.43 1-1 1-.54 0-1-.45-1-1s.46-1 1-1c.57 0 1 .45 1 1zm-3.98 0c0 .55-.45 1-1 1-.56 0-1-.45-1-1s.44-1 1-1c.55 0 1 .45 1 1zm-3.7.64c0 .55-.44 1-1 1-.54 0-1-.45-1-1 0-.56.46-1 1-1 .56 0 1 .44 1 1zm-3.3 1.72c0 .55-.44 1-1 1-.55 0-1-.45-1-1s.45-1 1-1c.56 0 1 .45 1 1zm-2.63 2.64c0 .55-.44 1-1 1-.55 0-1-.45-1-1 0-.56.45-1 1-1 .56 0 1 .44 1 1zm-1.72 3.3c0 .56-.45 1-1 1s-1-.44-1-1c0-.55.45-1 1-1s1 .45 1 1zm-.64 3.7c0 .54-.45 1-1 1-.56 0-1-.46-1-1 0-.56.44-1 1-1 .55 0 1 .44 1 1zm0 4.06c0 .56-.45 1-1 1-.56 0-1-.44-1-1 0-.55.44-1 1-1 .55 0 1 .45 1 1zm0 4.08c0 .55-.45 1-1 1-.56 0-1-.45-1-1 0-.56.44-1 1-1 .55 0 1 .44 1 1zm0 4.07c0 .55-.45 1-1 1-.56 0-1-.45-1-1s.44-1 1-1c.55 0 1 .45 1 1zm0 4.07c0 .56-.45 1-1 1-.56 0-1-.44-1-1 0-.55.44-1 1-1 .55 0 1 .45 1 1zm0 4.08c0 .55-.45 1-1 1-.56 0-1-.45-1-1 0-.56.44-1 1-1 .55 0 1 .44 1 1zm0 4.07c0 .54-.45 1-1 1-.56 0-1-.46-1-1 0-.56.44-1 1-1 .55 0 1 .44 1 1zm0 4.06c0 .56-.45 1-1 1-.56 0-1-.44-1-1 0-.55.44-1 1-1 .55 0 1 .45 1 1zm0 4.08c0 .55-.45 1-1 1-.56 0-1-.45-1-1s.44-1 1-1c.55 0 1 .45 1 1zm0 4.07c0 .56-.45 1-1 1-.56 0-1-.44-1-1 0-.54.44-1 1-1 .55 0 1 .46 1 1zm0 4.08c0 .56-.45 1-1 1-.56 0-1-.44-1-1 0-.55.44-1 1-1 .55 0 1 .45 1 1zm0 4.08c0 .55-.45 1-1 1-.56 0-1-.45-1-1s.44-1 1-1c.55 0 1 .45 1 1zm0 4.07c0 .55-.45 1-1 1-.56 0-1-.45-1-1s.44-1 1-1c.55 0 1 .45 1 1zm0 4.07c0 .56-.45 1-1 1-.56 0-1-.44-1-1 0-.55.44-1 1-1 .55 0 1 .45 1 1zm0 4.08c0 .55-.45 1-1 1-.56 0-1-.45-1-1s.44-1 1-1c.55 0 1 .45 1 1zm0 4.07c0 .55-.45 1-1 1-.56 0-1-.45-1-1s.44-1 1-1c.55 0 1 .45 1 1zm0 4.07c0 .56-.45 1-1 1-.56 0-1-.44-1-1 0-.55.44-1 1-1 .55 0 1 .45 1 1zm0 4.08c0 .55-.45 1-1 1-.56 0-1-.45-1-1s.44-1 1-1c.55 0 1 .45 1 1z" fill="#333"/><path d="M367.98 216.43c0 8.3-6.7 15-15 15-8.28 0-15-6.7-15-15 0-8.28 6.72-15 15-15 8.3 0 15 6.72 15 15zM235.74 316.26L231.1 302h9.27z" stroke="#333" stroke-width="2" fill="#fff"/><path d="M291.74 365h32.85" stroke="#333" fill="none"/><path d="M291.75 365.5h-.5v-1h.5z" fill="#333"/><path d="M339.36 365l-14.27 4.64v-9.28z" stroke="#333" fill="#333"/><path d="M482.47 370h32.86" stroke="#333" fill="none"/><path d="M482.5 370.5h-.53v-1h.52z" fill="#333"/><path d="M530.1 370l-14.27 4.64v-9.28z" stroke="#333" fill="#333"/><defs><path fill="#333" d="M185-189c-5-48-123-54-124 2 14 75 158 14 163 119 3 78-121 87-175 55-17-10-28-26-33-46l33-7c5 56 141 63 141-1 0-78-155-14-162-118-5-82 145-84 179-34 5 7 8 16 11 25" id="V"/><path fill="#333" d="M96-169c-40 0-48 33-48 73s9 75 48 75c24 0 41-14 43-38l32 2c-6 37-31 61-74 61-59 0-76-41-82-99-10-93 101-131 147-64 4 7 5 14 7 22l-32 3c-4-21-16-35-41-35" id="W"/><path fill="#333" d="M114-163C36-179 61-72 57 0H25l-1-190h30c1 12-1 29 2 39 6-27 23-49 58-41v29" id="X"/><path fill="#333" d="M84 4C-5 8 30-112 23-190h32v120c0 31 7 50 39 49 72-2 45-101 50-169h31l1 190h-30c-1-10 1-25-2-33-11 22-28 36-60 37" id="Y"/><path fill="#333" d="M210-169c-67 3-38 105-44 169h-31v-121c0-29-5-50-35-48C34-165 62-65 56 0H25l-1-190h30c1 10-1 24 2 32 10-44 99-50 107 0 11-21 27-35 58-36 85-2 47 119 55 194h-31v-121c0-29-5-49-35-48" id="Z"/><g id="a"><use transform="matrix(0.05,0,0,0.05,0,0)" xlink:href="#V"/><use transform="matrix(0.05,0,0,0.05,12,0)" xlink:href="#W"/><use transform="matrix(0.05,0,0,0.05,21,0)" xlink:href="#X"/><use transform="matrix(0.05,0,0,0.05,26.950000000000003,0)" xlink:href="#Y"/><use transform="matrix(0.05,0,0,0.05,36.95,0)" xlink:href="#Z"/></g><path fill="#333" d="M33 0v-248h34V0H33" id="aa"/><path fill="#333" d="M117-194c89-4 53 116 60 194h-32v-121c0-31-8-49-39-48C34-167 62-67 57 0H25l-1-190h30c1 10-1 24 2 32 11-22 29-35 61-36" id="ab"/><path fill="#333" d="M34 0v-190h32V0H34zM24-211c8-23 27-35 38-54h36v5l-58 49H24" id="ac"/><path fill="#333" d="M24-231v-30h32v30H24zM24 0v-190h32V0H24" id="ad"/><path fill="#333" d="M100-194c62-1 85 37 85 99 1 63-27 99-86 99S16-35 15-95c0-66 28-99 85-99zM99-20c44 1 53-31 53-75 0-43-8-75-51-75s-53 32-53 75 10 74 51 75" id="ae"/><g id="b"><use transform="matrix(0.02530864197530864,0,0,0.02530864197530864,0,0)" xlink:href="#aa"/><use transform="matrix(0.02530864197530864,0,0,0.02530864197530864,2.530864197530864,0)" xlink:href="#ab"/><use transform="matrix(0.02530864197530864,0,0,0.02530864197530864,7.592592592592592,0)" xlink:href="#ac"/><use transform="matrix(0.02530864197530864,0,0,0.02530864197530864,10.123456790123456,0)" xlink:href="#W"/><use transform="matrix(0.02530864197530864,0,0,0.02530864197530864,14.679012345679011,0)" xlink:href="#ad"/><use transform="matrix(0.02530864197530864,0,0,0.02530864197530864,16.678395061728395,0)" xlink:href="#ae"/></g><path fill="#333" d="M63-220v92h138v28H63V0H30v-248h175v28H63" id="af"/><g id="c"><use transform="matrix(0.031481481481481485,0,0,0.031481481481481485,0,0)" xlink:href="#af"/><use transform="matrix(0.031481481481481485,0,0,0.031481481481481485,6.894444444444446,0)" xlink:href="#ad"/><use transform="matrix(0.031481481481481485,0,0,0.031481481481481485,9.381481481481483,0)" xlink:href="#Z"/></g><path d="M30 0v-248h187v28H63v79h144v27H63v87h162V0H30" id="ag"/><path d="M24 0v-261h32V0H24" id="ah"/><path d="M141-36C126-15 110 5 73 4 37 3 15-17 15-53c-1-64 63-63 125-63 3-35-9-54-41-54-24 1-41 7-42 31l-33-3c5-37 33-52 76-52 45 0 72 20 72 64v82c-1 20 7 32 28 27v20c-31 9-61-2-59-35zM48-53c0 20 12 33 32 33 41-3 63-29 60-74-43 2-92-5-92 41" id="ai"/><path d="M115-194c53 0 69 39 70 98 0 66-23 100-70 100C84 3 66-7 56-30L54 0H23l1-261h32v101c10-23 28-34 59-34zm-8 174c40 0 45-34 45-75 0-40-5-75-45-74-42 0-51 32-51 76 0 43 10 73 51 73" id="aj"/><path d="M100-194c62-1 85 37 85 99 1 63-27 99-86 99S16-35 15-95c0-66 28-99 85-99zM99-20c44 1 53-31 53-75 0-43-8-75-51-75s-53 32-53 75 10 74 51 75" id="ak"/><path d="M114-163C36-179 61-72 57 0H25l-1-190h30c1 12-1 29 2 39 6-27 23-49 58-41v29" id="al"/><path d="M96-169c-40 0-48 33-48 73s9 75 48 75c24 0 41-14 43-38l32 2c-6 37-31 61-74 61-59 0-76-41-82-99-10-93 101-131 147-64 4 7 5 14 7 22l-32 3c-4-21-16-35-41-35zm3 187c19-1 33 8 33 26 0 31-30 33-64 32V58c18 2 39 4 41-13 1-15-18-13-34-13L87 0h19" id="am"/><path d="M141-36C126-15 110 5 73 4 37 3 15-17 15-53c-1-64 63-63 125-63 3-35-9-54-41-54-24 1-41 7-42 31l-33-3c5-37 33-52 76-52 45 0 72 20 72 64v82c-1 20 7 32 28 27v20c-31 9-61-2-59-35zM48-53c0 20 12 33 32 33 41-3 63-29 60-74-43 2-92-5-92 41zm117-205c-3 23-9 48-36 47-26-1-65-44-74 0H39c4-23 8-48 36-47s64 44 74 0h16" id="an"/><g id="d"><use transform="matrix(0.031481481481481485,0,0,0.031481481481481485,0,0)" xlink:href="#ag"/><use transform="matrix(0.031481481481481485,0,0,0.031481481481481485,7.555555555555556,0)" xlink:href="#ah"/><use transform="matrix(0.031481481481481485,0,0,0.031481481481481485,10.042592592592595,0)" xlink:href="#ai"/><use transform="matrix(0.031481481481481485,0,0,0.031481481481481485,16.338888888888892,0)" xlink:href="#aj"/><use transform="matrix(0.031481481481481485,0,0,0.031481481481481485,22.63518518518519,0)" xlink:href="#ak"/><use transform="matrix(0.031481481481481485,0,0,0.031481481481481485,28.931481481481487,0)" xlink:href="#al"/><use transform="matrix(0.031481481481481485,0,0,0.031481481481481485,32.677777777777784,0)" xlink:href="#ai"/><use transform="matrix(0.031481481481481485,0,0,0.031481481481481485,38.97407407407408,0)" xlink:href="#am"/><use transform="matrix(0.031481481481481485,0,0,0.031481481481481485,44.640740740740746,0)" xlink:href="#an"/><use transform="matrix(0.031481481481481485,0,0,0.031481481481481485,50.937037037037044,0)" xlink:href="#ak"/></g><path d="M85-194c31 0 48 13 60 33l-1-100h32l1 261h-30c-2-10 0-23-3-31C134-8 116 4 85 4 32 4 16-35 15-94c0-66 23-100 70-100zm9 24c-40 0-46 34-46 75 0 40 6 74 45 74 42 0 51-32 51-76 0-42-9-74-50-73" id="ao"/><g id="e"><use transform="matrix(0.031481481481481485,0,0,0.031481481481481485,0,0)" xlink:href="#ao"/><use transform="matrix(0.031481481481481485,0,0,0.031481481481481485,6.296296296296297,0)" xlink:href="#ak"/></g><path d="M160-131c35 5 61 23 61 61C221 17 115-2 30 0v-248c76 3 177-17 177 60 0 33-19 50-47 57zm-97-11c50-1 110 9 110-42 0-47-63-36-110-37v79zm0 115c55-2 124 14 124-45 0-56-70-42-124-44v89" id="ap"/><path d="M96-169c-40 0-48 33-48 73s9 75 48 75c24 0 41-14 43-38l32 2c-6 37-31 61-74 61-59 0-76-41-82-99-10-93 101-131 147-64 4 7 5 14 7 22l-32 3c-4-21-16-35-41-35" id="aq"/><path d="M143 0L79-87 56-68V0H24v-261h32v163l83-92h37l-77 82L181 0h-38" id="ar"/><path d="M177-190C167-65 218 103 67 71c-23-6-38-20-44-43l32-5c15 47 100 32 89-28v-30C133-14 115 1 83 1 29 1 15-40 15-95c0-56 16-97 71-98 29-1 48 16 59 35 1-10 0-23 2-32h30zM94-22c36 0 50-32 50-73 0-42-14-75-50-75-39 0-46 34-46 75s6 73 46 73" id="as"/><g id="f"><use transform="matrix(0.031481481481481485,0,0,0.031481481481481485,0,0)" xlink:href="#ap"/><use transform="matrix(0.031481481481481485,0,0,0.031481481481481485,7.555555555555556,0)" xlink:href="#ai"/><use transform="matrix(0.031481481481481485,0,0,0.031481481481481485,13.851851851851853,0)" xlink:href="#aq"/><use transform="matrix(0.031481481481481485,0,0,0.031481481481481485,19.51851851851852,0)" xlink:href="#ar"/><use transform="matrix(0.031481481481481485,0,0,0.031481481481481485,25.185185185185187,0)" xlink:href="#ah"/><use transform="matrix(0.031481481481481485,0,0,0.031481481481481485,27.672222222222224,0)" xlink:href="#ak"/><use transform="matrix(0.031481481481481485,0,0,0.031481481481481485,33.96851851851852,0)" xlink:href="#as"/></g><g id="g"><use transform="matrix(0.031481481481481485,0,0,0.031481481481481485,0,0)" xlink:href="#ao"/><use transform="matrix(0.031481481481481485,0,0,0.031481481481481485,6.296296296296297,0)" xlink:href="#ak"/></g><path d="M30-248c87 1 191-15 191 75 0 78-77 80-158 76V0H30v-248zm33 125c57 0 124 11 124-50 0-59-68-47-124-48v98" id="at"/><path d="M84 4C-5 8 30-112 23-190h32v120c0 31 7 50 39 49 72-2 45-101 50-169h31l1 190h-30c-1-10 1-25-2-33-11 22-28 36-60 37" id="au"/><path d="M59-47c-2 24 18 29 38 22v24C64 9 27 4 27-40v-127H5v-23h24l9-43h21v43h35v23H59v120" id="av"/><g id="h"><use transform="matrix(0.031481481481481485,0,0,0.031481481481481485,0,0)" xlink:href="#at"/><use transform="matrix(0.031481481481481485,0,0,0.031481481481481485,7.555555555555556,0)" xlink:href="#al"/><use transform="matrix(0.031481481481481485,0,0,0.031481481481481485,11.301851851851854,0)" xlink:href="#ak"/><use transform="matrix(0.031481481481481485,0,0,0.031481481481481485,17.59814814814815,0)" xlink:href="#ao"/><use transform="matrix(0.031481481481481485,0,0,0.031481481481481485,23.89444444444445,0)" xlink:href="#au"/><use transform="matrix(0.031481481481481485,0,0,0.031481481481481485,30.190740740740747,0)" xlink:href="#av"/><use transform="matrix(0.031481481481481485,0,0,0.031481481481481485,33.338888888888896,0)" xlink:href="#ak"/></g><path fill="#333" d="M160-131c35 5 61 23 61 61C221 17 115-2 30 0v-248c76 3 177-17 177 60 0 33-19 50-47 57zm-97-11c50-1 110 9 110-42 0-47-63-36-110-37v79zm0 115c55-2 124 14 124-45 0-56-70-42-124-44v89" id="aw"/><path fill="#333" d="M141-36C126-15 110 5 73 4 37 3 15-17 15-53c-1-64 63-63 125-63 3-35-9-54-41-54-24 1-41 7-42 31l-33-3c5-37 33-52 76-52 45 0 72 20 72 64v82c-1 20 7 32 28 27v20c-31 9-61-2-59-35zM48-53c0 20 12 33 32 33 41-3 63-29 60-74-43 2-92-5-92 41" id="ax"/><path fill="#333" d="M143 0L79-87 56-68V0H24v-261h32v163l83-92h37l-77 82L181 0h-38" id="ay"/><path fill="#333" d="M24 0v-261h32V0H24" id="az"/><path fill="#333" d="M177-190C167-65 218 103 67 71c-23-6-38-20-44-43l32-5c15 47 100 32 89-28v-30C133-14 115 1 83 1 29 1 15-40 15-95c0-56 16-97 71-98 29-1 48 16 59 35 1-10 0-23 2-32h30zM94-22c36 0 50-32 50-73 0-42-14-75-50-75-39 0-46 34-46 75s6 73 46 73" id="aA"/><g id="i"><use transform="matrix(0.02530864197530864,0,0,0.02530864197530864,0,0)" xlink:href="#aw"/><use transform="matrix(0.02530864197530864,0,0,0.02530864197530864,6.0740740740740735,0)" xlink:href="#ax"/><use transform="matrix(0.02530864197530864,0,0,0.02530864197530864,11.1358024691358,0)" xlink:href="#W"/><use transform="matrix(0.02530864197530864,0,0,0.02530864197530864,15.691358024691356,0)" xlink:href="#ay"/><use transform="matrix(0.02530864197530864,0,0,0.02530864197530864,20.24691358024691,0)" xlink:href="#az"/><use transform="matrix(0.02530864197530864,0,0,0.02530864197530864,22.246296296296293,0)" xlink:href="#ae"/><use transform="matrix(0.02530864197530864,0,0,0.02530864197530864,27.30802469135802,0)" xlink:href="#aA"/></g><path fill="#333" d="M85-194c31 0 48 13 60 33l-1-100h32l1 261h-30c-2-10 0-23-3-31C134-8 116 4 85 4 32 4 16-35 15-94c0-66 23-100 70-100zm9 24c-40 0-46 34-46 75 0 40 6 74 45 74 42 0 51-32 51-76 0-42-9-74-50-73" id="aB"/><g id="j"><use transform="matrix(0.02530864197530864,0,0,0.02530864197530864,0,0)" xlink:href="#aB"/><use transform="matrix(0.02530864197530864,0,0,0.02530864197530864,5.061728395061728,0)" xlink:href="#ae"/></g><path fill="#333" d="M30-248c87 1 191-15 191 75 0 78-77 80-158 76V0H30v-248zm33 125c57 0 124 11 124-50 0-59-68-47-124-48v98" id="aC"/><path fill="#333" d="M59-47c-2 24 18 29 38 22v24C64 9 27 4 27-40v-127H5v-23h24l9-43h21v43h35v23H59v120" id="aD"/><g id="k"><use transform="matrix(0.02530864197530864,0,0,0.02530864197530864,0,0)" xlink:href="#aC"/><use transform="matrix(0.02530864197530864,0,0,0.02530864197530864,6.0740740740740735,0)" xlink:href="#X"/><use transform="matrix(0.02530864197530864,0,0,0.02530864197530864,9.085802469135801,0)" xlink:href="#ae"/><use transform="matrix(0.02530864197530864,0,0,0.02530864197530864,14.14753086419753,0)" xlink:href="#aB"/><use transform="matrix(0.02530864197530864,0,0,0.02530864197530864,19.209259259259255,0)" xlink:href="#Y"/><use transform="matrix(0.02530864197530864,0,0,0.02530864197530864,24.270987654320983,0)" xlink:href="#aD"/><use transform="matrix(0.02530864197530864,0,0,0.02530864197530864,26.80185185185185,0)" xlink:href="#ae"/></g><path d="M117-194c89-4 53 116 60 194h-32v-121c0-31-8-49-39-48C34-167 62-67 57 0H25l-1-190h30c1 10-1 24 2 32 11-22 29-35 61-36" id="aE"/><path d="M100-194c63 0 86 42 84 106H49c0 40 14 67 53 68 26 1 43-12 49-29l28 8c-11 28-37 45-77 45C44 4 14-33 15-96c1-61 26-98 85-98zm52 81c6-60-76-77-97-28-3 7-6 17-6 28h103" id="aF"/><path d="M24-231v-30h32v30H24zM-9 49c24 4 33-6 33-30v-209h32V24c2 40-23 58-65 49V49" id="aG"/><path d="M210-169c-67 3-38 105-44 169h-31v-121c0-29-5-50-35-48C34-165 62-65 56 0H25l-1-190h30c1 10-1 24 2 32 10-44 99-50 107 0 11-21 27-35 58-36 85-2 47 119 55 194h-31v-121c0-29-5-49-35-48" id="aH"/><g id="l"><use transform="matrix(0.031481481481481485,0,0,0.031481481481481485,0,0)" xlink:href="#at"/><use transform="matrix(0.031481481481481485,0,0,0.031481481481481485,7.555555555555556,0)" xlink:href="#ah"/><use transform="matrix(0.031481481481481485,0,0,0.031481481481481485,10.042592592592595,0)" xlink:href="#ai"/><use transform="matrix(0.031481481481481485,0,0,0.031481481481481485,16.338888888888892,0)" xlink:href="#aE"/><use transform="matrix(0.031481481481481485,0,0,0.031481481481481485,22.63518518518519,0)" xlink:href="#aF"/><use transform="matrix(0.031481481481481485,0,0,0.031481481481481485,28.931481481481487,0)" xlink:href="#aG"/><use transform="matrix(0.031481481481481485,0,0,0.031481481481481485,31.418518518518525,0)" xlink:href="#ai"/><use transform="matrix(0.031481481481481485,0,0,0.031481481481481485,37.71481481481482,0)" xlink:href="#aH"/><use transform="matrix(0.031481481481481485,0,0,0.031481481481481485,47.12777777777779,0)" xlink:href="#aF"/><use transform="matrix(0.031481481481481485,0,0,0.031481481481481485,53.424074074074085,0)" xlink:href="#aE"/><use transform="matrix(0.031481481481481485,0,0,0.031481481481481485,59.72037037037038,0)" xlink:href="#av"/><use transform="matrix(0.031481481481481485,0,0,0.031481481481481485,62.86851851851853,0)" xlink:href="#ak"/></g><g id="m"><use transform="matrix(0.031481481481481485,0,0,0.031481481481481485,0,0)" xlink:href="#ao"/><use transform="matrix(0.031481481481481485,0,0,0.031481481481481485,6.296296296296297,0)" xlink:href="#ai"/></g><path d="M185-189c-5-48-123-54-124 2 14 75 158 14 163 119 3 78-121 87-175 55-17-10-28-26-33-46l33-7c5 56 141 63 141-1 0-78-155-14-162-118-5-82 145-84 179-34 5 7 8 16 11 25" id="aI"/><path d="M115-194c55 1 70 41 70 98S169 2 115 4C84 4 66-9 55-30l1 105H24l-1-265h31l2 30c10-21 28-34 59-34zm-8 174c40 0 45-34 45-75s-6-73-45-74c-42 0-51 32-51 76 0 43 10 73 51 73" id="aJ"/><path d="M24-231v-30h32v30H24zM24 0v-190h32V0H24" id="aK"/><g id="n"><use transform="matrix(0.031481481481481485,0,0,0.031481481481481485,0,0)" xlink:href="#aI"/><use transform="matrix(0.031481481481481485,0,0,0.031481481481481485,7.555555555555556,0)" xlink:href="#aJ"/><use transform="matrix(0.031481481481481485,0,0,0.031481481481481485,13.851851851851853,0)" xlink:href="#al"/><use transform="matrix(0.031481481481481485,0,0,0.031481481481481485,17.598148148148148,0)" xlink:href="#aK"/><use transform="matrix(0.031481481481481485,0,0,0.031481481481481485,20.085185185185185,0)" xlink:href="#aE"/><use transform="matrix(0.031481481481481485,0,0,0.031481481481481485,26.381481481481483,0)" xlink:href="#av"/></g><g id="o"><use transform="matrix(0.031481481481481485,0,0,0.031481481481481485,0,0)" xlink:href="#aI"/><use transform="matrix(0.031481481481481485,0,0,0.031481481481481485,7.555555555555556,0)" xlink:href="#aJ"/><use transform="matrix(0.031481481481481485,0,0,0.031481481481481485,13.851851851851853,0)" xlink:href="#al"/><use transform="matrix(0.031481481481481485,0,0,0.031481481481481485,17.598148148148148,0)" xlink:href="#aK"/><use transform="matrix(0.031481481481481485,0,0,0.031481481481481485,20.085185185185185,0)" xlink:href="#aE"/><use transform="matrix(0.031481481481481485,0,0,0.031481481481481485,26.381481481481483,0)" xlink:href="#av"/></g><path d="M233-177c-1 41-23 64-60 70L243 0h-38l-65-103H63V0H30v-248c88 3 205-21 203 71zM63-129c60-2 137 13 137-47 0-61-80-42-137-45v92" id="aL"/><g id="p"><use transform="matrix(0.031481481481481485,0,0,0.031481481481481485,0,0)" xlink:href="#aL"/><use transform="matrix(0.031481481481481485,0,0,0.031481481481481485,8.153703703703705,0)" xlink:href="#aF"/><use transform="matrix(0.031481481481481485,0,0,0.031481481481481485,14.450000000000003,0)" xlink:href="#au"/><use transform="matrix(0.031481481481481485,0,0,0.031481481481481485,20.7462962962963,0)" xlink:href="#aE"/><use transform="matrix(0.031481481481481485,0,0,0.031481481481481485,27.042592592592598,0)" xlink:href="#aK"/><use transform="matrix(0.031481481481481485,0,0,0.031481481481481485,29.529629629629635,0)" xlink:href="#an"/><use transform="matrix(0.031481481481481485,0,0,0.031481481481481485,35.82592592592593,0)" xlink:href="#ak"/></g><g id="q"><use transform="matrix(0.031481481481481485,0,0,0.031481481481481485,0,0)" xlink:href="#aI"/><use transform="matrix(0.031481481481481485,0,0,0.031481481481481485,7.555555555555556,0)" xlink:href="#aF"/><use transform="matrix(0.031481481481481485,0,0,0.031481481481481485,13.851851851851853,0)" xlink:href="#aH"/><use transform="matrix(0.031481481481481485,0,0,0.031481481481481485,23.26481481481482,0)" xlink:href="#ai"/><use transform="matrix(0.031481481481481485,0,0,0.031481481481481485,29.561111111111117,0)" xlink:href="#aE"/><use transform="matrix(0.031481481481481485,0,0,0.031481481481481485,35.857407407407415,0)" xlink:href="#ai"/><use transform="matrix(0.031481481481481485,0,0,0.031481481481481485,42.15370370370371,0)" xlink:href="#ah"/></g><g id="r"><use transform="matrix(0.02530864197530864,0,0,0.02530864197530864,0,0)" xlink:href="#aw"/><use transform="matrix(0.02530864197530864,0,0,0.02530864197530864,6.0740740740740735,0)" xlink:href="#ax"/><use transform="matrix(0.02530864197530864,0,0,0.02530864197530864,11.1358024691358,0)" xlink:href="#W"/><use transform="matrix(0.02530864197530864,0,0,0.02530864197530864,15.691358024691356,0)" xlink:href="#ay"/><use transform="matrix(0.02530864197530864,0,0,0.02530864197530864,20.24691358024691,0)" xlink:href="#az"/><use transform="matrix(0.02530864197530864,0,0,0.02530864197530864,22.246296296296293,0)" xlink:href="#ae"/><use transform="matrix(0.02530864197530864,0,0,0.02530864197530864,27.30802469135802,0)" xlink:href="#aA"/></g><g id="s"><use transform="matrix(0.02530864197530864,0,0,0.02530864197530864,0,0)" xlink:href="#aB"/><use transform="matrix(0.02530864197530864,0,0,0.02530864197530864,5.061728395061728,0)" xlink:href="#ax"/></g><path fill="#333" d="M115-194c55 1 70 41 70 98S169 2 115 4C84 4 66-9 55-30l1 105H24l-1-265h31l2 30c10-21 28-34 59-34zm-8 174c40 0 45-34 45-75s-6-73-45-74c-42 0-51 32-51 76 0 43 10 73 51 73" id="aM"/><g id="t"><use transform="matrix(0.02530864197530864,0,0,0.02530864197530864,0,0)" xlink:href="#V"/><use transform="matrix(0.02530864197530864,0,0,0.02530864197530864,6.0740740740740735,0)" xlink:href="#aM"/><use transform="matrix(0.02530864197530864,0,0,0.02530864197530864,11.1358024691358,0)" xlink:href="#X"/><use transform="matrix(0.02530864197530864,0,0,0.02530864197530864,14.147530864197526,0)" xlink:href="#ad"/><use transform="matrix(0.02530864197530864,0,0,0.02530864197530864,16.14691358024691,0)" xlink:href="#ab"/><use transform="matrix(0.02530864197530864,0,0,0.02530864197530864,21.208641975308637,0)" xlink:href="#aD"/></g><path fill="#333" d="M205 0l-28-72H64L36 0H1l101-248h38L239 0h-34zm-38-99l-47-123c-12 45-31 82-46 123h93" id="aN"/><use transform="matrix(0.0191358024691358,0,0,0.0191358024691358,0,0)" xlink:href="#aN" id="u"/><path fill="#333" d="M96-169c-40 0-48 33-48 73s9 75 48 75c24 0 41-14 43-38l32 2c-6 37-31 61-74 61-59 0-76-41-82-99-10-93 101-131 147-64 4 7 5 14 7 22l-32 3c-4-21-16-35-41-35zm3 187c19-1 33 8 33 26 0 31-30 33-64 32V58c18 2 39 4 41-13 1-15-18-13-34-13L87 0h19" id="aO"/><path fill="#333" d="M141-36C126-15 110 5 73 4 37 3 15-17 15-53c-1-64 63-63 125-63 3-35-9-54-41-54-24 1-41 7-42 31l-33-3c5-37 33-52 76-52 45 0 72 20 72 64v82c-1 20 7 32 28 27v20c-31 9-61-2-59-35zM48-53c0 20 12 33 32 33 41-3 63-29 60-74-43 2-92-5-92 41zm117-205c-3 23-9 48-36 47-26-1-65-44-74 0H39c4-23 8-48 36-47s64 44 74 0h16" id="aP"/><g id="v"><use transform="matrix(0.0191358024691358,0,0,0.0191358024691358,0,0)" xlink:href="#ax"/><use transform="matrix(0.0191358024691358,0,0,0.0191358024691358,3.82716049382716,0)" xlink:href="#aM"/><use transform="matrix(0.0191358024691358,0,0,0.0191358024691358,7.65432098765432,0)" xlink:href="#az"/><use transform="matrix(0.0191358024691358,0,0,0.0191358024691358,9.166049382716048,0)" xlink:href="#ad"/><use transform="matrix(0.0191358024691358,0,0,0.0191358024691358,10.677777777777777,0)" xlink:href="#W"/><use transform="matrix(0.0191358024691358,0,0,0.0191358024691358,14.122222222222222,0)" xlink:href="#ax"/><use transform="matrix(0.0191358024691358,0,0,0.0191358024691358,17.94938271604938,0)" xlink:href="#aO"/><use transform="matrix(0.0191358024691358,0,0,0.0191358024691358,21.393827160493824,0)" xlink:href="#aP"/><use transform="matrix(0.0191358024691358,0,0,0.0191358024691358,25.220987654320986,0)" xlink:href="#ae"/></g><path fill="#333" d="M101-234c-31-9-42 10-38 44h38v23H63V0H32v-167H5v-23h27c-7-52 17-82 69-68v24" id="aQ"/><g id="w"><use transform="matrix(0.0191358024691358,0,0,0.0191358024691358,0,0)" xlink:href="#aQ"/><use transform="matrix(0.0191358024691358,0,0,0.0191358024691358,1.91358024691358,0)" xlink:href="#ae"/><use transform="matrix(0.0191358024691358,0,0,0.0191358024691358,5.74074074074074,0)" xlink:href="#ad"/></g><path fill="#333" d="M9 0v-24l116-142H16v-24h144v24L44-24h123V0H9" id="aR"/><path fill="#333" d="M103-251c84 0 111 97 45 133-19 10-37 24-39 52H78c0-63 77-55 77-114 0-30-21-42-52-43-32 0-53 17-56 46l-32-2c7-45 34-72 88-72zM77 0v-35h34V0H77" id="aS"/><g id="x"><use transform="matrix(0.0191358024691358,0,0,0.0191358024691358,0,0)" xlink:href="#aQ"/><use transform="matrix(0.0191358024691358,0,0,0.0191358024691358,1.91358024691358,0)" xlink:href="#ad"/><use transform="matrix(0.0191358024691358,0,0,0.0191358024691358,3.4253086419753083,0)" xlink:href="#ab"/><use transform="matrix(0.0191358024691358,0,0,0.0191358024691358,7.252469135802468,0)" xlink:href="#ax"/><use transform="matrix(0.0191358024691358,0,0,0.0191358024691358,11.079629629629629,0)" xlink:href="#az"/><use transform="matrix(0.0191358024691358,0,0,0.0191358024691358,12.591358024691358,0)" xlink:href="#ad"/><use transform="matrix(0.0191358024691358,0,0,0.0191358024691358,14.103086419753087,0)" xlink:href="#aR"/><use transform="matrix(0.0191358024691358,0,0,0.0191358024691358,17.54753086419753,0)" xlink:href="#ax"/><use transform="matrix(0.0191358024691358,0,0,0.0191358024691358,21.374691358024695,0)" xlink:href="#aB"/><use transform="matrix(0.0191358024691358,0,0,0.0191358024691358,25.201851851851853,0)" xlink:href="#ax"/><use transform="matrix(0.0191358024691358,0,0,0.0191358024691358,29.029012345679014,0)" xlink:href="#aS"/></g><path fill="#333" d="M190 0L58-211 59 0H30v-248h39L202-35l-2-213h31V0h-41" id="aT"/><g id="y"><use transform="matrix(0.03765432098765432,0,0,0.03765432098765432,0,0)" xlink:href="#aT"/><use transform="matrix(0.03765432098765432,0,0,0.03765432098765432,9.752469135802468,0)" xlink:href="#aP"/><use transform="matrix(0.03765432098765432,0,0,0.03765432098765432,17.28333333333333,0)" xlink:href="#ae"/></g><g id="B"><use transform="matrix(0.03765432098765432,0,0,0.03765432098765432,0,0)" xlink:href="#V"/><use transform="matrix(0.03765432098765432,0,0,0.03765432098765432,9.037037037037036,0)" xlink:href="#ad"/><use transform="matrix(0.03765432098765432,0,0,0.03765432098765432,12.011728395061727,0)" xlink:href="#Z"/></g><path d="M108 0H70L1-190h34L89-25l56-165h34" id="aU"/><path d="M135-143c-3-34-86-38-87 0 15 53 115 12 119 90S17 21 10-45l28-5c4 36 97 45 98 0-10-56-113-15-118-90-4-57 82-63 122-42 12 7 21 19 24 35" id="aV"/><g id="C"><use transform="matrix(0.031481481481481485,0,0,0.031481481481481485,0,0)" xlink:href="#aL"/><use transform="matrix(0.031481481481481485,0,0,0.031481481481481485,8.153703703703705,0)" xlink:href="#aF"/><use transform="matrix(0.031481481481481485,0,0,0.031481481481481485,14.450000000000003,0)" xlink:href="#aU"/><use transform="matrix(0.031481481481481485,0,0,0.031481481481481485,20.11666666666667,0)" xlink:href="#aK"/><use transform="matrix(0.031481481481481485,0,0,0.031481481481481485,22.603703703703708,0)" xlink:href="#aV"/><use transform="matrix(0.031481481481481485,0,0,0.031481481481481485,28.270370370370376,0)" xlink:href="#an"/><use transform="matrix(0.031481481481481485,0,0,0.031481481481481485,34.56666666666667,0)" xlink:href="#ak"/></g><g id="D"><use transform="matrix(0.031481481481481485,0,0,0.031481481481481485,0,0)" xlink:href="#ao"/><use transform="matrix(0.031481481481481485,0,0,0.031481481481481485,6.296296296296297,0)" xlink:href="#ai"/></g><g id="E"><use transform="matrix(0.031481481481481485,0,0,0.031481481481481485,0,0)" xlink:href="#aI"/><use transform="matrix(0.031481481481481485,0,0,0.031481481481481485,7.555555555555556,0)" xlink:href="#aJ"/><use transform="matrix(0.031481481481481485,0,0,0.031481481481481485,13.851851851851853,0)" xlink:href="#al"/><use transform="matrix(0.031481481481481485,0,0,0.031481481481481485,17.598148148148148,0)" xlink:href="#aK"/><use transform="matrix(0.031481481481481485,0,0,0.031481481481481485,20.085185185185185,0)" xlink:href="#aE"/><use transform="matrix(0.031481481481481485,0,0,0.031481481481481485,26.381481481481483,0)" xlink:href="#av"/></g><path fill="#333" d="M30-248c118-7 216 8 213 122C240-48 200 0 122 0H30v-248zM63-27c89 8 146-16 146-99s-60-101-146-95v194" id="aW"/><path fill="#333" d="M100-194c63 0 86 42 84 106H49c0 40 14 67 53 68 26 1 43-12 49-29l28 8c-11 28-37 45-77 45C44 4 14-33 15-96c1-61 26-98 85-98zm52 81c6-60-76-77-97-28-3 7-6 17-6 28h103" id="aX"/><path fill="#333" d="M135-143c-3-34-86-38-87 0 15 53 115 12 119 90S17 21 10-45l28-5c4 36 97 45 98 0-10-56-113-15-118-90-4-57 82-63 122-42 12 7 21 19 24 35" id="aY"/><g id="F"><use transform="matrix(0.05,0,0,0.05,0,0)" xlink:href="#aW"/><use transform="matrix(0.05,0,0,0.05,12.950000000000001,0)" xlink:href="#aX"/><use transform="matrix(0.05,0,0,0.05,22.950000000000003,0)" xlink:href="#aY"/><use transform="matrix(0.05,0,0,0.05,31.950000000000003,0)" xlink:href="#ad"/><use transform="matrix(0.05,0,0,0.05,35.900000000000006,0)" xlink:href="#aA"/><use transform="matrix(0.05,0,0,0.05,45.900000000000006,0)" xlink:href="#ab"/></g><g id="G"><use transform="matrix(0.05,0,0,0.05,0,0)" xlink:href="#V"/><use transform="matrix(0.05,0,0,0.05,12,0)" xlink:href="#aM"/><use transform="matrix(0.05,0,0,0.05,22,0)" xlink:href="#X"/><use transform="matrix(0.05,0,0,0.05,27.950000000000003,0)" xlink:href="#ad"/><use transform="matrix(0.05,0,0,0.05,31.899999999999995,0)" xlink:href="#ab"/><use transform="matrix(0.05,0,0,0.05,41.9,0)" xlink:href="#aD"/></g><path d="M232-93c-1 65-40 97-104 97C67 4 28-28 28-90v-158h33c8 89-33 224 67 224 102 0 64-133 71-224h33v155" id="aZ"/><g id="H"><use transform="matrix(0.031481481481481485,0,0,0.031481481481481485,0,0)" xlink:href="#aZ"/><use transform="matrix(0.031481481481481485,0,0,0.031481481481481485,8.153703703703705,0)" xlink:href="#aE"/><use transform="matrix(0.031481481481481485,0,0,0.031481481481481485,14.450000000000003,0)" xlink:href="#aJ"/><use transform="matrix(0.031481481481481485,0,0,0.031481481481481485,20.7462962962963,0)" xlink:href="#ai"/><use transform="matrix(0.031481481481481485,0,0,0.031481481481481485,27.042592592592598,0)" xlink:href="#aq"/><use transform="matrix(0.031481481481481485,0,0,0.031481481481481485,32.70925925925926,0)" xlink:href="#ar"/></g><path d="M106-169C34-169 62-67 57 0H25v-261h32l-1 103c12-21 28-36 61-36 89 0 53 116 60 194h-32v-121c2-32-8-49-39-48" id="ba"/><g id="I"><use transform="matrix(0.031481481481481485,0,0,0.031481481481481485,0,0)" xlink:href="#aI"/><use transform="matrix(0.031481481481481485,0,0,0.031481481481481485,7.555555555555556,0)" xlink:href="#ar"/><use transform="matrix(0.031481481481481485,0,0,0.031481481481481485,13.222222222222223,0)" xlink:href="#aF"/><use transform="matrix(0.031481481481481485,0,0,0.031481481481481485,19.51851851851852,0)" xlink:href="#av"/><use transform="matrix(0.031481481481481485,0,0,0.031481481481481485,22.666666666666668,0)" xlink:href="#aq"/><use transform="matrix(0.031481481481481485,0,0,0.031481481481481485,28.333333333333336,0)" xlink:href="#ba"/></g><path d="M30-248c118-7 216 8 213 122C240-48 200 0 122 0H30v-248zM63-27c89 8 146-16 146-99s-60-101-146-95v194" id="bb"/><g id="J"><use transform="matrix(0.031481481481481485,0,0,0.031481481481481485,0,0)" xlink:href="#bb"/><use transform="matrix(0.031481481481481485,0,0,0.031481481481481485,8.153703703703705,0)" xlink:href="#aF"/><use transform="matrix(0.031481481481481485,0,0,0.031481481481481485,14.450000000000003,0)" xlink:href="#aq"/><use transform="matrix(0.031481481481481485,0,0,0.031481481481481485,20.11666666666667,0)" xlink:href="#aK"/><use transform="matrix(0.031481481481481485,0,0,0.031481481481481485,22.603703703703708,0)" xlink:href="#aV"/><use transform="matrix(0.031481481481481485,0,0,0.031481481481481485,28.270370370370376,0)" xlink:href="#aK"/><use transform="matrix(0.031481481481481485,0,0,0.031481481481481485,30.757407407407413,0)" xlink:href="#ak"/><use transform="matrix(0.031481481481481485,0,0,0.031481481481481485,37.05370370370371,0)" xlink:href="#aE"/></g><path d="M179-190L93 31C79 59 56 82 12 73V49c39 6 53-20 64-50L1-190h34L92-34l54-156h33" id="bc"/><g id="K"><use transform="matrix(0.031481481481481485,0,0,0.031481481481481485,0,0)" xlink:href="#at"/><use transform="matrix(0.031481481481481485,0,0,0.031481481481481485,7.555555555555556,0)" xlink:href="#al"/><use transform="matrix(0.031481481481481485,0,0,0.031481481481481485,11.301851851851854,0)" xlink:href="#ak"/><use transform="matrix(0.031481481481481485,0,0,0.031481481481481485,17.59814814814815,0)" xlink:href="#av"/><use transform="matrix(0.031481481481481485,0,0,0.031481481481481485,20.7462962962963,0)" xlink:href="#ak"/><use transform="matrix(0.031481481481481485,0,0,0.031481481481481485,27.042592592592598,0)" xlink:href="#av"/><use transform="matrix(0.031481481481481485,0,0,0.031481481481481485,30.190740740740747,0)" xlink:href="#bc"/><use transform="matrix(0.031481481481481485,0,0,0.031481481481481485,35.857407407407415,0)" xlink:href="#aJ"/><use transform="matrix(0.031481481481481485,0,0,0.031481481481481485,42.15370370370371,0)" xlink:href="#aF"/></g><path fill="#333" d="M140-251c81 0 123 46 123 126C263-53 228-8 163 1c7 30 30 48 69 40v23c-55 16-95-15-103-61C56-3 17-48 17-125c0-80 42-126 123-126zm0 227c63 0 89-41 89-101s-29-99-89-99c-61 0-89 39-89 99S79-25 140-24" id="bd"/><g id="L"><use transform="matrix(0.02530864197530864,0,0,0.02530864197530864,0,0)" xlink:href="#bd"/><use transform="matrix(0.02530864197530864,0,0,0.02530864197530864,7.086419753086419,0)" xlink:href="#Y"/><use transform="matrix(0.02530864197530864,0,0,0.02530864197530864,12.148148148148147,0)" xlink:href="#ax"/><use transform="matrix(0.02530864197530864,0,0,0.02530864197530864,17.209876543209873,0)" xlink:href="#aB"/><use transform="matrix(0.02530864197530864,0,0,0.02530864197530864,22.2716049382716,0)" xlink:href="#X"/><use transform="matrix(0.02530864197530864,0,0,0.02530864197530864,25.283333333333328,0)" xlink:href="#ae"/></g><g id="M"><use transform="matrix(0.02530864197530864,0,0,0.02530864197530864,0,0)" xlink:href="#aB"/><use transform="matrix(0.02530864197530864,0,0,0.02530864197530864,5.061728395061728,0)" xlink:href="#aX"/></g><path fill="#333" d="M87 75C49 33 22-17 22-94c0-76 28-126 65-167h31c-38 41-64 92-64 168S80 34 118 75H87" id="be"/><path fill="#333" d="M33-261c38 41 65 92 65 168S71 34 33 75H2C39 34 66-17 66-93S39-220 2-261h31" id="bf"/><g id="N"><use transform="matrix(0.02530864197530864,0,0,0.02530864197530864,0,0)" xlink:href="#aa"/><use transform="matrix(0.02530864197530864,0,0,0.02530864197530864,2.530864197530864,0)" xlink:href="#aB"/><use transform="matrix(0.02530864197530864,0,0,0.02530864197530864,7.592592592592592,0)" xlink:href="#aX"/><use transform="matrix(0.02530864197530864,0,0,0.02530864197530864,12.65432098765432,0)" xlink:href="#ad"/><use transform="matrix(0.02530864197530864,0,0,0.02530864197530864,14.653703703703702,0)" xlink:href="#ax"/><use transform="matrix(0.02530864197530864,0,0,0.02530864197530864,19.71543209876543,0)" xlink:href="#aY"/><use transform="matrix(0.02530864197530864,0,0,0.02530864197530864,24.270987654320983,0)" xlink:href="#be"/><use transform="matrix(0.02530864197530864,0,0,0.02530864197530864,27.282716049382707,0)" xlink:href="#aw"/><use transform="matrix(0.02530864197530864,0,0,0.02530864197530864,33.35679012345678,0)" xlink:href="#X"/><use transform="matrix(0.02530864197530864,0,0,0.02530864197530864,36.36851851851851,0)" xlink:href="#ax"/><use transform="matrix(0.02530864197530864,0,0,0.02530864197530864,41.43024691358024,0)" xlink:href="#ad"/><use transform="matrix(0.02530864197530864,0,0,0.02530864197530864,43.42962962962962,0)" xlink:href="#ab"/><use transform="matrix(0.02530864197530864,0,0,0.02530864197530864,48.49135802469135,0)" xlink:href="#aY"/><use transform="matrix(0.02530864197530864,0,0,0.02530864197530864,53.04691358024691,0)" xlink:href="#aD"/><use transform="matrix(0.02530864197530864,0,0,0.02530864197530864,55.57777777777777,0)" xlink:href="#ae"/><use transform="matrix(0.02530864197530864,0,0,0.02530864197530864,60.639506172839496,0)" xlink:href="#X"/><use transform="matrix(0.02530864197530864,0,0,0.02530864197530864,63.65123456790123,0)" xlink:href="#Z"/><use transform="matrix(0.02530864197530864,0,0,0.02530864197530864,71.21851851851851,0)" xlink:href="#bf"/></g><path fill="#333" d="M233-177c-1 41-23 64-60 70L243 0h-38l-65-103H63V0H30v-248c88 3 205-21 203 71zM63-129c60-2 137 13 137-47 0-61-80-42-137-45v92" id="bg"/><path fill="#333" d="M106-169C34-169 62-67 57 0H25v-261h32l-1 103c12-21 28-36 61-36 89 0 53 116 60 194h-32v-121c2-32-8-49-39-48" id="bh"/><g id="O"><use transform="matrix(0.02530864197530864,0,0,0.02530864197530864,0,0)" xlink:href="#bg"/><use transform="matrix(0.02530864197530864,0,0,0.02530864197530864,6.554938271604938,0)" xlink:href="#ad"/><use transform="matrix(0.02530864197530864,0,0,0.02530864197530864,8.55432098765432,0)" xlink:href="#W"/><use transform="matrix(0.02530864197530864,0,0,0.02530864197530864,13.109876543209875,0)" xlink:href="#bh"/></g><g id="P"><use transform="matrix(0.02530864197530864,0,0,0.02530864197530864,0,0)" xlink:href="#aC"/><use transform="matrix(0.02530864197530864,0,0,0.02530864197530864,6.0740740740740735,0)" xlink:href="#ad"/><use transform="matrix(0.02530864197530864,0,0,0.02530864197530864,8.073456790123457,0)" xlink:href="#W"/><use transform="matrix(0.02530864197530864,0,0,0.02530864197530864,12.629012345679012,0)" xlink:href="#aD"/><use transform="matrix(0.02530864197530864,0,0,0.02530864197530864,15.159876543209874,0)" xlink:href="#Y"/><use transform="matrix(0.02530864197530864,0,0,0.02530864197530864,20.221604938271604,0)" xlink:href="#X"/><use transform="matrix(0.02530864197530864,0,0,0.02530864197530864,23.23333333333333,0)" xlink:href="#aX"/></g><path fill="#333" d="M179-190L93 31C79 59 56 82 12 73V49c39 6 53-20 64-50L1-190h34L92-34l54-156h33" id="bi"/><path fill="#333" d="M115-194c53 0 69 39 70 98 0 66-23 100-70 100C84 3 66-7 56-30L54 0H23l1-261h32v101c10-23 28-34 59-34zm-8 174c40 0 45-34 45-75 0-40-5-75-45-74-42 0-51 32-51 76 0 43 10 73 51 73" id="bj"/><g id="Q"><use transform="matrix(0.02530864197530864,0,0,0.02530864197530864,0,0)" xlink:href="#V"/><use transform="matrix(0.02530864197530864,0,0,0.02530864197530864,6.0740740740740735,0)" xlink:href="#aD"/><use transform="matrix(0.02530864197530864,0,0,0.02530864197530864,8.604938271604937,0)" xlink:href="#ae"/><use transform="matrix(0.02530864197530864,0,0,0.02530864197530864,13.666666666666664,0)" xlink:href="#X"/><use transform="matrix(0.02530864197530864,0,0,0.02530864197530864,16.67839506172839,0)" xlink:href="#bi"/><use transform="matrix(0.02530864197530864,0,0,0.02530864197530864,21.233950617283945,0)" xlink:href="#bj"/><use transform="matrix(0.02530864197530864,0,0,0.02530864197530864,26.29567901234567,0)" xlink:href="#ae"/><use transform="matrix(0.02530864197530864,0,0,0.02530864197530864,31.357407407407397,0)" xlink:href="#ax"/><use transform="matrix(0.02530864197530864,0,0,0.02530864197530864,36.41913580246913,0)" xlink:href="#X"/><use transform="matrix(0.02530864197530864,0,0,0.02530864197530864,39.43086419753086,0)" xlink:href="#aB"/></g><path fill="#333" d="M100-194c62-1 85 37 85 99 1 63-27 99-86 99S16-35 15-95c0-66 28-99 85-99zM99-20c44 1 53-31 53-75 0-43-8-75-51-75s-53 32-53 75 10 74 51 75zM76-211c8-23 27-35 38-54h36v5l-58 49H76" id="bk"/><g id="R"><use transform="matrix(0.02530864197530864,0,0,0.02530864197530864,0,0)" xlink:href="#aC"/><use transform="matrix(0.02530864197530864,0,0,0.02530864197530864,6.0740740740740735,0)" xlink:href="#X"/><use transform="matrix(0.02530864197530864,0,0,0.02530864197530864,9.085802469135801,0)" xlink:href="#ae"/><use transform="matrix(0.02530864197530864,0,0,0.02530864197530864,14.14753086419753,0)" xlink:href="#aD"/><use transform="matrix(0.02530864197530864,0,0,0.02530864197530864,16.678395061728395,0)" xlink:href="#bk"/><use transform="matrix(0.02530864197530864,0,0,0.02530864197530864,21.740123456790123,0)" xlink:href="#aD"/><use transform="matrix(0.02530864197530864,0,0,0.02530864197530864,24.270987654320987,0)" xlink:href="#ad"/><use transform="matrix(0.02530864197530864,0,0,0.02530864197530864,26.27037037037037,0)" xlink:href="#aM"/><use transform="matrix(0.02530864197530864,0,0,0.02530864197530864,31.332098765432097,0)" xlink:href="#ae"/></g><g id="T"><use transform="matrix(0.02530864197530864,0,0,0.02530864197530864,0,0)" xlink:href="#aa"/><use transform="matrix(0.02530864197530864,0,0,0.02530864197530864,2.530864197530864,0)" xlink:href="#ab"/><use transform="matrix(0.02530864197530864,0,0,0.02530864197530864,7.592592592592592,0)" xlink:href="#ac"/><use transform="matrix(0.02530864197530864,0,0,0.02530864197530864,10.123456790123456,0)" xlink:href="#W"/><use transform="matrix(0.02530864197530864,0,0,0.02530864197530864,14.679012345679011,0)" xlink:href="#ad"/><use transform="matrix(0.02530864197530864,0,0,0.02530864197530864,16.678395061728395,0)" xlink:href="#ae"/></g><g id="U"><use transform="matrix(0.031481481481481485,0,0,0.031481481481481485,0,0)" xlink:href="#af"/><use transform="matrix(0.031481481481481485,0,0,0.031481481481481485,6.894444444444446,0)" xlink:href="#ad"/><use transform="matrix(0.031481481481481485,0,0,0.031481481481481485,9.381481481481483,0)" xlink:href="#Z"/></g></defs></g></svg>