<svg xmlns="http://www.w3.org/2000/svg" xmlns:xlink="http://www.w3.org/1999/xlink" xmlns:lucid="lucid" width="919.55" height="640.45"><g transform="translate(0 0)" lucid:page-tab-id="VjMd39PQffTe"><path d="M0 0h919.55v640.45H0z" fill="#fff"/><path d="M180 418.93c0-4.4 3.58-8 8-8h84c4.42 0 8 3.6 8 8v64c0 4.42-3.58 8-8 8h-84c-4.42 0-8-3.58-8-8z" stroke="#333" fill="#fff"/><use xlink:href="#a" transform="matrix(1,0,0,1,180,410.93333333333334) translate(29.604999999999997 29.06666666666667)"/><use xlink:href="#b" transform="matrix(1,0,0,1,180,410.93333333333334) translate(13.187407407407408 42.66666666666667)"/><use xlink:href="#c" transform="matrix(1,0,0,1,180,410.93333333333334) translate(74.22999999999999 42.66666666666667)"/><use xlink:href="#d" transform="matrix(1,0,0,1,180,410.93333333333334) translate(15.454074074074066 56.26666666666667)"/><use xlink:href="#e" transform="matrix(1,0,0,1,180,410.93333333333334) translate(46.242962962962956 56.26666666666667)"/><path d="M147.8 153.43h20.9" stroke="#333" fill="none"/><path d="M147.82 153.93h-.58l.07-.5-.06-.5h.58z" fill="#333"/><path d="M183.46 153.43l-14.27 4.64v-9.28z" stroke="#333" fill="#333"/><path d="M185.58 128.3c0-4.43 3.58-8 8-8h84.5c4.4 0 8 3.57 8 8v50.27c0 4.42-3.6 8-8 8h-84.5c-4.42 0-8-3.58-8-8z" stroke="#333" fill="#fff"/><use xlink:href="#f" transform="matrix(1,0,0,1,185.57558244084782,120.29073298138282) translate(10.68462962962962 21.62916666666667)"/><use xlink:href="#g" transform="matrix(1,0,0,1,185.57558244084782,120.29073298138282) translate(71.06611111111111 21.62916666666667)"/><use xlink:href="#h" transform="matrix(1,0,0,1,185.57558244084782,120.29073298138282) translate(22.99388888888889 35.22916666666667)"/><use xlink:href="#i" transform="matrix(1,0,0,1,185.57558244084782,120.29073298138282) translate(64.42351851851852 35.22916666666667)"/><use xlink:href="#j" transform="matrix(1,0,0,1,185.57558244084782,120.29073298138282) translate(30.5337037037037 48.82916666666667)"/><path d="M286.82 154.32c0 .14-.1.25-.25.25-.14 0-.25-.1-.25-.25 0-.13.1-.25.25-.25.14 0 .25.12.25.25z" fill="#333"/><path fill="#333"/><path fill="#333"/><path d="M366.07 75.15c0-4.42 3.58-8 8-8h84.5c4.4 0 8 3.58 8 8v45.15c0 4.42-3.6 8-8 8h-84.5c-4.42 0-8-3.58-8-8z" stroke="#333" fill="#fff"/><use xlink:href="#k" transform="matrix(1,0,0,1,366.06581758136855,67.15122178823418) translate(6.324444444444447 32.31666666666667)"/><use xlink:href="#l" transform="matrix(1,0,0,1,366.06581758136855,67.15122178823418) translate(56.60037037037037 32.31666666666667)"/><path d="M146.8 153.43c0 5.63-4.36 10.2-9.75 10.2-5.4 0-9.75-4.57-9.75-10.2 0-5.63 4.36-10.2 9.75-10.2 5.4 0 9.75 4.57 9.75 10.2z" stroke="#333" fill="#fff"/><use xlink:href="#m" transform="matrix(1,0,0,1,127.29601841809499,165.61665182002767) translate(-0.8700617283950614 11.822222222222223)"/><path d="M366.07 194.57c0-4.42 3.58-8 8-8h84.5c4.4 0 8 3.58 8 8v50.28c0 4.42-3.6 8-8 8h-84.5c-4.42 0-8-3.58-8-8z" stroke="#333" fill="#fff"/><use xlink:href="#n" transform="matrix(1,0,0,1,366.06581758136855,186.56975559657428) translate(26.441111111111113 21.62916666666667)"/><use xlink:href="#o" transform="matrix(1,0,0,1,366.06581758136855,186.56975559657428) translate(21.120740740740743 35.22916666666667)"/><use xlink:href="#i" transform="matrix(1,0,0,1,366.06581758136855,186.56975559657428) translate(66.29666666666667 35.22916666666667)"/><use xlink:href="#p" transform="matrix(1,0,0,1,366.06581758136855,186.56975559657428) translate(25.150370370370368 48.82916666666667)"/><path d="M507.3 128.3c0-4.43 3.58-8 8-8h84.5c4.4 0 8 3.57 8 8v50.27c0 4.42-3.6 8-8 8h-84.5c-4.42 0-8-3.58-8-8z" stroke="#333" fill="#fff"/><use xlink:href="#q" transform="matrix(1,0,0,1,507.296018418095,120.29073309582994) translate(5.442962962962961 30.00416666666667)"/><use xlink:href="#r" transform="matrix(1,0,0,1,507.296018418095,120.29073309582994) translate(50.61888888888889 30.00416666666667)"/><use xlink:href="#s" transform="matrix(1,0,0,1,507.296018418095,120.29073309582994) translate(22.663333333333327 43.60416666666667)"/><use xlink:href="#j" transform="matrix(1,0,0,1,507.296018418095,120.29073309582994) translate(38.404074074074074 43.60416666666667)"/><path d="M315.33 153.43l20-20 20 20-20 20z" stroke="#333" fill="#fff"/><path d="M343.33 153.43c0 4.42-3.58 8-8 8s-8-3.58-8-8 3.58-8 8-8 8 3.58 8 8zM287.07 153.43h11.17" stroke="#333" fill="none"/><path d="M287.08 153.93h-.5v-1h.5z" fill="#333"/><path d="M313 153.43l-14.26 4.64v-9.28z" stroke="#333" fill="#333"/><path d="M335.33 132.22v-22.5c0-6.62 5.37-12 12-12h1.85" stroke="#333" fill="none"/><path d="M335.83 133.22l-.5-.5-.5.5v-1h1z" fill="#333"/><path d="M363.95 97.73l-14.27 4.63V93.1z" stroke="#333" fill="#333"/><path d="M335.33 174.64v33.07c0 6.64 5.37 12 12 12h1.85" stroke="#333" fill="none"/><path d="M335.83 174.65h-1v-1l.5.5.5-.5z" fill="#333"/><path d="M363.95 219.7l-14.27 4.64v-9.27z" stroke="#333" fill="#333"/><path d="M467.56 97.73h7.37c6.62 0 12 5.37 12 12v40.22c0 1.92 1.56 3.48 3.48 3.48" stroke="#333" fill="none"/><path d="M467.57 98.23h-.5v-1h.5z" fill="#333"/><path d="M505.18 153.43l-14.27 4.64v-9.28z" stroke="#333" fill="#333"/><path d="M467.56 219.7h7.37c6.62 0 12-5.36 12-12v-50.8c0-1.9 1.56-3.47 3.48-3.47" stroke="#333" fill="none"/><path d="M467.57 220.2h-.5v-1h.5z" fill="#333"/><path d="M505.18 153.43l-14.27 4.64v-9.28z" stroke="#333" fill="#333"/><path d="M608.8 153.43h62.1" stroke="#333" fill="none"/><path d="M608.8 153.93h-.5v-1h.5z" fill="#333"/><path d="M685.68 153.43l-14.27 4.64v-9.28z" stroke="#333" fill="#333"/><path d="M707.3 153.43c0 5.33-4.48 9.65-10 9.65-5.53 0-10-4.32-10-9.65s4.47-9.65 10-9.65c5.52 0 10 4.32 10 9.65z" stroke="#333" stroke-width="5" fill="#fff"/><use xlink:href="#t" transform="matrix(1,0,0,1,687.296018418095,165.08134000378348) translate(0.6027777777777761 12.266666666666667)"/><path d="M528.77 238.13c0-4.42 3.6-8 8-8h41.54c4.43 0 8 3.58 8 8V254c0 4.42-3.57 8-8 8h-41.53c-4.4 0-8-3.58-8-8z" stroke="#000" stroke-opacity="0" fill="#fff" fill-opacity="0"/><use xlink:href="#u" transform="matrix(1,0,0,1,533.7739397692781,235.13218587230273) translate(1.4879629629629676 7.288888888888889)"/><use xlink:href="#v" transform="matrix(1,0,0,1,533.7739397692781,235.13218587230273) translate(36.38858024691358 7.288888888888889)"/><use xlink:href="#w" transform="matrix(1,0,0,1,533.7739397692781,235.13218587230273) translate(8.068209876543213 18.22222222222222)"/><path d="M558.95 209.3l5.6 6.24v14.6h-14.02v-20.85z" stroke="#333" fill="#fff"/><path d="M558.95 209.3v6.24h5.6" stroke="#333" fill="none"/><path d="M558.54 188.07c0 .55-.45 1-1 1s-1-.45-1-1 .45-1 1-1 1 .45 1 1zm0 3.94c0 .57-.45 1-1 1s-1-.43-1-1c0-.54.45-1 1-1s1 .46 1 1zm0 3.96c0 .55-.45 1-1 1s-1-.45-1-1c0-.56.45-1 1-1s1 .44 1 1zm0 3.94c0 .55-.45 1-1 1s-1-.45-1-1 .45-1 1-1 1 .45 1 1zm0 3.94c0 .56-.45 1-1 1s-1-.44-1-1c0-.55.45-1 1-1s1 .45 1 1z" fill="#333"/><path d="M558.54 188.1h-2v-1.03h2zM558.54 208.8h-2v-1.04h2z" fill="#333"/><path d="M98.2 280H48c-4.42 0-8-3.58-8-8V48c0-4.42 3.58-8 8-8h50.2z" stroke="#333" fill="#fff"/><path d="M98.2 40H732c4.42 0 8 3.58 8 8v224c0 4.42-3.58 8-8 8H98.2z" stroke="#333" fill="none"/><use xlink:href="#x" transform="matrix(-1.8369701987210297e-16,-1,1,-1.8369701987210297e-16,39.999999999999986,280) translate(15.074999999999989 22.299999999999997)"/><use xlink:href="#y" transform="matrix(-1.8369701987210297e-16,-1,1,-1.8369701987210297e-16,39.999999999999986,280) translate(110.975 22.299999999999997)"/><use xlink:href="#z" transform="matrix(-1.8369701987210297e-16,-1,1,-1.8369701987210297e-16,39.999999999999986,280) translate(135.975 22.299999999999997)"/><use xlink:href="#A" transform="matrix(-1.8369701987210297e-16,-1,1,-1.8369701987210297e-16,39.999999999999986,280) translate(204.925 22.299999999999997)"/><use xlink:href="#B" transform="matrix(-1.8369701987210297e-16,-1,1,-1.8369701987210297e-16,39.999999999999986,280) translate(88.525 43.9)"/><path d="M80.38 600h-32c-4.42 0-8-3.58-8-8V328c0-4.42 3.58-8 8-8h32z" stroke="#333" fill="#fff"/><path d="M80.38 320H892c4.42 0 8 3.58 8 8v264c0 4.42-3.58 8-8 8H80.38z" stroke="#333" fill="none"/><use xlink:href="#C" transform="matrix(-1.8369701987210297e-16,-1,1,-1.8369701987210297e-16,40.38178057303554,600) translate(46.624999999999986 23.6)"/><use xlink:href="#D" transform="matrix(-1.8369701987210297e-16,-1,1,-1.8369701987210297e-16,40.38178057303554,600) translate(161.475 23.6)"/><use xlink:href="#E" transform="matrix(-1.8369701987210297e-16,-1,1,-1.8369701987210297e-16,40.38178057303554,600) translate(186.47500000000002 23.6)"/><path d="M138.2 450.93c0 5.63-4.37 10.2-9.75 10.2-5.4 0-9.76-4.57-9.76-10.2 0-5.62 4.36-10.18 9.75-10.18 5.38 0 9.75 4.56 9.75 10.18z" stroke="#333" fill="#fff"/><use xlink:href="#m" transform="matrix(1,0,0,1,118.69126024839285,463.11974086438244) translate(-0.8700617283950614 11.822222222222223)"/><path d="M481.7 550.93c0 5.33-4.5 9.65-10 9.65-5.53 0-10-4.32-10-9.65s4.47-9.65 10-9.65c5.5 0 10 4.32 10 9.65z" stroke="#333" stroke-width="5" fill="#fff"/><use xlink:href="#t" transform="matrix(1,0,0,1,461.6905203246427,562.5844290481383) translate(0.6027777777777761 12.266666666666667)"/><path d="M270.55 410.43c0 .14-.1.25-.25.25-.13 0-.25-.1-.25-.25 0-.13.12-.25.25-.25.14 0 .25.12.25.25z" fill="#333"/><path fill="#333"/><path fill="#333"/><path d="M138.2 368.85c0-4.42 3.58-8 8-8h41.54c4.42 0 8 3.58 8 8v15.86c0 4.43-3.58 8-8 8H146.2c-4.42 0-8-3.57-8-8z" stroke="#000" stroke-opacity="0" fill="#fff" fill-opacity="0"/><use xlink:href="#u" transform="matrix(1,0,0,1,143.2,365.84583793626547) translate(1.4879629629629676 7.288888888888889)"/><use xlink:href="#v" transform="matrix(1,0,0,1,143.2,365.84583793626547) translate(36.38858024691358 7.288888888888889)"/><use xlink:href="#w" transform="matrix(1,0,0,1,143.2,365.84583793626547) translate(8.068209876543213 18.22222222222222)"/><path d="M168.42 340l5.6 6.25v14.6H160V340z" stroke="#333" fill="#fff"/><path d="M168.42 340v6.25h5.6" stroke="#333" fill="none"/><path d="M240 368.85c0-4.42 3.58-8 8-8h48.26c4.42 0 8 3.58 8 8v26.8c0 4.4-3.58 8-8 8H248c-4.42 0-8-3.6-8-8z" stroke="#000" stroke-opacity="0" fill="#fff" fill-opacity="0"/><use xlink:href="#u" transform="matrix(1,0,0,1,245,365.84583793626547) translate(4.987962962962968 7.288888888888889)"/><use xlink:href="#F" transform="matrix(1,0,0,1,245,365.84583793626547) translate(39.88858024691358 7.288888888888889)"/><use xlink:href="#G" transform="matrix(1,0,0,1,245,365.84583793626547) translate(15.63024691358025 18.22222222222222)"/><use xlink:href="#H" transform="matrix(1,0,0,1,245,365.84583793626547) translate(12.099691358024694 29.155555555555555)"/><path d="M272.68 340l5.6 6.25v14.6h-14.02V340z" stroke="#333" fill="#fff"/><path d="M272.68 340v6.25h5.6" stroke="#333" fill="none"/><path d="M263.76 350.42c0 .56-.45 1-1 1s-1-.44-1-1c0-.55.45-1 1-1s1 .45 1 1zm-4.6 0c0 .56-.45 1-1 1-.56 0-1-.44-1-1 0-.55.44-1 1-1 .55 0 1 .45 1 1zm-4.6 0c0 .56-.46 1-1 1-.56 0-1-.44-1-1 0-.55.44-1 1-1 .54 0 1 .45 1 1zm-4.6 0c0 .56-.46 1-1 1-.57 0-1-.44-1-1 0-.55.43-1 1-1 .54 0 1 .45 1 1zm-3.7.65c0 .55-.45 1-1 1s-1-.45-1-1 .45-1 1-1 1 .45 1 1zm-3.3 1.72c0 .55-.46 1-1 1-.56 0-1-.45-1-1 0-.56.44-1 1-1 .54 0 1 .44 1 1zm-2.64 2.63c0 .55-.45 1-1 1-.56 0-1-.45-1-1s.44-1 1-1c.55 0 1 .45 1 1zm-1.73 3.3c0 .56-.46 1-1 1-.56 0-1-.44-1-1 0-.55.44-1 1-1 .54 0 1 .45 1 1zm-.65 3.7c0 .55-.45 1-1 1-.56 0-1-.45-1-1 0-.56.44-1 1-1 .55 0 1 .44 1 1zm0 4.2c0 .56-.45 1-1 1-.56 0-1-.44-1-1 0-.54.44-1 1-1 .55 0 1 .46 1 1zm0 4.22c0 .56-.45 1-1 1-.56 0-1-.44-1-1 0-.55.44-1 1-1 .55 0 1 .45 1 1zm0 4.22c0 .55-.45 1-1 1-.56 0-1-.45-1-1s.44-1 1-1c.55 0 1 .45 1 1zm0 4.2c0 .57-.45 1-1 1-.56 0-1-.43-1-1 0-.54.44-1 1-1 .55 0 1 .46 1 1zm0 4.23c0 .55-.45 1-1 1-.56 0-1-.45-1-1s.44-1 1-1c.55 0 1 .45 1 1zm0 4.22c0 .55-.45 1-1 1-.56 0-1-.45-1-1 0-.56.44-1 1-1 .55 0 1 .44 1 1z" fill="#333"/><path d="M263.76 351.42h-1.02v-2h1.02z" fill="#333"/><path d="M236.95 407.2l-4.64-14.27h9.28z" stroke="#333" stroke-width="2" fill="#fff"/><path d="M176.53 350.42c0 .56-.45 1-1 1s-1-.44-1-1c0-.55.45-1 1-1s1 .45 1 1zm4.1 0c0 .56-.43 1-1 1-.54 0-1-.44-1-1 0-.55.46-1 1-1 .57 0 1 .45 1 1zm4.13 0c0 .56-.45 1-1 1s-1-.44-1-1c0-.55.45-1 1-1s1 .45 1 1zm4.1 0c0 .56-.44 1-1 1-.54 0-1-.44-1-1 0-.55.46-1 1-1 .56 0 1 .45 1 1zm4.12 0c0 .56-.44 1-1 1-.55 0-1-.44-1-1 0-.55.45-1 1-1 .56 0 1 .45 1 1zm4.12 0c0 .56-.45 1-1 1-.56 0-1-.44-1-1 0-.55.44-1 1-1 .55 0 1 .45 1 1zm4.1 0c0 .56-.44 1-1 1-.54 0-1-.44-1-1 0-.55.46-1 1-1 .56 0 1 .45 1 1zm4.12 0c0 .56-.44 1-1 1-.55 0-1-.44-1-1 0-.55.45-1 1-1 .56 0 1 .45 1 1zm3.7.65c0 .55-.46 1-1 1-.56 0-1-.45-1-1s.44-1 1-1c.54 0 1 .45 1 1zm3.3 1.72c0 .55-.45 1-1 1s-1-.45-1-1c0-.56.45-1 1-1s1 .44 1 1zm2.63 2.63c0 .55-.44 1-1 1-.55 0-1-.45-1-1s.45-1 1-1c.56 0 1 .45 1 1zm1.73 3.3c0 .56-.45 1-1 1s-1-.44-1-1c0-.55.45-1 1-1s1 .45 1 1zm.64 3.7c0 .55-.44 1-1 1-.55 0-1-.45-1-1 0-.56.45-1 1-1 .56 0 1 .44 1 1zm0 4.2c0 .56-.44 1-1 1-.55 0-1-.44-1-1 0-.54.45-1 1-1 .56 0 1 .46 1 1zm0 4.22c0 .56-.44 1-1 1-.55 0-1-.44-1-1 0-.55.45-1 1-1 .56 0 1 .45 1 1zm0 4.22c0 .55-.44 1-1 1-.55 0-1-.45-1-1s.45-1 1-1c.56 0 1 .45 1 1zm0 4.2c0 .57-.44 1-1 1-.55 0-1-.43-1-1 0-.54.45-1 1-1 .56 0 1 .46 1 1zm0 4.23c0 .55-.44 1-1 1-.55 0-1-.45-1-1s.45-1 1-1c.56 0 1 .45 1 1zm0 4.22c0 .55-.44 1-1 1-.55 0-1-.45-1-1 0-.56.45-1 1-1 .56 0 1 .44 1 1zm0 4.2c0 .56-.44 1-1 1-.55 0-1-.44-1-1 0-.54.45-1 1-1 .56 0 1 .46 1 1z" fill="#333"/><path d="M175.56 351.42h-1.03v-2h1.03z" fill="#333"/><path d="M216.32 407.2l-4.63-14.27h9.26z" stroke="#333" stroke-width="2" fill="#fff"/><path d="M340 450.3l20-20 20 20-20 20z" stroke="#333" fill="#fff"/><path d="M352 442.3l16 16m-16 0l16-16M281 450.93h42.53" stroke="#333" fill="none"/><path d="M281 451.43h-.5v-1h.5z" fill="#333"/><path d="M338.3 450.93l-14.27 4.64v-9.27z" stroke="#333" fill="#333"/><path d="M327.87 400.7c0-4.4 3.58-8 8-8h48.26c4.42 0 8 3.6 8 8v26.8c0 4.43-3.58 8-8 8h-48.26c-4.42 0-8-3.57-8-8z" stroke="#000" stroke-opacity="0" fill="#fff" fill-opacity="0"/><use xlink:href="#I" transform="matrix(1,0,0,1,332.86873388088554,397.71250460293214) translate(13.84598765432099 7.288888888888889)"/><use xlink:href="#J" transform="matrix(1,0,0,1,332.86873388088554,397.71250460293214) translate(12.593209876543211 18.22222222222222)"/><use xlink:href="#K" transform="matrix(1,0,0,1,332.86873388088554,397.71250460293214) translate(3.975617283950619 29.155555555555555)"/><path d="M690 417.53c0-4.4 3.58-8 8-8h64c4.42 0 8 3.6 8 8v26.8c0 4.42-3.58 8-8 8h-64c-4.42 0-8-3.58-8-8z" stroke="#333" fill="#fff"/><use xlink:href="#L" transform="matrix(1,0,0,1,690,409.53333333333336) translate(19.27444444444444 14.076666666666668)"/><use xlink:href="#M" transform="matrix(1,0,0,1,690,409.53333333333336) translate(25.240185185185183 27.67666666666667)"/><path d="M744.88 374.73c0-4.4 3.6-8 8-8h48.27c4.42 0 8 3.6 8 8v26.8c0 4.42-3.58 8-8 8h-48.27c-4.4 0-8-3.58-8-8z" stroke="#000" stroke-opacity="0" fill="#fff" fill-opacity="0"/><use xlink:href="#u" transform="matrix(1,0,0,1,749.8842556592035,371.73333333333335) translate(4.987962962962968 13.476388888888888)"/><use xlink:href="#F" transform="matrix(1,0,0,1,749.8842556592035,371.73333333333335) translate(39.88858024691358 13.476388888888888)"/><use xlink:href="#G" transform="matrix(1,0,0,1,749.8842556592035,371.73333333333335) translate(15.63024691358025 24.40972222222222)"/><path d="M778.42 350.93l5.6 6.26v14.58H770v-20.85z" stroke="#333" fill="#fff"/><path d="M778.42 350.93v6.26h5.6" stroke="#333" fill="none"/><path d="M731 408.03c0 .56-.45 1-1 1s-1-.44-1-1c0-.55.45-1 1-1s1 .45 1 1zm0-3.85c0 .55-.45 1-1 1s-1-.45-1-1 .45-1 1-1 1 .45 1 1zm0-3.85c0 .55-.45 1-1 1s-1-.45-1-1 .45-1 1-1 1 .45 1 1zm0-3.86c0 .56-.45 1-1 1s-1-.44-1-1c0-.55.45-1 1-1s1 .45 1 1zm0-3.85c0 .55-.45 1-1 1s-1-.45-1-1 .45-1 1-1 1 .45 1 1zm0-3.85c0 .55-.45 1-1 1s-1-.45-1-1 .45-1 1-1 1 .45 1 1zm0-3.85c0 .55-.45 1-1 1s-1-.45-1-1c0-.56.45-1 1-1s1 .44 1 1zm0-3.86c0 .55-.45 1-1 1s-1-.45-1-1 .45-1 1-1 1 .45 1 1zm0-3.85c0 .56-.45 1-1 1s-1-.44-1-1c0-.54.45-1 1-1s1 .46 1 1zm0-3.84c0 .55-.45 1-1 1s-1-.45-1-1c0-.56.45-1 1-1s1 .44 1 1zm.64-3.7c0 .56-.44 1-1 1-.55 0-1-.44-1-1 0-.54.45-1 1-1 .56 0 1 .46 1 1zm1.73-3.3c0 .55-.45 1-1 1s-1-.45-1-1 .45-1 1-1 1 .45 1 1zm2.64-2.63c0 .55-.44 1-1 1-.55 0-1-.45-1-1 0-.56.45-1 1-1 .56 0 1 .44 1 1zm3.3-1.73c0 .55-.43 1-1 1-.54 0-1-.45-1-1s.46-1 1-1c.57 0 1 .45 1 1zm3.7-.64c0 .55-.45 1-1 1s-1-.45-1-1c0-.56.45-1 1-1s1 .44 1 1zm3.8 0c0 .55-.46 1-1 1-.57 0-1-.45-1-1 0-.56.43-1 1-1 .54 0 1 .44 1 1zm3.77 0c0 .55-.45 1-1 1s-1-.45-1-1c0-.56.45-1 1-1s1 .44 1 1zm3.8 0c0 .55-.46 1-1 1-.57 0-1-.45-1-1 0-.56.43-1 1-1 .54 0 1 .44 1 1zm3.77 0c0 .55-.44 1-1 1-.55 0-1-.45-1-1 0-.56.45-1 1-1 .56 0 1 .44 1 1zm3.8 0c0 .55-.46 1-1 1-.56 0-1-.45-1-1 0-.56.44-1 1-1 .54 0 1 .44 1 1zm3.77 0c0 .55-.43 1-1 1-.54 0-1-.45-1-1 0-.56.46-1 1-1 .57 0 1 .44 1 1zm3.8 0c0 .55-.45 1-1 1s-1-.45-1-1c0-.56.45-1 1-1s1 .44 1 1z" fill="#333"/><path d="M731 409.03h-2V408h2zM769.5 362.36h-1.03v-2h1.03z" fill="#333"/><path d="M321.7 538.93c0-4.4 3.57-8 8-8h64c4.4 0 8 3.6 8 8v26.8c0 4.42-3.6 8-8 8h-64c-4.43 0-8-3.58-8-8z" stroke="#333" fill="#fff"/><use xlink:href="#N" transform="matrix(1,0,0,1,321.6905203246427,530.9333333333333) translate(22.123518518518523 14.076666666666668)"/><use xlink:href="#O" transform="matrix(1,0,0,1,321.6905203246427,530.9333333333333) translate(14.536481481481482 27.67666666666667)"/><path d="M207.76 538.93c0-4.4 3.58-8 8-8h64c4.42 0 8 3.6 8 8v26.8c0 4.42-3.58 8-8 8h-64c-4.42 0-8-3.58-8-8z" stroke="#333" fill="#fff"/><use xlink:href="#P" transform="matrix(1,0,0,1,207.75941322962768,530.9333333333333) translate(15.181851851851851 14.076666666666668)"/><use xlink:href="#Q" transform="matrix(1,0,0,1,207.75941322962768,530.9333333333333) translate(15.78 27.67666666666667)"/><use xlink:href="#R" transform="matrix(1,0,0,1,207.75941322962768,530.9333333333333) translate(30.891111111111112 27.67666666666667)"/><path d="M430.38 348c0-4.42 3.58-8 8-8h82.4c4.4 0 8 3.58 8 8v64c0 4.42-3.6 8-8 8h-82.4c-4.42 0-8-3.58-8-8z" stroke="#333" fill="#fff"/><use xlink:href="#n" transform="matrix(1,0,0,1,430.3817805730355,340) translate(25.441111111111113 21.72291666666667)"/><use xlink:href="#b" transform="matrix(1,0,0,1,430.3817805730355,340) translate(12.187407407407408 35.32291666666667)"/><use xlink:href="#S" transform="matrix(1,0,0,1,430.3817805730355,340) translate(73.22999999999999 35.32291666666667)"/><use xlink:href="#T" transform="matrix(1,0,0,1,430.3817805730355,340) translate(21.63185185185185 48.92291666666667)"/><use xlink:href="#U" transform="matrix(1,0,0,1,430.3817805730355,340) translate(63.785555555555554 48.92291666666667)"/><use xlink:href="#V" transform="matrix(1,0,0,1,430.3817805730355,340) translate(29.817037037037032 62.522916666666674)"/><path d="M381.2 450.3h12.1c6.62 0 12-5.36 12-12v-50.1c0-4.53 3.67-8.2 8.2-8.2" stroke="#333" fill="none"/><path d="M381.22 450.8h-1l.5-.5-.5-.5h1z" fill="#333"/><path d="M428.26 380L414 384.64v-9.28z" stroke="#333" fill="#333"/><path d="M600 430.93l20-20 20 20-20 20z" stroke="#333" fill="#fff"/><path d="M360 471.52v7.4c0 6.64 5.37 12 12 12h236c6.63 0 12-5.36 12-12v-10.9" stroke="#333" fill="none"/><path d="M360.5 471.53h-1v-1l.5.5.5-.5z" fill="#333"/><path d="M620 453.26l4.64 14.26h-9.28z" stroke="#333" fill="#333"/><path d="M529.77 380H608c6.63 0 12 5.37 12 12v1.84" stroke="#333" fill="none"/><path d="M529.8 380.5h-.53v-1h.52z" fill="#333"/><path d="M620 408.6l-4.64-14.26h9.28z" stroke="#333" fill="#333"/><path d="M641.2 430.93h31.92" stroke="#333" fill="none"/><path d="M641.22 431.43h-1l.5-.5-.5-.5h1z" fill="#333"/><path d="M687.88 430.93l-14.26 4.64v-9.27z" stroke="#333" fill="#333"/><path d="M358.25 428c0-4.42 3.58-8 8-8h48.26c4.43 0 8 3.58 8 8v26.8c0 4.42-3.57 8-8 8h-48.25c-4.42 0-8-3.58-8-8z" stroke="#000" stroke-opacity="0" fill="#fff" fill-opacity="0"/><g><use xlink:href="#W" transform="matrix(1,0,0,1,363.2505144539211,425.00000000000006) translate(19.41388888888889 17.601388888888888)"/></g><path d="M355.33 470.8c0-4.42 3.58-8 8-8h48.26c4.4 0 8 3.58 8 8v26.8c0 4.42-3.6 8-8 8h-48.27c-4.42 0-8-3.58-8-8z" stroke="#000" stroke-opacity="0" fill="#fff" fill-opacity="0"/><g><use xlink:href="#X" transform="matrix(1,0,0,1,360.3289272087792,467.80000000000007) translate(17.401851851851852 17.601388888888888)"/></g><path d="M860 429.53c0 11.82-8.95 21.4-20 21.4s-20-9.58-20-21.4c0-11.82 8.95-21.4 20-21.4s20 9.58 20 21.4z" stroke="#333" fill="#333"/><path d="M828 424.6h16.8v-4.9l7.2 9.83-7.2 9.84v-4.92H828z" stroke="#333" fill="#fff"/><path d="M771 430.93h32.23" stroke="#333" fill="none"/><path d="M771 431.43h-.5v-1h.5z" fill="#333"/><path d="M818 430.93l-14.27 4.64v-9.27z" stroke="#333" fill="#333"/><path d="M160.38 552.33c0 11.82-8.95 21.4-20 21.4-11.04 0-20-9.58-20-21.4 0-11.82 8.96-21.4 20-21.4 11.05 0 20 9.58 20 21.4z" stroke="#333" fill="#fff"/><path d="M128.38 547.4h16.8v-4.9l7.2 9.83-7.2 9.84v-4.92h-16.8z" stroke="#333" fill="#fff"/><path d="M402.7 552.33H443" stroke="#333" fill="none"/><path d="M402.7 552.83h-.5v-1h.5z" fill="#333"/><path d="M457.77 552.33l-14.27 4.64v-9.27z" stroke="#333" fill="#333"/><path d="M288.76 552.33h16.05" stroke="#333" fill="none"/><path d="M288.77 552.83h-.5v-1h.5z" fill="#333"/><path d="M319.57 552.33l-14.26 4.64v-9.27z" stroke="#333" fill="#333"/><path d="M161.38 552.33h29.5" stroke="#333" fill="none"/><path d="M161.4 552.83h-.57l.05-.5-.04-.5h.56z" fill="#333"/><path d="M205.64 552.33l-14.26 4.64v-9.27z" stroke="#333" fill="#333"/><path d="M540.44 358.93c0-4.4 3.58-8 8-8h48.26c4.42 0 8 3.6 8 8v26.8c0 4.42-3.58 8-8 8h-48.26c-4.42 0-8-3.58-8-8z" stroke="#000" stroke-opacity="0" fill="#fff" fill-opacity="0"/><g><use xlink:href="#Y" transform="matrix(1,0,0,1,545.4352993568974,355.93333333333334) translate(7.161111111111115 14.045833333333333)"/><use xlink:href="#Z" transform="matrix(1,0,0,1,545.4352993568974,355.93333333333334) translate(25.037037037037038 14.045833333333333)"/><use xlink:href="#aa" transform="matrix(1,0,0,1,545.4352993568974,355.93333333333334) translate(31.51851851851852 14.045833333333333)"/><use xlink:href="#ab" transform="matrix(1,0,0,1,545.4352993568974,355.93333333333334) translate(16.624074074074077 19.645833333333332)"/></g><path d="M572.98 341.9l5.6 6.26v14.6h-14.02V341.9z" stroke="#333" fill="#fff"/><path d="M572.98 341.9v6.26h5.6" stroke="#333" fill="none"/><path d="M564.06 352.33c0 .56-.45 1-1 1s-1-.44-1-1c0-.55.45-1 1-1s1 .45 1 1zm-3.87 0c0 .56-.45 1-1 1-.56 0-1-.44-1-1 0-.55.44-1 1-1 .55 0 1 .45 1 1zm-3.87 0c0 .56-.45 1-1 1s-1-.44-1-1c0-.55.45-1 1-1s1 .45 1 1zm-3.86 0c0 .56-.45 1-1 1-.56 0-1-.44-1-1 0-.55.44-1 1-1 .55 0 1 .45 1 1zm-3.28 1.5c0 .57-.46 1-1 1-.56 0-1-.43-1-1 0-.54.44-1 1-1 .54 0 1 .46 1 1zm-1.53 3.3c0 .56-.45 1-1 1-.56 0-1-.44-1-1 0-.55.44-1 1-1 .55 0 1 .45 1 1zm-1.5 3.28c0 .56-.46 1-1 1-.57 0-1-.44-1-1 0-.54.43-1 1-1 .54 0 1 .46 1 1zm-3.3 1.53c0 .56-.45 1-1 1-.56 0-1-.44-1-1 0-.55.44-1 1-1 .55 0 1 .45 1 1zm-3.87 0c0 .56-.45 1-1 1s-1-.44-1-1c0-.55.45-1 1-1s1 .45 1 1zm-3.86 0c0 .56-.45 1-1 1s-1-.44-1-1c0-.55.45-1 1-1s1 .45 1 1z" fill="#333"/><path d="M564.06 353.33h-1.03v-2h1.03zM530.3 362.93h-1.03v-2h1.03zM248 530.18c0 .14-.1.25-.24.25-.14 0-.25-.1-.25-.25 0-.13.12-.25.26-.25s.25.12.25.25zm0-1c0 .14-.1.25-.24.25-.14 0-.25-.1-.25-.25 0-.13.12-.25.26-.25s.25.12.25.25zm0-1c0 .14-.1.25-.24.25-.14 0-.25-.1-.25-.25 0-.13.12-.25.26-.25s.25.12.25.25zm0-1c0 .14-.1.25-.24.25-.14 0-.25-.1-.25-.25 0-.13.12-.25.26-.25s.25.12.25.25zm0-1c0 .14-.1.25-.24.25-.14 0-.25-.1-.25-.25 0-.13.12-.25.26-.25s.25.12.25.25zm0-1c0 .14-.1.25-.24.25-.14 0-.25-.1-.25-.25 0-.13.12-.25.26-.25s.25.12.25.25zm0-1c0 .14-.1.25-.24.25-.14 0-.25-.1-.25-.25 0-.13.12-.25.26-.25s.25.12.25.25zm0-1c0 .14-.1.25-.24.25-.14 0-.25-.1-.25-.25 0-.13.12-.25.26-.25s.25.12.25.25zm0-1c0 .14-.1.25-.24.25-.14 0-.25-.1-.25-.25 0-.13.12-.25.26-.25s.25.12.25.25zm0-1c0 .14-.1.25-.24.25-.14 0-.25-.1-.25-.25 0-.13.12-.25.26-.25s.25.12.25.25zm0-1c0 .14-.1.25-.24.25-.14 0-.25-.1-.25-.25 0-.13.12-.25.26-.25s.25.12.25.25zm0-1c0 .14-.1.25-.24.25-.14 0-.25-.1-.25-.25 0-.13.12-.25.26-.25s.25.12.25.25zm0-1c0 .14-.1.25-.24.25-.14 0-.25-.1-.25-.25 0-.13.12-.25.26-.25s.25.12.25.25zm0-1c0 .14-.1.25-.24.25-.14 0-.25-.1-.25-.25 0-.13.12-.25.26-.25s.25.12.25.25zm0-1c0 .14-.1.25-.24.25-.14 0-.25-.1-.25-.25 0-.13.12-.25.26-.25s.25.12.25.25zm0-1c0 .14-.1.25-.24.25-.14 0-.25-.1-.25-.25 0-.13.12-.25.26-.25s.25.12.25.25zm0-1c0 .14-.1.25-.24.25-.14 0-.25-.1-.25-.25 0-.13.12-.25.26-.25s.25.12.25.25zm0-1c0 .14-.1.25-.24.25-.14 0-.25-.1-.25-.25 0-.13.12-.25.26-.25s.25.12.25.25zm0-1c0 .14-.1.25-.24.25-.14 0-.25-.1-.25-.25 0-.13.12-.25.26-.25s.25.12.25.25zm0-1c0 .14-.1.25-.24.25-.14 0-.25-.1-.25-.25 0-.13.12-.25.26-.25s.25.12.25.25zm0-1c0 .14-.1.25-.24.25-.14 0-.25-.1-.25-.25 0-.13.12-.25.26-.25s.25.12.25.25zm0-1c0 .14-.1.25-.24.25-.14 0-.25-.1-.25-.25 0-.13.12-.25.26-.25s.25.12.25.25zm0-1c0 .14-.1.25-.24.25-.14 0-.25-.1-.25-.25 0-.13.12-.25.26-.25s.25.12.25.25zm0-1c0 .14-.1.25-.24.25-.14 0-.25-.1-.25-.25 0-.13.12-.25.26-.25s.25.12.25.25zm0-1c0 .14-.1.25-.24.25-.14 0-.25-.1-.25-.25 0-.13.12-.25.26-.25s.25.12.25.25zm0-1c0 .14-.1.25-.24.25-.14 0-.25-.1-.25-.25 0-.13.12-.25.26-.25s.25.12.25.25zm0-1c0 .14-.1.25-.24.25-.14 0-.25-.1-.25-.25 0-.13.12-.25.26-.25s.25.12.25.25zm0-1c0 .14-.1.25-.24.25-.14 0-.25-.1-.25-.25 0-.13.12-.25.26-.25s.25.12.25.25zm0-1c0 .14-.1.25-.24.25-.14 0-.25-.1-.25-.25 0-.13.12-.25.26-.25s.25.12.25.25zm0-1c0 .14-.1.25-.24.25-.14 0-.25-.1-.25-.25 0-.13.12-.25.26-.25s.25.12.25.25zm0-1c0 .14-.1.25-.24.25-.14 0-.25-.1-.25-.25 0-.13.12-.25.26-.25s.25.12.25.25zm0-1c0 .14-.1.25-.24.25-.14 0-.25-.1-.25-.25 0-.13.12-.25.26-.25s.25.12.25.25zm0-1c0 .14-.1.25-.24.25-.14 0-.25-.1-.25-.25 0-.13.12-.25.26-.25s.25.12.25.25zm0-1c0 .14-.1.25-.24.25-.14 0-.25-.1-.25-.25 0-.13.12-.25.26-.25s.25.12.25.25zm0-1c0 .14-.1.25-.24.25-.14 0-.25-.1-.25-.25 0-.13.12-.25.26-.25s.25.12.25.25zm0-1c0 .14-.1.25-.24.25-.14 0-.25-.1-.25-.25 0-.13.12-.25.26-.25s.25.12.25.25zm0-1c0 .14-.1.25-.24.25-.14 0-.25-.1-.25-.25 0-.13.12-.25.26-.25s.25.12.25.25zm0-1c0 .14-.1.25-.24.25-.14 0-.25-.1-.25-.25 0-.13.12-.25.26-.25s.25.12.25.25zm0-1c0 .14-.1.25-.24.25-.14 0-.25-.1-.25-.25 0-.13.12-.25.26-.25s.25.12.25.25zm0-1c0 .14-.1.25-.24.25-.14 0-.25-.1-.25-.25 0-.13.12-.25.26-.25s.25.12.25.25zm0-1c0 .14-.1.25-.24.25-.14 0-.25-.1-.25-.25 0-.13.12-.25.26-.25s.25.12.25.25zm0-1c0 .14-.1.25-.24.25-.14 0-.25-.1-.25-.25 0-.13.12-.25.26-.25s.25.12.25.25zm0-1c0 .14-.1.25-.24.25-.14 0-.25-.1-.25-.25 0-.13.12-.25.26-.25s.25.12.25.25zm0-1c0 .14-.1.25-.24.25-.14 0-.25-.1-.25-.25 0-.13.12-.25.26-.25s.25.12.25.25zm0-1c0 .14-.1.25-.24.25-.14 0-.25-.1-.25-.25 0-.13.12-.25.26-.25s.25.12.25.25zm0-1c0 .14-.1.25-.24.25-.14 0-.25-.1-.25-.25 0-.13.12-.25.26-.25s.25.12.25.25zm0-1c0 .14-.1.25-.24.25-.14 0-.25-.1-.25-.25 0-.13.12-.25.26-.25s.25.12.25.25zm0-1c0 .14-.1.25-.24.25-.14 0-.25-.1-.25-.25 0-.13.12-.25.26-.25s.25.12.25.25zm0-1c0 .14-.1.25-.24.25-.14 0-.25-.1-.25-.25 0-.13.12-.25.26-.25s.25.12.25.25zm0-1c0 .14-.1.25-.24.25-.14 0-.25-.1-.25-.25 0-.13.12-.25.26-.25s.25.12.25.25zm0-1c0 .14-.1.25-.24.25-.14 0-.25-.1-.25-.25 0-.13.12-.25.26-.25s.25.12.25.25zm0-1c0 .14-.1.25-.24.25-.14 0-.25-.1-.25-.25 0-.13.12-.25.26-.25s.25.12.25.25zm0-1c0 .14-.1.25-.24.25-.14 0-.25-.1-.25-.25 0-.13.12-.25.26-.25s.25.12.25.25zm0-1c0 .14-.1.25-.24.25-.14 0-.25-.1-.25-.25 0-.13.12-.25.26-.25s.25.12.25.25zm0-1c0 .14-.1.25-.24.25-.14 0-.25-.1-.25-.25 0-.13.12-.25.26-.25s.25.12.25.25zm0-1c0 .14-.1.25-.24.25-.14 0-.25-.1-.25-.25 0-.13.12-.25.26-.25s.25.12.25.25zm0-1c0 .14-.1.25-.24.25-.14 0-.25-.1-.25-.25 0-.13.12-.25.26-.25s.25.12.25.25zm0-1c0 .14-.1.25-.24.25-.14 0-.25-.1-.25-.25 0-.13.12-.25.26-.25s.25.12.25.25zm0-1c0 .14-.1.25-.24.25-.14 0-.25-.1-.25-.25 0-.13.12-.25.26-.25s.25.12.25.25zm0-1c0 .14-.1.25-.24.25-.14 0-.25-.1-.25-.25 0-.13.12-.25.26-.25s.25.12.25.25zm0-1c0 .14-.1.25-.24.25-.14 0-.25-.1-.25-.25 0-.13.12-.25.26-.25s.25.12.25.25zm0-1c0 .14-.1.25-.24.25-.14 0-.25-.1-.25-.25 0-.13.12-.25.26-.25s.25.12.25.25zm0-1c0 .14-.1.25-.24.25-.14 0-.25-.1-.25-.25 0-.13.12-.25.26-.25s.25.12.25.25zm0-1c0 .14-.1.25-.24.25-.14 0-.25-.1-.25-.25 0-.13.12-.25.26-.25s.25.12.25.25zm0-1c0 .14-.1.25-.24.25-.14 0-.25-.1-.25-.25 0-.13.12-.25.26-.25s.25.12.25.25zm0-1c0 .14-.1.25-.24.25-.14 0-.25-.1-.25-.25 0-.13.12-.25.26-.25s.25.12.25.25zm0-1c0 .14-.1.25-.24.25-.14 0-.25-.1-.25-.25 0-.13.12-.25.26-.25s.25.12.25.25zm0-1c0 .14-.1.25-.24.25-.14 0-.25-.1-.25-.25 0-.13.12-.25.26-.25s.25.12.25.25zm0-1c0 .14-.1.25-.24.25-.14 0-.25-.1-.25-.25 0-.13.12-.25.26-.25s.25.12.25.25zm0-1c0 .14-.1.25-.24.25-.14 0-.25-.1-.25-.25 0-.13.12-.25.26-.25s.25.12.25.25zm0-1c0 .14-.1.25-.24.25-.14 0-.25-.1-.25-.25 0-.13.12-.25.26-.25s.25.12.25.25zm0-1c0 .14-.1.25-.24.25-.14 0-.25-.1-.25-.25 0-.13.12-.25.26-.25s.25.12.25.25zm0-1c0 .14-.1.25-.24.25-.14 0-.25-.1-.25-.25 0-.13.12-.25.26-.25s.25.12.25.25zm0-1c0 .14-.1.25-.24.25-.14 0-.25-.1-.25-.25 0-.13.12-.25.26-.25s.25.12.25.25zm0-1c0 .14-.1.25-.24.25-.14 0-.25-.1-.25-.25 0-.13.12-.25.26-.25s.25.12.25.25zm0-1c0 .14-.1.25-.24.25-.14 0-.25-.1-.25-.25 0-.13.12-.25.26-.25s.25.12.25.25zm0-1c0 .14-.1.25-.24.25-.14 0-.25-.1-.25-.25 0-.13.12-.25.26-.25s.25.12.25.25zm0-1c0 .14-.1.25-.24.25-.14 0-.25-.1-.25-.25 0-.13.12-.25.26-.25s.25.12.25.25zm0-1c0 .14-.1.25-.24.25-.14 0-.25-.1-.25-.25 0-.13.12-.25.26-.25s.25.12.25.25z" fill="#333"/><path d="M248 530.43h-.5v-.25h.5z" fill="#333"/><path d="M247.76 451.2v-.27" stroke="#333" stroke-width=".5" fill="none"/><defs><path d="M137 0h-34L2-248h35l83 218 83-218h36" id="ac"/><path d="M100-194c63 0 86 42 84 106H49c0 40 14 67 53 68 26 1 43-12 49-29l28 8c-11 28-37 45-77 45C44 4 14-33 15-96c1-61 26-98 85-98zm52 81c6-60-76-77-97-28-3 7-6 17-6 28h103" id="ad"/><path d="M114-163C36-179 61-72 57 0H25l-1-190h30c1 12-1 29 2 39 6-27 23-49 58-41v29" id="ae"/><path d="M24-231v-30h32v30H24zM24 0v-190h32V0H24" id="af"/><path d="M101-234c-31-9-42 10-38 44h38v23H63V0H32v-167H5v-23h27c-7-52 17-82 69-68v24" id="ag"/><path d="M96-169c-40 0-48 33-48 73s9 75 48 75c24 0 41-14 43-38l32 2c-6 37-31 61-74 61-59 0-76-41-82-99-10-93 101-131 147-64 4 7 5 14 7 22l-32 3c-4-21-16-35-41-35" id="ah"/><path d="M141-36C126-15 110 5 73 4 37 3 15-17 15-53c-1-64 63-63 125-63 3-35-9-54-41-54-24 1-41 7-42 31l-33-3c5-37 33-52 76-52 45 0 72 20 72 64v82c-1 20 7 32 28 27v20c-31 9-61-2-59-35zM48-53c0 20 12 33 32 33 41-3 63-29 60-74-43 2-92-5-92 41" id="ai"/><g id="a"><use transform="matrix(0.031481481481481485,0,0,0.031481481481481485,0,0)" xlink:href="#ac"/><use transform="matrix(0.031481481481481485,0,0,0.031481481481481485,6.9259259259259265,0)" xlink:href="#ad"/><use transform="matrix(0.031481481481481485,0,0,0.031481481481481485,13.222222222222223,0)" xlink:href="#ae"/><use transform="matrix(0.031481481481481485,0,0,0.031481481481481485,16.968518518518522,0)" xlink:href="#af"/><use transform="matrix(0.031481481481481485,0,0,0.031481481481481485,19.45555555555556,0)" xlink:href="#ag"/><use transform="matrix(0.031481481481481485,0,0,0.031481481481481485,22.603703703703708,0)" xlink:href="#af"/><use transform="matrix(0.031481481481481485,0,0,0.031481481481481485,25.090740740740745,0)" xlink:href="#ah"/><use transform="matrix(0.031481481481481485,0,0,0.031481481481481485,30.757407407407413,0)" xlink:href="#ai"/><use transform="matrix(0.031481481481481485,0,0,0.031481481481481485,37.05370370370371,0)" xlink:href="#ae"/></g><path d="M115-194c55 1 70 41 70 98S169 2 115 4C84 4 66-9 55-30l1 105H24l-1-265h31l2 30c10-21 28-34 59-34zm-8 174c40 0 45-34 45-75s-6-73-45-74c-42 0-51 32-51 76 0 43 10 73 51 73" id="aj"/><path d="M117-194c89-4 53 116 60 194h-32v-121c0-31-8-49-39-48C34-167 62-67 57 0H25l-1-190h30c1 10-1 24 2 32 11-22 29-35 61-36" id="ak"/><path d="M85-194c31 0 48 13 60 33l-1-100h32l1 261h-30c-2-10 0-23-3-31C134-8 116 4 85 4 32 4 16-35 15-94c0-66 23-100 70-100zm9 24c-40 0-46 34-46 75 0 40 6 74 45 74 42 0 51-32 51-76 0-42-9-74-50-73" id="al"/><path d="M100-194c63 0 86 42 84 106H49c0 40 14 67 53 68 26 1 43-12 49-29l28 8c-11 28-37 45-77 45C44 4 14-33 15-96c1-61 26-98 85-98zm52 81c6-60-76-77-97-28-3 7-6 17-6 28h103zm-32-149c12 18 30 30 39 51-31 2-38-20-57-30-20 10-27 32-59 30 9-22 29-33 41-51h36" id="am"/><path d="M135-143c-3-34-86-38-87 0 15 53 115 12 119 90S17 21 10-45l28-5c4 36 97 45 98 0-10-56-113-15-118-90-4-57 82-63 122-42 12 7 21 19 24 35" id="an"/><g id="b"><use transform="matrix(0.031481481481481485,0,0,0.031481481481481485,0,0)" xlink:href="#aj"/><use transform="matrix(0.031481481481481485,0,0,0.031481481481481485,6.296296296296297,0)" xlink:href="#ad"/><use transform="matrix(0.031481481481481485,0,0,0.031481481481481485,12.592592592592593,0)" xlink:href="#ak"/><use transform="matrix(0.031481481481481485,0,0,0.031481481481481485,18.88888888888889,0)" xlink:href="#al"/><use transform="matrix(0.031481481481481485,0,0,0.031481481481481485,25.185185185185187,0)" xlink:href="#am"/><use transform="matrix(0.031481481481481485,0,0,0.031481481481481485,31.481481481481485,0)" xlink:href="#ak"/><use transform="matrix(0.031481481481481485,0,0,0.031481481481481485,37.77777777777778,0)" xlink:href="#ah"/><use transform="matrix(0.031481481481481485,0,0,0.031481481481481485,43.44444444444444,0)" xlink:href="#af"/><use transform="matrix(0.031481481481481485,0,0,0.031481481481481485,45.931481481481484,0)" xlink:href="#ai"/><use transform="matrix(0.031481481481481485,0,0,0.031481481481481485,52.22777777777778,0)" xlink:href="#an"/></g><g id="c"><use transform="matrix(0.031481481481481485,0,0,0.031481481481481485,0,0)" xlink:href="#al"/><use transform="matrix(0.031481481481481485,0,0,0.031481481481481485,6.296296296296297,0)" xlink:href="#ai"/></g><path d="M59-47c-2 24 18 29 38 22v24C64 9 27 4 27-40v-127H5v-23h24l9-43h21v43h35v23H59v120" id="ao"/><g id="d"><use transform="matrix(0.031481481481481485,0,0,0.031481481481481485,0,0)" xlink:href="#an"/><use transform="matrix(0.031481481481481485,0,0,0.031481481481481485,5.666666666666667,0)" xlink:href="#aj"/><use transform="matrix(0.031481481481481485,0,0,0.031481481481481485,11.962962962962964,0)" xlink:href="#ae"/><use transform="matrix(0.031481481481481485,0,0,0.031481481481481485,15.70925925925926,0)" xlink:href="#af"/><use transform="matrix(0.031481481481481485,0,0,0.031481481481481485,18.196296296296296,0)" xlink:href="#ak"/><use transform="matrix(0.031481481481481485,0,0,0.031481481481481485,24.492592592592594,0)" xlink:href="#ao"/></g><path d="M100-194c62-1 85 37 85 99 1 63-27 99-86 99S16-35 15-95c0-66 28-99 85-99zM99-20c44 1 53-31 53-75 0-43-8-75-51-75s-53 32-53 75 10 74 51 75" id="ap"/><g id="e"><use transform="matrix(0.031481481481481485,0,0,0.031481481481481485,0,0)" xlink:href="#ai"/><use transform="matrix(0.031481481481481485,0,0,0.031481481481481485,6.296296296296297,0)" xlink:href="#ak"/><use transform="matrix(0.031481481481481485,0,0,0.031481481481481485,12.592592592592593,0)" xlink:href="#ao"/><use transform="matrix(0.031481481481481485,0,0,0.031481481481481485,15.740740740740742,0)" xlink:href="#ad"/><use transform="matrix(0.031481481481481485,0,0,0.031481481481481485,22.037037037037038,0)" xlink:href="#ae"/><use transform="matrix(0.031481481481481485,0,0,0.031481481481481485,25.783333333333335,0)" xlink:href="#af"/><use transform="matrix(0.031481481481481485,0,0,0.031481481481481485,28.270370370370372,0)" xlink:href="#ap"/><use transform="matrix(0.031481481481481485,0,0,0.031481481481481485,34.56666666666667,0)" xlink:href="#ae"/></g><path d="M30 0v-248h187v28H63v79h144v27H63v87h162V0H30" id="aq"/><path d="M24 0v-261h32V0H24" id="ar"/><path d="M115-194c53 0 69 39 70 98 0 66-23 100-70 100C84 3 66-7 56-30L54 0H23l1-261h32v101c10-23 28-34 59-34zm-8 174c40 0 45-34 45-75 0-40-5-75-45-74-42 0-51 32-51 76 0 43 10 73 51 73" id="as"/><path d="M96-169c-40 0-48 33-48 73s9 75 48 75c24 0 41-14 43-38l32 2c-6 37-31 61-74 61-59 0-76-41-82-99-10-93 101-131 147-64 4 7 5 14 7 22l-32 3c-4-21-16-35-41-35zm3 187c19-1 33 8 33 26 0 31-30 33-64 32V58c18 2 39 4 41-13 1-15-18-13-34-13L87 0h19" id="at"/><path d="M141-36C126-15 110 5 73 4 37 3 15-17 15-53c-1-64 63-63 125-63 3-35-9-54-41-54-24 1-41 7-42 31l-33-3c5-37 33-52 76-52 45 0 72 20 72 64v82c-1 20 7 32 28 27v20c-31 9-61-2-59-35zM48-53c0 20 12 33 32 33 41-3 63-29 60-74-43 2-92-5-92 41zm117-205c-3 23-9 48-36 47-26-1-65-44-74 0H39c4-23 8-48 36-47s64 44 74 0h16" id="au"/><g id="f"><use transform="matrix(0.031481481481481485,0,0,0.031481481481481485,0,0)" xlink:href="#aq"/><use transform="matrix(0.031481481481481485,0,0,0.031481481481481485,7.555555555555556,0)" xlink:href="#ar"/><use transform="matrix(0.031481481481481485,0,0,0.031481481481481485,10.042592592592595,0)" xlink:href="#ai"/><use transform="matrix(0.031481481481481485,0,0,0.031481481481481485,16.338888888888892,0)" xlink:href="#as"/><use transform="matrix(0.031481481481481485,0,0,0.031481481481481485,22.63518518518519,0)" xlink:href="#ap"/><use transform="matrix(0.031481481481481485,0,0,0.031481481481481485,28.931481481481487,0)" xlink:href="#ae"/><use transform="matrix(0.031481481481481485,0,0,0.031481481481481485,32.677777777777784,0)" xlink:href="#ai"/><use transform="matrix(0.031481481481481485,0,0,0.031481481481481485,38.97407407407408,0)" xlink:href="#at"/><use transform="matrix(0.031481481481481485,0,0,0.031481481481481485,44.640740740740746,0)" xlink:href="#au"/><use transform="matrix(0.031481481481481485,0,0,0.031481481481481485,50.937037037037044,0)" xlink:href="#ap"/></g><g id="g"><use transform="matrix(0.031481481481481485,0,0,0.031481481481481485,0,0)" xlink:href="#al"/><use transform="matrix(0.031481481481481485,0,0,0.031481481481481485,6.296296296296297,0)" xlink:href="#ai"/><use transform="matrix(0.031481481481481485,0,0,0.031481481481481485,12.592592592592593,0)" xlink:href="#an"/></g><path d="M197 0v-115H63V0H30v-248h33v105h134v-105h34V0h-34" id="av"/><path d="M100-194c62-1 85 37 85 99 1 63-27 99-86 99S16-35 15-95c0-66 28-99 85-99zM99-20c44 1 53-31 53-75 0-43-8-75-51-75s-53 32-53 75 10 74 51 75zM76-211c8-23 27-35 38-54h36v5l-58 49H76" id="aw"/><g id="h"><use transform="matrix(0.031481481481481485,0,0,0.031481481481481485,0,0)" xlink:href="#av"/><use transform="matrix(0.031481481481481485,0,0,0.031481481481481485,8.153703703703705,0)" xlink:href="#af"/><use transform="matrix(0.031481481481481485,0,0,0.031481481481481485,10.640740740740743,0)" xlink:href="#an"/><use transform="matrix(0.031481481481481485,0,0,0.031481481481481485,16.30740740740741,0)" xlink:href="#ao"/><use transform="matrix(0.031481481481481485,0,0,0.031481481481481485,19.45555555555556,0)" xlink:href="#aw"/><use transform="matrix(0.031481481481481485,0,0,0.031481481481481485,25.751851851851857,0)" xlink:href="#ae"/><use transform="matrix(0.031481481481481485,0,0,0.031481481481481485,29.498148148148154,0)" xlink:href="#af"/><use transform="matrix(0.031481481481481485,0,0,0.031481481481481485,31.98518518518519,0)" xlink:href="#ai"/></g><g id="i"><use transform="matrix(0.031481481481481485,0,0,0.031481481481481485,0,0)" xlink:href="#al"/><use transform="matrix(0.031481481481481485,0,0,0.031481481481481485,6.296296296296297,0)" xlink:href="#ad"/></g><path d="M232-93c-1 65-40 97-104 97C67 4 28-28 28-90v-158h33c8 89-33 224 67 224 102 0 64-133 71-224h33v155" id="ax"/><path d="M84 4C-5 8 30-112 23-190h32v120c0 31 7 50 39 49 72-2 45-101 50-169h31l1 190h-30c-1-10 1-25-2-33-11 22-28 36-60 37" id="ay"/><path d="M141-36C126-15 110 5 73 4 37 3 15-17 15-53c-1-64 63-63 125-63 3-35-9-54-41-54-24 1-41 7-42 31l-33-3c5-37 33-52 76-52 45 0 72 20 72 64v82c-1 20 7 32 28 27v20c-31 9-61-2-59-35zM48-53c0 20 12 33 32 33 41-3 63-29 60-74-43 2-92-5-92 41zm25-158c8-23 27-35 38-54h36v5l-58 49H73" id="az"/><g id="j"><use transform="matrix(0.031481481481481485,0,0,0.031481481481481485,0,0)" xlink:href="#ax"/><use transform="matrix(0.031481481481481485,0,0,0.031481481481481485,8.153703703703705,0)" xlink:href="#an"/><use transform="matrix(0.031481481481481485,0,0,0.031481481481481485,13.820370370370373,0)" xlink:href="#ay"/><use transform="matrix(0.031481481481481485,0,0,0.031481481481481485,20.11666666666667,0)" xlink:href="#az"/><use transform="matrix(0.031481481481481485,0,0,0.031481481481481485,26.41296296296297,0)" xlink:href="#ae"/><use transform="matrix(0.031481481481481485,0,0,0.031481481481481485,30.159259259259265,0)" xlink:href="#af"/><use transform="matrix(0.031481481481481485,0,0,0.031481481481481485,32.6462962962963,0)" xlink:href="#ap"/></g><path d="M205 0l-28-72H64L36 0H1l101-248h38L239 0h-34zm-38-99l-47-123c-12 45-31 82-46 123h93" id="aA"/><g id="k"><use transform="matrix(0.031481481481481485,0,0,0.031481481481481485,0,0)" xlink:href="#aA"/><use transform="matrix(0.031481481481481485,0,0,0.031481481481481485,7.555555555555556,0)" xlink:href="#al"/><use transform="matrix(0.031481481481481485,0,0,0.031481481481481485,13.851851851851853,0)" xlink:href="#af"/><use transform="matrix(0.031481481481481485,0,0,0.031481481481481485,16.33888888888889,0)" xlink:href="#ah"/><use transform="matrix(0.031481481481481485,0,0,0.031481481481481485,22.005555555555553,0)" xlink:href="#af"/><use transform="matrix(0.031481481481481485,0,0,0.031481481481481485,24.492592592592594,0)" xlink:href="#ap"/><use transform="matrix(0.031481481481481485,0,0,0.031481481481481485,30.78888888888889,0)" xlink:href="#ak"/><use transform="matrix(0.031481481481481485,0,0,0.031481481481481485,37.08518518518519,0)" xlink:href="#ai"/><use transform="matrix(0.031481481481481485,0,0,0.031481481481481485,43.38148148148149,0)" xlink:href="#ae"/></g><path d="M127-220V0H93v-220H8v-28h204v28h-85" id="aB"/><g id="l"><use transform="matrix(0.031481481481481485,0,0,0.031481481481481485,0,0)" xlink:href="#aB"/><use transform="matrix(0.031481481481481485,0,0,0.031481481481481485,5.635185185185186,0)" xlink:href="#ai"/><use transform="matrix(0.031481481481481485,0,0,0.031481481481481485,11.931481481481484,0)" xlink:href="#ae"/><use transform="matrix(0.031481481481481485,0,0,0.031481481481481485,15.67777777777778,0)" xlink:href="#ad"/><use transform="matrix(0.031481481481481485,0,0,0.031481481481481485,21.97407407407408,0)" xlink:href="#ag"/><use transform="matrix(0.031481481481481485,0,0,0.031481481481481485,25.122222222222227,0)" xlink:href="#ai"/><use transform="matrix(0.031481481481481485,0,0,0.031481481481481485,31.418518518518525,0)" xlink:href="#an"/></g><path fill="#333" d="M33 0v-248h34V0H33" id="aC"/><path fill="#333" d="M117-194c89-4 53 116 60 194h-32v-121c0-31-8-49-39-48C34-167 62-67 57 0H25l-1-190h30c1 10-1 24 2 32 11-22 29-35 61-36" id="aD"/><path fill="#333" d="M34 0v-190h32V0H34zM24-211c8-23 27-35 38-54h36v5l-58 49H24" id="aE"/><path fill="#333" d="M96-169c-40 0-48 33-48 73s9 75 48 75c24 0 41-14 43-38l32 2c-6 37-31 61-74 61-59 0-76-41-82-99-10-93 101-131 147-64 4 7 5 14 7 22l-32 3c-4-21-16-35-41-35" id="aF"/><path fill="#333" d="M24-231v-30h32v30H24zM24 0v-190h32V0H24" id="aG"/><path fill="#333" d="M100-194c62-1 85 37 85 99 1 63-27 99-86 99S16-35 15-95c0-66 28-99 85-99zM99-20c44 1 53-31 53-75 0-43-8-75-51-75s-53 32-53 75 10 74 51 75" id="aH"/><g id="m"><use transform="matrix(0.02530864197530864,0,0,0.02530864197530864,0,0)" xlink:href="#aC"/><use transform="matrix(0.02530864197530864,0,0,0.02530864197530864,2.530864197530864,0)" xlink:href="#aD"/><use transform="matrix(0.02530864197530864,0,0,0.02530864197530864,7.592592592592592,0)" xlink:href="#aE"/><use transform="matrix(0.02530864197530864,0,0,0.02530864197530864,10.123456790123456,0)" xlink:href="#aF"/><use transform="matrix(0.02530864197530864,0,0,0.02530864197530864,14.679012345679011,0)" xlink:href="#aG"/><use transform="matrix(0.02530864197530864,0,0,0.02530864197530864,16.678395061728395,0)" xlink:href="#aH"/></g><g id="n"><use transform="matrix(0.031481481481481485,0,0,0.031481481481481485,0,0)" xlink:href="#aA"/><use transform="matrix(0.031481481481481485,0,0,0.031481481481481485,7.555555555555556,0)" xlink:href="#al"/><use transform="matrix(0.031481481481481485,0,0,0.031481481481481485,13.851851851851853,0)" xlink:href="#af"/><use transform="matrix(0.031481481481481485,0,0,0.031481481481481485,16.33888888888889,0)" xlink:href="#ah"/><use transform="matrix(0.031481481481481485,0,0,0.031481481481481485,22.005555555555553,0)" xlink:href="#af"/><use transform="matrix(0.031481481481481485,0,0,0.031481481481481485,24.492592592592594,0)" xlink:href="#ap"/><use transform="matrix(0.031481481481481485,0,0,0.031481481481481485,30.78888888888889,0)" xlink:href="#ak"/><use transform="matrix(0.031481481481481485,0,0,0.031481481481481485,37.08518518518519,0)" xlink:href="#ai"/><use transform="matrix(0.031481481481481485,0,0,0.031481481481481485,43.38148148148149,0)" xlink:href="#ae"/></g><path d="M212-179c-10-28-35-45-73-45-59 0-87 40-87 99 0 60 29 101 89 101 43 0 62-24 78-52l27 14C228-24 195 4 139 4 59 4 22-46 18-125c-6-104 99-153 187-111 19 9 31 26 39 46" id="aI"/><path d="M100-194c63 0 86 42 84 106H49c0 40 14 67 53 68 26 1 43-12 49-29l28 8c-11 28-37 45-77 45C44 4 14-33 15-96c1-61 26-98 85-98zm52 81c6-60-76-77-97-28-3 7-6 17-6 28h103zm-74-98c8-23 27-35 38-54h36v5l-58 49H78" id="aJ"/><g id="o"><use transform="matrix(0.031481481481481485,0,0,0.031481481481481485,0,0)" xlink:href="#aI"/><use transform="matrix(0.031481481481481485,0,0,0.031481481481481485,8.153703703703705,0)" xlink:href="#ae"/><use transform="matrix(0.031481481481481485,0,0,0.031481481481481485,11.900000000000002,0)" xlink:href="#af"/><use transform="matrix(0.031481481481481485,0,0,0.031481481481481485,14.38703703703704,0)" xlink:href="#ao"/><use transform="matrix(0.031481481481481485,0,0,0.031481481481481485,17.53518518518519,0)" xlink:href="#aJ"/><use transform="matrix(0.031481481481481485,0,0,0.031481481481481485,23.831481481481486,0)" xlink:href="#ae"/><use transform="matrix(0.031481481481481485,0,0,0.031481481481481485,27.577777777777783,0)" xlink:href="#af"/><use transform="matrix(0.031481481481481485,0,0,0.031481481481481485,30.06481481481482,0)" xlink:href="#ap"/><use transform="matrix(0.031481481481481485,0,0,0.031481481481481485,36.361111111111114,0)" xlink:href="#an"/></g><g id="p"><use transform="matrix(0.031481481481481485,0,0,0.031481481481481485,0,0)" xlink:href="#aA"/><use transform="matrix(0.031481481481481485,0,0,0.031481481481481485,7.555555555555556,0)" xlink:href="#ah"/><use transform="matrix(0.031481481481481485,0,0,0.031481481481481485,13.222222222222223,0)" xlink:href="#ad"/><use transform="matrix(0.031481481481481485,0,0,0.031481481481481485,19.51851851851852,0)" xlink:href="#af"/><use transform="matrix(0.031481481481481485,0,0,0.031481481481481485,22.005555555555553,0)" xlink:href="#ao"/><use transform="matrix(0.031481481481481485,0,0,0.031481481481481485,25.153703703703705,0)" xlink:href="#ai"/><use transform="matrix(0.031481481481481485,0,0,0.031481481481481485,31.450000000000003,0)" xlink:href="#at"/><use transform="matrix(0.031481481481481485,0,0,0.031481481481481485,37.11666666666667,0)" xlink:href="#au"/><use transform="matrix(0.031481481481481485,0,0,0.031481481481481485,43.412962962962965,0)" xlink:href="#ap"/></g><path d="M30-248c87 1 191-15 191 75 0 78-77 80-158 76V0H30v-248zm33 125c57 0 124 11 124-50 0-59-68-47-124-48v98" id="aK"/><path d="M9 0v-24l116-142H16v-24h144v24L44-24h123V0H9" id="aL"/><g id="q"><use transform="matrix(0.031481481481481485,0,0,0.031481481481481485,0,0)" xlink:href="#aK"/><use transform="matrix(0.031481481481481485,0,0,0.031481481481481485,7.555555555555556,0)" xlink:href="#ae"/><use transform="matrix(0.031481481481481485,0,0,0.031481481481481485,11.301851851851854,0)" xlink:href="#af"/><use transform="matrix(0.031481481481481485,0,0,0.031481481481481485,13.788888888888891,0)" xlink:href="#ap"/><use transform="matrix(0.031481481481481485,0,0,0.031481481481481485,20.08518518518519,0)" xlink:href="#ae"/><use transform="matrix(0.031481481481481485,0,0,0.031481481481481485,23.831481481481486,0)" xlink:href="#af"/><use transform="matrix(0.031481481481481485,0,0,0.031481481481481485,26.318518518518523,0)" xlink:href="#aL"/><use transform="matrix(0.031481481481481485,0,0,0.031481481481481485,31.98518518518519,0)" xlink:href="#ai"/><use transform="matrix(0.031481481481481485,0,0,0.031481481481481485,38.281481481481485,0)" xlink:href="#ae"/></g><g id="r"><use transform="matrix(0.031481481481481485,0,0,0.031481481481481485,0,0)" xlink:href="#av"/><use transform="matrix(0.031481481481481485,0,0,0.031481481481481485,8.153703703703705,0)" xlink:href="#af"/><use transform="matrix(0.031481481481481485,0,0,0.031481481481481485,10.640740740740743,0)" xlink:href="#an"/><use transform="matrix(0.031481481481481485,0,0,0.031481481481481485,16.30740740740741,0)" xlink:href="#ao"/><use transform="matrix(0.031481481481481485,0,0,0.031481481481481485,19.45555555555556,0)" xlink:href="#aw"/><use transform="matrix(0.031481481481481485,0,0,0.031481481481481485,25.751851851851857,0)" xlink:href="#ae"/><use transform="matrix(0.031481481481481485,0,0,0.031481481481481485,29.498148148148154,0)" xlink:href="#af"/><use transform="matrix(0.031481481481481485,0,0,0.031481481481481485,31.98518518518519,0)" xlink:href="#ai"/><use transform="matrix(0.031481481481481485,0,0,0.031481481481481485,38.281481481481485,0)" xlink:href="#an"/></g><g id="s"><use transform="matrix(0.031481481481481485,0,0,0.031481481481481485,0,0)" xlink:href="#al"/><use transform="matrix(0.031481481481481485,0,0,0.031481481481481485,6.296296296296297,0)" xlink:href="#ad"/></g><path fill="#333" d="M63-220v92h138v28H63V0H30v-248h175v28H63" id="aM"/><path fill="#333" d="M210-169c-67 3-38 105-44 169h-31v-121c0-29-5-50-35-48C34-165 62-65 56 0H25l-1-190h30c1 10-1 24 2 32 10-44 99-50 107 0 11-21 27-35 58-36 85-2 47 119 55 194h-31v-121c0-29-5-49-35-48" id="aN"/><g id="t"><use transform="matrix(0.031481481481481485,0,0,0.031481481481481485,0,0)" xlink:href="#aM"/><use transform="matrix(0.031481481481481485,0,0,0.031481481481481485,6.894444444444446,0)" xlink:href="#aG"/><use transform="matrix(0.031481481481481485,0,0,0.031481481481481485,9.381481481481483,0)" xlink:href="#aN"/></g><path fill="#333" d="M160-131c35 5 61 23 61 61C221 17 115-2 30 0v-248c76 3 177-17 177 60 0 33-19 50-47 57zm-97-11c50-1 110 9 110-42 0-47-63-36-110-37v79zm0 115c55-2 124 14 124-45 0-56-70-42-124-44v89" id="aO"/><path fill="#333" d="M141-36C126-15 110 5 73 4 37 3 15-17 15-53c-1-64 63-63 125-63 3-35-9-54-41-54-24 1-41 7-42 31l-33-3c5-37 33-52 76-52 45 0 72 20 72 64v82c-1 20 7 32 28 27v20c-31 9-61-2-59-35zM48-53c0 20 12 33 32 33 41-3 63-29 60-74-43 2-92-5-92 41" id="aP"/><path fill="#333" d="M143 0L79-87 56-68V0H24v-261h32v163l83-92h37l-77 82L181 0h-38" id="aQ"/><path fill="#333" d="M24 0v-261h32V0H24" id="aR"/><path fill="#333" d="M177-190C167-65 218 103 67 71c-23-6-38-20-44-43l32-5c15 47 100 32 89-28v-30C133-14 115 1 83 1 29 1 15-40 15-95c0-56 16-97 71-98 29-1 48 16 59 35 1-10 0-23 2-32h30zM94-22c36 0 50-32 50-73 0-42-14-75-50-75-39 0-46 34-46 75s6 73 46 73" id="aS"/><g id="u"><use transform="matrix(0.02530864197530864,0,0,0.02530864197530864,0,0)" xlink:href="#aO"/><use transform="matrix(0.02530864197530864,0,0,0.02530864197530864,6.0740740740740735,0)" xlink:href="#aP"/><use transform="matrix(0.02530864197530864,0,0,0.02530864197530864,11.1358024691358,0)" xlink:href="#aF"/><use transform="matrix(0.02530864197530864,0,0,0.02530864197530864,15.691358024691356,0)" xlink:href="#aQ"/><use transform="matrix(0.02530864197530864,0,0,0.02530864197530864,20.24691358024691,0)" xlink:href="#aR"/><use transform="matrix(0.02530864197530864,0,0,0.02530864197530864,22.246296296296293,0)" xlink:href="#aH"/><use transform="matrix(0.02530864197530864,0,0,0.02530864197530864,27.30802469135802,0)" xlink:href="#aS"/></g><path fill="#333" d="M85-194c31 0 48 13 60 33l-1-100h32l1 261h-30c-2-10 0-23-3-31C134-8 116 4 85 4 32 4 16-35 15-94c0-66 23-100 70-100zm9 24c-40 0-46 34-46 75 0 40 6 74 45 74 42 0 51-32 51-76 0-42-9-74-50-73" id="aT"/><g id="v"><use transform="matrix(0.02530864197530864,0,0,0.02530864197530864,0,0)" xlink:href="#aT"/><use transform="matrix(0.02530864197530864,0,0,0.02530864197530864,5.061728395061728,0)" xlink:href="#aH"/></g><path fill="#333" d="M30-248c87 1 191-15 191 75 0 78-77 80-158 76V0H30v-248zm33 125c57 0 124 11 124-50 0-59-68-47-124-48v98" id="aU"/><path fill="#333" d="M114-163C36-179 61-72 57 0H25l-1-190h30c1 12-1 29 2 39 6-27 23-49 58-41v29" id="aV"/><path fill="#333" d="M84 4C-5 8 30-112 23-190h32v120c0 31 7 50 39 49 72-2 45-101 50-169h31l1 190h-30c-1-10 1-25-2-33-11 22-28 36-60 37" id="aW"/><path fill="#333" d="M59-47c-2 24 18 29 38 22v24C64 9 27 4 27-40v-127H5v-23h24l9-43h21v43h35v23H59v120" id="aX"/><g id="w"><use transform="matrix(0.02530864197530864,0,0,0.02530864197530864,0,0)" xlink:href="#aU"/><use transform="matrix(0.02530864197530864,0,0,0.02530864197530864,6.0740740740740735,0)" xlink:href="#aV"/><use transform="matrix(0.02530864197530864,0,0,0.02530864197530864,9.085802469135801,0)" xlink:href="#aH"/><use transform="matrix(0.02530864197530864,0,0,0.02530864197530864,14.14753086419753,0)" xlink:href="#aT"/><use transform="matrix(0.02530864197530864,0,0,0.02530864197530864,19.209259259259255,0)" xlink:href="#aW"/><use transform="matrix(0.02530864197530864,0,0,0.02530864197530864,24.270987654320983,0)" xlink:href="#aX"/><use transform="matrix(0.02530864197530864,0,0,0.02530864197530864,26.80185185185185,0)" xlink:href="#aH"/></g><path fill="#333" d="M30 0v-248h187v28H63v79h144v27H63v87h162V0H30" id="aY"/><path fill="#333" d="M115-194c53 0 69 39 70 98 0 66-23 100-70 100C84 3 66-7 56-30L54 0H23l1-261h32v101c10-23 28-34 59-34zm-8 174c40 0 45-34 45-75 0-40-5-75-45-74-42 0-51 32-51 76 0 43 10 73 51 73" id="aZ"/><path fill="#333" d="M96-169c-40 0-48 33-48 73s9 75 48 75c24 0 41-14 43-38l32 2c-6 37-31 61-74 61-59 0-76-41-82-99-10-93 101-131 147-64 4 7 5 14 7 22l-32 3c-4-21-16-35-41-35zm3 187c19-1 33 8 33 26 0 31-30 33-64 32V58c18 2 39 4 41-13 1-15-18-13-34-13L87 0h19" id="ba"/><path fill="#333" d="M141-36C126-15 110 5 73 4 37 3 15-17 15-53c-1-64 63-63 125-63 3-35-9-54-41-54-24 1-41 7-42 31l-33-3c5-37 33-52 76-52 45 0 72 20 72 64v82c-1 20 7 32 28 27v20c-31 9-61-2-59-35zM48-53c0 20 12 33 32 33 41-3 63-29 60-74-43 2-92-5-92 41zm117-205c-3 23-9 48-36 47-26-1-65-44-74 0H39c4-23 8-48 36-47s64 44 74 0h16" id="bb"/><g id="x"><use transform="matrix(0.05,0,0,0.05,0,0)" xlink:href="#aY"/><use transform="matrix(0.05,0,0,0.05,12,0)" xlink:href="#aR"/><use transform="matrix(0.05,0,0,0.05,15.949999999999998,0)" xlink:href="#aP"/><use transform="matrix(0.05,0,0,0.05,25.950000000000003,0)" xlink:href="#aZ"/><use transform="matrix(0.05,0,0,0.05,35.95,0)" xlink:href="#aH"/><use transform="matrix(0.05,0,0,0.05,45.95,0)" xlink:href="#aV"/><use transform="matrix(0.05,0,0,0.05,51.900000000000006,0)" xlink:href="#aP"/><use transform="matrix(0.05,0,0,0.05,61.900000000000006,0)" xlink:href="#ba"/><use transform="matrix(0.05,0,0,0.05,70.9,0)" xlink:href="#bb"/><use transform="matrix(0.05,0,0,0.05,80.9,0)" xlink:href="#aH"/></g><g id="y"><use transform="matrix(0.05,0,0,0.05,0,0)" xlink:href="#aT"/><use transform="matrix(0.05,0,0,0.05,10,0)" xlink:href="#aH"/></g><g id="z"><use transform="matrix(0.05,0,0,0.05,0,0)" xlink:href="#aO"/><use transform="matrix(0.05,0,0,0.05,12,0)" xlink:href="#aP"/><use transform="matrix(0.05,0,0,0.05,22,0)" xlink:href="#aF"/><use transform="matrix(0.05,0,0,0.05,31,0)" xlink:href="#aQ"/><use transform="matrix(0.05,0,0,0.05,40,0)" xlink:href="#aR"/><use transform="matrix(0.05,0,0,0.05,43.95,0)" xlink:href="#aH"/><use transform="matrix(0.05,0,0,0.05,53.95,0)" xlink:href="#aS"/></g><g id="A"><use transform="matrix(0.05,0,0,0.05,0,0)" xlink:href="#aT"/><use transform="matrix(0.05,0,0,0.05,10,0)" xlink:href="#aH"/></g><g id="B"><use transform="matrix(0.05,0,0,0.05,0,0)" xlink:href="#aU"/><use transform="matrix(0.05,0,0,0.05,12,0)" xlink:href="#aV"/><use transform="matrix(0.05,0,0,0.05,17.95,0)" xlink:href="#aH"/><use transform="matrix(0.05,0,0,0.05,27.950000000000003,0)" xlink:href="#aT"/><use transform="matrix(0.05,0,0,0.05,37.95,0)" xlink:href="#aW"/><use transform="matrix(0.05,0,0,0.05,47.95,0)" xlink:href="#aX"/><use transform="matrix(0.05,0,0,0.05,52.95,0)" xlink:href="#aH"/></g><path fill="#333" d="M100-194c63 0 86 42 84 106H49c0 40 14 67 53 68 26 1 43-12 49-29l28 8c-11 28-37 45-77 45C44 4 14-33 15-96c1-61 26-98 85-98zm52 81c6-60-76-77-97-28-3 7-6 17-6 28h103" id="bc"/><path fill="#333" d="M24-231v-30h32v30H24zM-9 49c24 4 33-6 33-30v-209h32V24c2 40-23 58-65 49V49" id="bd"/><g id="C"><use transform="matrix(0.05,0,0,0.05,0,0)" xlink:href="#aU"/><use transform="matrix(0.05,0,0,0.05,12,0)" xlink:href="#aR"/><use transform="matrix(0.05,0,0,0.05,15.949999999999998,0)" xlink:href="#aP"/><use transform="matrix(0.05,0,0,0.05,25.950000000000003,0)" xlink:href="#aD"/><use transform="matrix(0.05,0,0,0.05,35.95,0)" xlink:href="#bc"/><use transform="matrix(0.05,0,0,0.05,45.95,0)" xlink:href="#bd"/><use transform="matrix(0.05,0,0,0.05,49.900000000000006,0)" xlink:href="#aP"/><use transform="matrix(0.05,0,0,0.05,59.900000000000006,0)" xlink:href="#aN"/><use transform="matrix(0.05,0,0,0.05,74.85000000000001,0)" xlink:href="#bc"/><use transform="matrix(0.05,0,0,0.05,84.85000000000001,0)" xlink:href="#aD"/><use transform="matrix(0.05,0,0,0.05,94.85000000000001,0)" xlink:href="#aX"/><use transform="matrix(0.05,0,0,0.05,99.85000000000001,0)" xlink:href="#aH"/></g><g id="D"><use transform="matrix(0.05,0,0,0.05,0,0)" xlink:href="#aT"/><use transform="matrix(0.05,0,0,0.05,10,0)" xlink:href="#aP"/></g><path fill="#333" d="M185-189c-5-48-123-54-124 2 14 75 158 14 163 119 3 78-121 87-175 55-17-10-28-26-33-46l33-7c5 56 141 63 141-1 0-78-155-14-162-118-5-82 145-84 179-34 5 7 8 16 11 25" id="be"/><path fill="#333" d="M115-194c55 1 70 41 70 98S169 2 115 4C84 4 66-9 55-30l1 105H24l-1-265h31l2 30c10-21 28-34 59-34zm-8 174c40 0 45-34 45-75s-6-73-45-74c-42 0-51 32-51 76 0 43 10 73 51 73" id="bf"/><g id="E"><use transform="matrix(0.05,0,0,0.05,0,0)" xlink:href="#be"/><use transform="matrix(0.05,0,0,0.05,12,0)" xlink:href="#bf"/><use transform="matrix(0.05,0,0,0.05,22,0)" xlink:href="#aV"/><use transform="matrix(0.05,0,0,0.05,27.950000000000003,0)" xlink:href="#aG"/><use transform="matrix(0.05,0,0,0.05,31.899999999999995,0)" xlink:href="#aD"/><use transform="matrix(0.05,0,0,0.05,41.9,0)" xlink:href="#aX"/></g><g id="F"><use transform="matrix(0.02530864197530864,0,0,0.02530864197530864,0,0)" xlink:href="#aT"/><use transform="matrix(0.02530864197530864,0,0,0.02530864197530864,5.061728395061728,0)" xlink:href="#aP"/></g><g id="G"><use transform="matrix(0.02530864197530864,0,0,0.02530864197530864,0,0)" xlink:href="#be"/><use transform="matrix(0.02530864197530864,0,0,0.02530864197530864,6.0740740740740735,0)" xlink:href="#bf"/><use transform="matrix(0.02530864197530864,0,0,0.02530864197530864,11.1358024691358,0)" xlink:href="#aV"/><use transform="matrix(0.02530864197530864,0,0,0.02530864197530864,14.147530864197526,0)" xlink:href="#aG"/><use transform="matrix(0.02530864197530864,0,0,0.02530864197530864,16.14691358024691,0)" xlink:href="#aD"/><use transform="matrix(0.02530864197530864,0,0,0.02530864197530864,21.208641975308637,0)" xlink:href="#aX"/></g><g id="H"><use transform="matrix(0.02530864197530864,0,0,0.02530864197530864,0,0)" xlink:href="#aP"/><use transform="matrix(0.02530864197530864,0,0,0.02530864197530864,5.061728395061728,0)" xlink:href="#aD"/><use transform="matrix(0.02530864197530864,0,0,0.02530864197530864,10.123456790123456,0)" xlink:href="#aX"/><use transform="matrix(0.02530864197530864,0,0,0.02530864197530864,12.65432098765432,0)" xlink:href="#bc"/><use transform="matrix(0.02530864197530864,0,0,0.02530864197530864,17.716049382716047,0)" xlink:href="#aV"/><use transform="matrix(0.02530864197530864,0,0,0.02530864197530864,20.727777777777774,0)" xlink:href="#aG"/><use transform="matrix(0.02530864197530864,0,0,0.02530864197530864,22.727160493827157,0)" xlink:href="#aH"/><use transform="matrix(0.02530864197530864,0,0,0.02530864197530864,27.788888888888884,0)" xlink:href="#aV"/></g><path fill="#333" d="M135-143c-3-34-86-38-87 0 15 53 115 12 119 90S17 21 10-45l28-5c4 36 97 45 98 0-10-56-113-15-118-90-4-57 82-63 122-42 12 7 21 19 24 35" id="bg"/><g id="I"><use transform="matrix(0.02530864197530864,0,0,0.02530864197530864,0,0)" xlink:href="#aU"/><use transform="matrix(0.02530864197530864,0,0,0.02530864197530864,6.0740740740740735,0)" xlink:href="#aH"/><use transform="matrix(0.02530864197530864,0,0,0.02530864197530864,11.1358024691358,0)" xlink:href="#bg"/><use transform="matrix(0.02530864197530864,0,0,0.02530864197530864,15.691358024691356,0)" xlink:href="#bg"/><use transform="matrix(0.02530864197530864,0,0,0.02530864197530864,20.24691358024691,0)" xlink:href="#aW"/><use transform="matrix(0.02530864197530864,0,0,0.02530864197530864,25.30864197530864,0)" xlink:href="#aG"/></g><g id="J"><use transform="matrix(0.02530864197530864,0,0,0.02530864197530864,0,0)" xlink:href="#aP"/><use transform="matrix(0.02530864197530864,0,0,0.02530864197530864,5.061728395061728,0)" xlink:href="#aR"/><use transform="matrix(0.02530864197530864,0,0,0.02530864197530864,7.06111111111111,0)" xlink:href="#aS"/><use transform="matrix(0.02530864197530864,0,0,0.02530864197530864,12.122839506172838,0)" xlink:href="#aW"/><use transform="matrix(0.02530864197530864,0,0,0.02530864197530864,17.184567901234566,0)" xlink:href="#aN"/><use transform="matrix(0.02530864197530864,0,0,0.02530864197530864,24.75185185185185,0)" xlink:href="#aP"/></g><path fill="#333" d="M100-194c63 0 86 42 84 106H49c0 40 14 67 53 68 26 1 43-12 49-29l28 8c-11 28-37 45-77 45C44 4 14-33 15-96c1-61 26-98 85-98zm52 81c6-60-76-77-97-28-3 7-6 17-6 28h103zm-32-149c12 18 30 30 39 51-31 2-38-20-57-30-20 10-27 32-59 30 9-22 29-33 41-51h36" id="bh"/><path fill="#333" d="M103-251c84 0 111 97 45 133-19 10-37 24-39 52H78c0-63 77-55 77-114 0-30-21-42-52-43-32 0-53 17-56 46l-32-2c7-45 34-72 88-72zM77 0v-35h34V0H77" id="bi"/><g id="K"><use transform="matrix(0.02530864197530864,0,0,0.02530864197530864,0,0)" xlink:href="#bf"/><use transform="matrix(0.02530864197530864,0,0,0.02530864197530864,5.061728395061728,0)" xlink:href="#bc"/><use transform="matrix(0.02530864197530864,0,0,0.02530864197530864,10.123456790123456,0)" xlink:href="#aD"/><use transform="matrix(0.02530864197530864,0,0,0.02530864197530864,15.185185185185183,0)" xlink:href="#aT"/><use transform="matrix(0.02530864197530864,0,0,0.02530864197530864,20.24691358024691,0)" xlink:href="#bh"/><use transform="matrix(0.02530864197530864,0,0,0.02530864197530864,25.30864197530864,0)" xlink:href="#aD"/><use transform="matrix(0.02530864197530864,0,0,0.02530864197530864,30.370370370370367,0)" xlink:href="#aF"/><use transform="matrix(0.02530864197530864,0,0,0.02530864197530864,34.925925925925924,0)" xlink:href="#aG"/><use transform="matrix(0.02530864197530864,0,0,0.02530864197530864,36.925308641975306,0)" xlink:href="#aP"/><use transform="matrix(0.02530864197530864,0,0,0.02530864197530864,41.987037037037034,0)" xlink:href="#bi"/></g><path d="M24-231v-30h32v30H24zM-9 49c24 4 33-6 33-30v-209h32V24c2 40-23 58-65 49V49" id="bj"/><g id="L"><use transform="matrix(0.031481481481481485,0,0,0.031481481481481485,0,0)" xlink:href="#aK"/><use transform="matrix(0.031481481481481485,0,0,0.031481481481481485,7.555555555555556,0)" xlink:href="#ar"/><use transform="matrix(0.031481481481481485,0,0,0.031481481481481485,10.042592592592595,0)" xlink:href="#ai"/><use transform="matrix(0.031481481481481485,0,0,0.031481481481481485,16.338888888888892,0)" xlink:href="#ak"/><use transform="matrix(0.031481481481481485,0,0,0.031481481481481485,22.63518518518519,0)" xlink:href="#ad"/><use transform="matrix(0.031481481481481485,0,0,0.031481481481481485,28.931481481481487,0)" xlink:href="#bj"/><use transform="matrix(0.031481481481481485,0,0,0.031481481481481485,31.418518518518525,0)" xlink:href="#ai"/><use transform="matrix(0.031481481481481485,0,0,0.031481481481481485,37.71481481481482,0)" xlink:href="#ae"/></g><path d="M185-189c-5-48-123-54-124 2 14 75 158 14 163 119 3 78-121 87-175 55-17-10-28-26-33-46l33-7c5 56 141 63 141-1 0-78-155-14-162-118-5-82 145-84 179-34 5 7 8 16 11 25" id="bk"/><g id="M"><use transform="matrix(0.031481481481481485,0,0,0.031481481481481485,0,0)" xlink:href="#bk"/><use transform="matrix(0.031481481481481485,0,0,0.031481481481481485,7.555555555555556,0)" xlink:href="#aj"/><use transform="matrix(0.031481481481481485,0,0,0.031481481481481485,13.851851851851853,0)" xlink:href="#ae"/><use transform="matrix(0.031481481481481485,0,0,0.031481481481481485,17.598148148148148,0)" xlink:href="#af"/><use transform="matrix(0.031481481481481485,0,0,0.031481481481481485,20.085185185185185,0)" xlink:href="#ak"/><use transform="matrix(0.031481481481481485,0,0,0.031481481481481485,26.381481481481483,0)" xlink:href="#ao"/></g><g id="N"><use transform="matrix(0.031481481481481485,0,0,0.031481481481481485,0,0)" xlink:href="#aA"/><use transform="matrix(0.031481481481481485,0,0,0.031481481481481485,7.555555555555556,0)" xlink:href="#ao"/><use transform="matrix(0.031481481481481485,0,0,0.031481481481481485,10.703703703703704,0)" xlink:href="#ae"/><use transform="matrix(0.031481481481481485,0,0,0.031481481481481485,14.450000000000001,0)" xlink:href="#af"/><use transform="matrix(0.031481481481481485,0,0,0.031481481481481485,16.937037037037037,0)" xlink:href="#as"/><use transform="matrix(0.031481481481481485,0,0,0.031481481481481485,23.233333333333334,0)" xlink:href="#ay"/><use transform="matrix(0.031481481481481485,0,0,0.031481481481481485,29.529629629629632,0)" xlink:href="#af"/><use transform="matrix(0.031481481481481485,0,0,0.031481481481481485,32.016666666666666,0)" xlink:href="#ae"/></g><path d="M108 0H70L1-190h34L89-25l56-165h34" id="bl"/><g id="O"><use transform="matrix(0.031481481481481485,0,0,0.031481481481481485,0,0)" xlink:href="#ai"/><use transform="matrix(0.031481481481481485,0,0,0.031481481481481485,6.296296296296297,0)" xlink:href="#ao"/><use transform="matrix(0.031481481481481485,0,0,0.031481481481481485,9.444444444444445,0)" xlink:href="#af"/><use transform="matrix(0.031481481481481485,0,0,0.031481481481481485,11.931481481481482,0)" xlink:href="#bl"/><use transform="matrix(0.031481481481481485,0,0,0.031481481481481485,17.598148148148148,0)" xlink:href="#af"/><use transform="matrix(0.031481481481481485,0,0,0.031481481481481485,20.085185185185185,0)" xlink:href="#al"/><use transform="matrix(0.031481481481481485,0,0,0.031481481481481485,26.381481481481483,0)" xlink:href="#ai"/><use transform="matrix(0.031481481481481485,0,0,0.031481481481481485,32.67777777777778,0)" xlink:href="#al"/><use transform="matrix(0.031481481481481485,0,0,0.031481481481481485,38.974074074074075,0)" xlink:href="#ad"/><use transform="matrix(0.031481481481481485,0,0,0.031481481481481485,45.27037037037037,0)" xlink:href="#an"/></g><path d="M140-251c81 0 123 46 123 126C263-46 219 4 140 4 59 4 17-45 17-125s42-126 123-126zm0 227c63 0 89-41 89-101s-29-99-89-99c-61 0-89 39-89 99S79-25 140-24" id="bm"/><path d="M177-190C167-65 218 103 67 71c-23-6-38-20-44-43l32-5c15 47 100 32 89-28v-30C133-14 115 1 83 1 29 1 15-40 15-95c0-56 16-97 71-98 29-1 48 16 59 35 1-10 0-23 2-32h30zM94-22c36 0 50-32 50-73 0-42-14-75-50-75-39 0-46 34-46 75s6 73 46 73" id="bn"/><g id="P"><use transform="matrix(0.031481481481481485,0,0,0.031481481481481485,0,0)" xlink:href="#bm"/><use transform="matrix(0.031481481481481485,0,0,0.031481481481481485,8.814814814814817,0)" xlink:href="#ae"/><use transform="matrix(0.031481481481481485,0,0,0.031481481481481485,12.561111111111114,0)" xlink:href="#bn"/><use transform="matrix(0.031481481481481485,0,0,0.031481481481481485,18.85740740740741,0)" xlink:href="#ai"/><use transform="matrix(0.031481481481481485,0,0,0.031481481481481485,25.15370370370371,0)" xlink:href="#ak"/><use transform="matrix(0.031481481481481485,0,0,0.031481481481481485,31.450000000000006,0)" xlink:href="#af"/><use transform="matrix(0.031481481481481485,0,0,0.031481481481481485,33.937037037037044,0)" xlink:href="#aL"/><use transform="matrix(0.031481481481481485,0,0,0.031481481481481485,39.60370370370371,0)" xlink:href="#ai"/><use transform="matrix(0.031481481481481485,0,0,0.031481481481481485,45.900000000000006,0)" xlink:href="#ae"/></g><g id="Q"><use transform="matrix(0.031481481481481485,0,0,0.031481481481481485,0,0)" xlink:href="#ai"/><use transform="matrix(0.031481481481481485,0,0,0.031481481481481485,6.296296296296297,0)" xlink:href="#an"/></g><g id="R"><use transform="matrix(0.031481481481481485,0,0,0.031481481481481485,0,0)" xlink:href="#al"/><use transform="matrix(0.031481481481481485,0,0,0.031481481481481485,6.296296296296297,0)" xlink:href="#ay"/><use transform="matrix(0.031481481481481485,0,0,0.031481481481481485,12.592592592592593,0)" xlink:href="#aj"/><use transform="matrix(0.031481481481481485,0,0,0.031481481481481485,18.88888888888889,0)" xlink:href="#ar"/><use transform="matrix(0.031481481481481485,0,0,0.031481481481481485,21.375925925925927,0)" xlink:href="#ai"/><use transform="matrix(0.031481481481481485,0,0,0.031481481481481485,27.672222222222224,0)" xlink:href="#an"/></g><g id="S"><use transform="matrix(0.031481481481481485,0,0,0.031481481481481485,0,0)" xlink:href="#ai"/><use transform="matrix(0.031481481481481485,0,0,0.031481481481481485,6.296296296296297,0)" xlink:href="#ap"/></g><path d="M143 0L79-87 56-68V0H24v-261h32v163l83-92h37l-77 82L181 0h-38" id="bo"/><g id="T"><use transform="matrix(0.031481481481481485,0,0,0.031481481481481485,0,0)" xlink:href="#as"/><use transform="matrix(0.031481481481481485,0,0,0.031481481481481485,6.296296296296297,0)" xlink:href="#ai"/><use transform="matrix(0.031481481481481485,0,0,0.031481481481481485,12.592592592592593,0)" xlink:href="#ah"/><use transform="matrix(0.031481481481481485,0,0,0.031481481481481485,18.25925925925926,0)" xlink:href="#bo"/><use transform="matrix(0.031481481481481485,0,0,0.031481481481481485,23.925925925925927,0)" xlink:href="#ar"/><use transform="matrix(0.031481481481481485,0,0,0.031481481481481485,26.412962962962965,0)" xlink:href="#ap"/><use transform="matrix(0.031481481481481485,0,0,0.031481481481481485,32.70925925925926,0)" xlink:href="#bn"/></g><g id="U"><use transform="matrix(0.031481481481481485,0,0,0.031481481481481485,0,0)" xlink:href="#al"/><use transform="matrix(0.031481481481481485,0,0,0.031481481481481485,6.296296296296297,0)" xlink:href="#ap"/></g><g id="V"><use transform="matrix(0.031481481481481485,0,0,0.031481481481481485,0,0)" xlink:href="#aj"/><use transform="matrix(0.031481481481481485,0,0,0.031481481481481485,6.296296296296297,0)" xlink:href="#ae"/><use transform="matrix(0.031481481481481485,0,0,0.031481481481481485,10.042592592592595,0)" xlink:href="#ap"/><use transform="matrix(0.031481481481481485,0,0,0.031481481481481485,16.338888888888892,0)" xlink:href="#al"/><use transform="matrix(0.031481481481481485,0,0,0.031481481481481485,22.63518518518519,0)" xlink:href="#ay"/><use transform="matrix(0.031481481481481485,0,0,0.031481481481481485,28.931481481481487,0)" xlink:href="#ao"/><use transform="matrix(0.031481481481481485,0,0,0.031481481481481485,32.079629629629636,0)" xlink:href="#ap"/></g><path fill="#333" d="M169-182c-1-43-94-46-97-3 18 66 151 10 154 114 3 95-165 93-204 36-6-8-10-19-12-30l50-8c3 46 112 56 116 5-17-69-150-10-154-114-4-87 153-88 188-35 5 8 8 18 10 28" id="bp"/><path fill="#333" d="M24 0v-248h52V0H24" id="bq"/><path fill="#333" d="M230 0l2-204L168 0h-37L68-204 70 0H24v-248h70l56 185 57-185h69V0h-46" id="br"/><g id="W"><use transform="matrix(0.02530864197530864,0,0,0.02530864197530864,0,0)" xlink:href="#bp"/><use transform="matrix(0.02530864197530864,0,0,0.02530864197530864,6.0740740740740735,0)" xlink:href="#bq"/><use transform="matrix(0.02530864197530864,0,0,0.02530864197530864,8.604938271604937,0)" xlink:href="#br"/></g><path fill="#333" d="M175 0L67-191c6 58 2 128 3 191H24v-248h59L193-55c-6-58-2-129-3-193h46V0h-61" id="bs"/><path fill="#333" d="M101-320c28 0 65 44 74 0h23c0 29-10 51-39 51-28-1-66-45-74 0H61c2-28 9-52 40-51zM199 0l-22-63H83L61 0H9l90-248h61L250 0h-51zm-33-102l-36-108c-10 38-24 72-36 108h72" id="bt"/><path fill="#333" d="M140-251c80 0 125 45 125 126S219 4 139 4C58 4 15-44 15-125s44-126 125-126zm-1 214c52 0 73-35 73-88 0-50-21-86-72-86-52 0-73 35-73 86s22 88 72 88" id="bu"/><g id="X"><use transform="matrix(0.02530864197530864,0,0,0.02530864197530864,0,0)" xlink:href="#bs"/><use transform="matrix(0.02530864197530864,0,0,0.02530864197530864,6.554938271604938,0)" xlink:href="#bt"/><use transform="matrix(0.02530864197530864,0,0,0.02530864197530864,13.109876543209875,0)" xlink:href="#bu"/></g><g id="Y"><use transform="matrix(0.01296296296296296,0,0,0.01296296296296296,0,0)" xlink:href="#aO"/><use transform="matrix(0.01296296296296296,0,0,0.01296296296296296,3.1111111111111107,0)" xlink:href="#aP"/><use transform="matrix(0.01296296296296296,0,0,0.01296296296296296,5.703703703703702,0)" xlink:href="#aF"/><use transform="matrix(0.01296296296296296,0,0,0.01296296296296296,8.037037037037035,0)" xlink:href="#aQ"/><use transform="matrix(0.01296296296296296,0,0,0.01296296296296296,10.370370370370367,0)" xlink:href="#aR"/><use transform="matrix(0.01296296296296296,0,0,0.01296296296296296,11.39444444444444,0)" xlink:href="#aH"/><use transform="matrix(0.01296296296296296,0,0,0.01296296296296296,13.987037037037032,0)" xlink:href="#aS"/></g><g id="Z"><use transform="matrix(0.01296296296296296,0,0,0.01296296296296296,0,0)" xlink:href="#aT"/><use transform="matrix(0.01296296296296296,0,0,0.01296296296296296,2.592592592592592,0)" xlink:href="#aH"/></g><g id="aa"><use transform="matrix(0.01296296296296296,0,0,0.01296296296296296,0,0)" xlink:href="#aU"/><use transform="matrix(0.01296296296296296,0,0,0.01296296296296296,3.1111111111111107,0)" xlink:href="#aV"/><use transform="matrix(0.01296296296296296,0,0,0.01296296296296296,4.6537037037037035,0)" xlink:href="#aH"/><use transform="matrix(0.01296296296296296,0,0,0.01296296296296296,7.246296296296295,0)" xlink:href="#aT"/><use transform="matrix(0.01296296296296296,0,0,0.01296296296296296,9.838888888888887,0)" xlink:href="#aW"/><use transform="matrix(0.01296296296296296,0,0,0.01296296296296296,12.431481481481478,0)" xlink:href="#aX"/><use transform="matrix(0.01296296296296296,0,0,0.01296296296296296,13.727777777777776,0)" xlink:href="#aH"/></g><path fill="#333" d="M205 0l-28-72H64L36 0H1l101-248h38L239 0h-34zm-38-99l-47-123c-12 45-31 82-46 123h93" id="bv"/><path fill="#333" d="M9 0v-24l116-142H16v-24h144v24L44-24h123V0H9" id="bw"/><g id="ab"><use transform="matrix(0.01296296296296296,0,0,0.01296296296296296,0,0)" xlink:href="#bv"/><use transform="matrix(0.01296296296296296,0,0,0.01296296296296296,3.1111111111111107,0)" xlink:href="#aX"/><use transform="matrix(0.01296296296296296,0,0,0.01296296296296296,4.4074074074074066,0)" xlink:href="#aW"/><use transform="matrix(0.01296296296296296,0,0,0.01296296296296296,6.999999999999999,0)" xlink:href="#aP"/><use transform="matrix(0.01296296296296296,0,0,0.01296296296296296,9.59259259259259,0)" xlink:href="#aR"/><use transform="matrix(0.01296296296296296,0,0,0.01296296296296296,10.616666666666664,0)" xlink:href="#aG"/><use transform="matrix(0.01296296296296296,0,0,0.01296296296296296,11.640740740740737,0)" xlink:href="#bw"/><use transform="matrix(0.01296296296296296,0,0,0.01296296296296296,13.974074074074071,0)" xlink:href="#aP"/><use transform="matrix(0.01296296296296296,0,0,0.01296296296296296,16.566666666666663,0)" xlink:href="#aT"/><use transform="matrix(0.01296296296296296,0,0,0.01296296296296296,19.159259259259255,0)" xlink:href="#aH"/></g></defs></g></svg>