<svg xmlns="http://www.w3.org/2000/svg" xmlns:xlink="http://www.w3.org/1999/xlink" xmlns:lucid="lucid" width="752.34" height="298.21"><g transform="translate(0 0)" lucid:page-tab-id="VjMd39PQffTe"><path d="M0 0h752.34v298.2H0z" fill="#fff"/><path d="M147.8 153.43h20.9" stroke="#333" fill="none"/><path d="M147.82 153.93h-.58l.07-.5-.06-.5h.58z" fill="#333"/><path d="M183.46 153.43l-14.27 4.64v-9.28z" stroke="#333" fill="#333"/><path d="M185.58 128.3c0-4.43 3.58-8 8-8h84.5c4.4 0 8 3.57 8 8v50.27c0 4.42-3.6 8-8 8h-84.5c-4.42 0-8-3.58-8-8z" stroke="#333" fill="#fff"/><use xlink:href="#a" transform="matrix(1,0,0,1,185.57558244084782,120.29073298138282) translate(10.68462962962962 21.62916666666667)"/><use xlink:href="#b" transform="matrix(1,0,0,1,185.57558244084782,120.29073298138282) translate(71.06611111111111 21.62916666666667)"/><use xlink:href="#c" transform="matrix(1,0,0,1,185.57558244084782,120.29073298138282) translate(22.99388888888889 35.22916666666667)"/><use xlink:href="#d" transform="matrix(1,0,0,1,185.57558244084782,120.29073298138282) translate(64.42351851851852 35.22916666666667)"/><use xlink:href="#e" transform="matrix(1,0,0,1,185.57558244084782,120.29073298138282) translate(30.5337037037037 48.82916666666667)"/><path d="M286.82 154.32c0 .14-.1.25-.25.25-.14 0-.25-.1-.25-.25 0-.13.1-.25.25-.25.14 0 .25.12.25.25z" fill="#333"/><path fill="#333"/><path fill="#333"/><path d="M366.07 75.15c0-4.42 3.58-8 8-8h84.5c4.4 0 8 3.58 8 8v45.15c0 4.42-3.6 8-8 8h-84.5c-4.42 0-8-3.58-8-8z" stroke="#333" fill="#fff"/><use xlink:href="#f" transform="matrix(1,0,0,1,366.06581758136855,67.15122178823418) translate(6.324444444444447 32.31666666666667)"/><use xlink:href="#g" transform="matrix(1,0,0,1,366.06581758136855,67.15122178823418) translate(56.60037037037037 32.31666666666667)"/><path d="M146.8 153.43c0 5.63-4.36 10.2-9.75 10.2-5.4 0-9.75-4.57-9.75-10.2 0-5.63 4.36-10.2 9.75-10.2 5.4 0 9.75 4.57 9.75 10.2z" stroke="#333" fill="#fff"/><use xlink:href="#h" transform="matrix(1,0,0,1,127.29601841809499,165.61665182002767) translate(-0.8700617283950614 11.822222222222223)"/><path d="M366.07 194.57c0-4.42 3.58-8 8-8h84.5c4.4 0 8 3.58 8 8v50.28c0 4.42-3.6 8-8 8h-84.5c-4.42 0-8-3.58-8-8z" stroke="#333" fill="#fff"/><use xlink:href="#i" transform="matrix(1,0,0,1,366.06581758136855,186.56975559657428) translate(26.441111111111113 21.62916666666667)"/><use xlink:href="#j" transform="matrix(1,0,0,1,366.06581758136855,186.56975559657428) translate(21.120740740740743 35.22916666666667)"/><use xlink:href="#d" transform="matrix(1,0,0,1,366.06581758136855,186.56975559657428) translate(66.29666666666667 35.22916666666667)"/><use xlink:href="#k" transform="matrix(1,0,0,1,366.06581758136855,186.56975559657428) translate(25.150370370370368 48.82916666666667)"/><path d="M507.3 128.3c0-4.43 3.58-8 8-8h84.5c4.4 0 8 3.57 8 8v50.27c0 4.42-3.6 8-8 8h-84.5c-4.42 0-8-3.58-8-8z" stroke="#333" fill="#fff"/><use xlink:href="#l" transform="matrix(1,0,0,1,507.296018418095,120.29073309582994) translate(5.442962962962961 30.00416666666667)"/><use xlink:href="#m" transform="matrix(1,0,0,1,507.296018418095,120.29073309582994) translate(50.61888888888889 30.00416666666667)"/><use xlink:href="#n" transform="matrix(1,0,0,1,507.296018418095,120.29073309582994) translate(22.663333333333327 43.60416666666667)"/><use xlink:href="#e" transform="matrix(1,0,0,1,507.296018418095,120.29073309582994) translate(38.404074074074074 43.60416666666667)"/><path d="M315.33 153.43l20-20 20 20-20 20z" stroke="#333" fill="#fff"/><path d="M343.33 153.43c0 4.42-3.58 8-8 8s-8-3.58-8-8 3.58-8 8-8 8 3.58 8 8zM287.07 153.43h11.17" stroke="#333" fill="none"/><path d="M287.08 153.93h-.5v-1h.5z" fill="#333"/><path d="M313 153.43l-14.26 4.64v-9.28z" stroke="#333" fill="#333"/><path d="M335.33 132.22v-22.5c0-6.62 5.37-12 12-12h1.85" stroke="#333" fill="none"/><path d="M335.83 133.22l-.5-.5-.5.5v-1h1z" fill="#333"/><path d="M363.95 97.73l-14.27 4.63V93.1z" stroke="#333" fill="#333"/><path d="M335.33 174.64v33.07c0 6.64 5.37 12 12 12h1.85" stroke="#333" fill="none"/><path d="M335.83 174.65h-1v-1l.5.5.5-.5z" fill="#333"/><path d="M363.95 219.7l-14.27 4.64v-9.27z" stroke="#333" fill="#333"/><path d="M467.56 97.73h7.37c6.62 0 12 5.37 12 12v40.22c0 1.92 1.56 3.48 3.48 3.48" stroke="#333" fill="none"/><path d="M467.57 98.23h-.5v-1h.5z" fill="#333"/><path d="M505.18 153.43l-14.27 4.64v-9.28z" stroke="#333" fill="#333"/><path d="M467.56 219.7h7.37c6.62 0 12-5.36 12-12v-50.8c0-1.9 1.56-3.47 3.48-3.47" stroke="#333" fill="none"/><path d="M467.57 220.2h-.5v-1h.5z" fill="#333"/><path d="M505.18 153.43l-14.27 4.64v-9.28z" stroke="#333" fill="#333"/><path d="M608.8 153.43h62.1" stroke="#333" fill="none"/><path d="M608.8 153.93h-.5v-1h.5z" fill="#333"/><path d="M685.68 153.43l-14.27 4.64v-9.28z" stroke="#333" fill="#333"/><path d="M707.3 153.43c0 5.33-4.48 9.65-10 9.65-5.53 0-10-4.32-10-9.65s4.47-9.65 10-9.65c5.52 0 10 4.32 10 9.65z" stroke="#333" stroke-width="5" fill="#fff"/><use xlink:href="#o" transform="matrix(1,0,0,1,687.296018418095,165.08134000378348) translate(0.6027777777777761 12.266666666666667)"/><path d="M528.77 238.13c0-4.42 3.6-8 8-8h41.54c4.43 0 8 3.58 8 8V254c0 4.42-3.57 8-8 8h-41.53c-4.4 0-8-3.58-8-8z" stroke="#000" stroke-opacity="0" fill="#fff" fill-opacity="0"/><g><use xlink:href="#p" transform="matrix(1,0,0,1,533.7739397692781,235.13218587230273) translate(1.4879629629629676 7.288888888888889)"/><use xlink:href="#q" transform="matrix(1,0,0,1,533.7739397692781,235.13218587230273) translate(36.38858024691358 7.288888888888889)"/><use xlink:href="#r" transform="matrix(1,0,0,1,533.7739397692781,235.13218587230273) translate(8.068209876543213 18.22222222222222)"/></g><path d="M558.95 209.3l5.6 6.24v14.6h-14.02v-20.85z" stroke="#333" fill="#fff"/><path d="M558.95 209.3v6.24h5.6" stroke="#333" fill="none"/><path d="M558.54 188.07c0 .55-.45 1-1 1s-1-.45-1-1 .45-1 1-1 1 .45 1 1zm0 3.94c0 .57-.45 1-1 1s-1-.43-1-1c0-.54.45-1 1-1s1 .46 1 1zm0 3.96c0 .55-.45 1-1 1s-1-.45-1-1c0-.56.45-1 1-1s1 .44 1 1zm0 3.94c0 .55-.45 1-1 1s-1-.45-1-1 .45-1 1-1 1 .45 1 1zm0 3.94c0 .56-.45 1-1 1s-1-.44-1-1c0-.55.45-1 1-1s1 .45 1 1z" fill="#333"/><path d="M558.54 188.1h-2v-1.03h2zM558.54 208.8h-2v-1.04h2z" fill="#333"/><path d="M98.2 280H48c-4.42 0-8-3.58-8-8V48c0-4.42 3.58-8 8-8h50.2z" stroke="#333" fill="#fff"/><path d="M98.2 40H732c4.42 0 8 3.58 8 8v224c0 4.42-3.58 8-8 8H98.2z" stroke="#333" fill="none"/><g><use xlink:href="#s" transform="matrix(-1.8369701987210297e-16,-1,1,-1.8369701987210297e-16,39.999999999999986,280) translate(15.074999999999989 22.299999999999997)"/><use xlink:href="#t" transform="matrix(-1.8369701987210297e-16,-1,1,-1.8369701987210297e-16,39.999999999999986,280) translate(110.975 22.299999999999997)"/><use xlink:href="#u" transform="matrix(-1.8369701987210297e-16,-1,1,-1.8369701987210297e-16,39.999999999999986,280) translate(135.975 22.299999999999997)"/><use xlink:href="#v" transform="matrix(-1.8369701987210297e-16,-1,1,-1.8369701987210297e-16,39.999999999999986,280) translate(204.925 22.299999999999997)"/><use xlink:href="#w" transform="matrix(-1.8369701987210297e-16,-1,1,-1.8369701987210297e-16,39.999999999999986,280) translate(88.525 43.9)"/></g><defs><path d="M30 0v-248h187v28H63v79h144v27H63v87h162V0H30" id="x"/><path d="M24 0v-261h32V0H24" id="y"/><path d="M141-36C126-15 110 5 73 4 37 3 15-17 15-53c-1-64 63-63 125-63 3-35-9-54-41-54-24 1-41 7-42 31l-33-3c5-37 33-52 76-52 45 0 72 20 72 64v82c-1 20 7 32 28 27v20c-31 9-61-2-59-35zM48-53c0 20 12 33 32 33 41-3 63-29 60-74-43 2-92-5-92 41" id="z"/><path d="M115-194c53 0 69 39 70 98 0 66-23 100-70 100C84 3 66-7 56-30L54 0H23l1-261h32v101c10-23 28-34 59-34zm-8 174c40 0 45-34 45-75 0-40-5-75-45-74-42 0-51 32-51 76 0 43 10 73 51 73" id="A"/><path d="M100-194c62-1 85 37 85 99 1 63-27 99-86 99S16-35 15-95c0-66 28-99 85-99zM99-20c44 1 53-31 53-75 0-43-8-75-51-75s-53 32-53 75 10 74 51 75" id="B"/><path d="M114-163C36-179 61-72 57 0H25l-1-190h30c1 12-1 29 2 39 6-27 23-49 58-41v29" id="C"/><path d="M96-169c-40 0-48 33-48 73s9 75 48 75c24 0 41-14 43-38l32 2c-6 37-31 61-74 61-59 0-76-41-82-99-10-93 101-131 147-64 4 7 5 14 7 22l-32 3c-4-21-16-35-41-35zm3 187c19-1 33 8 33 26 0 31-30 33-64 32V58c18 2 39 4 41-13 1-15-18-13-34-13L87 0h19" id="D"/><path d="M141-36C126-15 110 5 73 4 37 3 15-17 15-53c-1-64 63-63 125-63 3-35-9-54-41-54-24 1-41 7-42 31l-33-3c5-37 33-52 76-52 45 0 72 20 72 64v82c-1 20 7 32 28 27v20c-31 9-61-2-59-35zM48-53c0 20 12 33 32 33 41-3 63-29 60-74-43 2-92-5-92 41zm117-205c-3 23-9 48-36 47-26-1-65-44-74 0H39c4-23 8-48 36-47s64 44 74 0h16" id="E"/><g id="a"><use transform="matrix(0.031481481481481485,0,0,0.031481481481481485,0,0)" xlink:href="#x"/><use transform="matrix(0.031481481481481485,0,0,0.031481481481481485,7.555555555555556,0)" xlink:href="#y"/><use transform="matrix(0.031481481481481485,0,0,0.031481481481481485,10.042592592592595,0)" xlink:href="#z"/><use transform="matrix(0.031481481481481485,0,0,0.031481481481481485,16.338888888888892,0)" xlink:href="#A"/><use transform="matrix(0.031481481481481485,0,0,0.031481481481481485,22.63518518518519,0)" xlink:href="#B"/><use transform="matrix(0.031481481481481485,0,0,0.031481481481481485,28.931481481481487,0)" xlink:href="#C"/><use transform="matrix(0.031481481481481485,0,0,0.031481481481481485,32.677777777777784,0)" xlink:href="#z"/><use transform="matrix(0.031481481481481485,0,0,0.031481481481481485,38.97407407407408,0)" xlink:href="#D"/><use transform="matrix(0.031481481481481485,0,0,0.031481481481481485,44.640740740740746,0)" xlink:href="#E"/><use transform="matrix(0.031481481481481485,0,0,0.031481481481481485,50.937037037037044,0)" xlink:href="#B"/></g><path d="M85-194c31 0 48 13 60 33l-1-100h32l1 261h-30c-2-10 0-23-3-31C134-8 116 4 85 4 32 4 16-35 15-94c0-66 23-100 70-100zm9 24c-40 0-46 34-46 75 0 40 6 74 45 74 42 0 51-32 51-76 0-42-9-74-50-73" id="F"/><path d="M135-143c-3-34-86-38-87 0 15 53 115 12 119 90S17 21 10-45l28-5c4 36 97 45 98 0-10-56-113-15-118-90-4-57 82-63 122-42 12 7 21 19 24 35" id="G"/><g id="b"><use transform="matrix(0.031481481481481485,0,0,0.031481481481481485,0,0)" xlink:href="#F"/><use transform="matrix(0.031481481481481485,0,0,0.031481481481481485,6.296296296296297,0)" xlink:href="#z"/><use transform="matrix(0.031481481481481485,0,0,0.031481481481481485,12.592592592592593,0)" xlink:href="#G"/></g><path d="M197 0v-115H63V0H30v-248h33v105h134v-105h34V0h-34" id="H"/><path d="M24-231v-30h32v30H24zM24 0v-190h32V0H24" id="I"/><path d="M59-47c-2 24 18 29 38 22v24C64 9 27 4 27-40v-127H5v-23h24l9-43h21v43h35v23H59v120" id="J"/><path d="M100-194c62-1 85 37 85 99 1 63-27 99-86 99S16-35 15-95c0-66 28-99 85-99zM99-20c44 1 53-31 53-75 0-43-8-75-51-75s-53 32-53 75 10 74 51 75zM76-211c8-23 27-35 38-54h36v5l-58 49H76" id="K"/><g id="c"><use transform="matrix(0.031481481481481485,0,0,0.031481481481481485,0,0)" xlink:href="#H"/><use transform="matrix(0.031481481481481485,0,0,0.031481481481481485,8.153703703703705,0)" xlink:href="#I"/><use transform="matrix(0.031481481481481485,0,0,0.031481481481481485,10.640740740740743,0)" xlink:href="#G"/><use transform="matrix(0.031481481481481485,0,0,0.031481481481481485,16.30740740740741,0)" xlink:href="#J"/><use transform="matrix(0.031481481481481485,0,0,0.031481481481481485,19.45555555555556,0)" xlink:href="#K"/><use transform="matrix(0.031481481481481485,0,0,0.031481481481481485,25.751851851851857,0)" xlink:href="#C"/><use transform="matrix(0.031481481481481485,0,0,0.031481481481481485,29.498148148148154,0)" xlink:href="#I"/><use transform="matrix(0.031481481481481485,0,0,0.031481481481481485,31.98518518518519,0)" xlink:href="#z"/></g><path d="M100-194c63 0 86 42 84 106H49c0 40 14 67 53 68 26 1 43-12 49-29l28 8c-11 28-37 45-77 45C44 4 14-33 15-96c1-61 26-98 85-98zm52 81c6-60-76-77-97-28-3 7-6 17-6 28h103" id="L"/><g id="d"><use transform="matrix(0.031481481481481485,0,0,0.031481481481481485,0,0)" xlink:href="#F"/><use transform="matrix(0.031481481481481485,0,0,0.031481481481481485,6.296296296296297,0)" xlink:href="#L"/></g><path d="M232-93c-1 65-40 97-104 97C67 4 28-28 28-90v-158h33c8 89-33 224 67 224 102 0 64-133 71-224h33v155" id="M"/><path d="M84 4C-5 8 30-112 23-190h32v120c0 31 7 50 39 49 72-2 45-101 50-169h31l1 190h-30c-1-10 1-25-2-33-11 22-28 36-60 37" id="N"/><path d="M141-36C126-15 110 5 73 4 37 3 15-17 15-53c-1-64 63-63 125-63 3-35-9-54-41-54-24 1-41 7-42 31l-33-3c5-37 33-52 76-52 45 0 72 20 72 64v82c-1 20 7 32 28 27v20c-31 9-61-2-59-35zM48-53c0 20 12 33 32 33 41-3 63-29 60-74-43 2-92-5-92 41zm25-158c8-23 27-35 38-54h36v5l-58 49H73" id="O"/><g id="e"><use transform="matrix(0.031481481481481485,0,0,0.031481481481481485,0,0)" xlink:href="#M"/><use transform="matrix(0.031481481481481485,0,0,0.031481481481481485,8.153703703703705,0)" xlink:href="#G"/><use transform="matrix(0.031481481481481485,0,0,0.031481481481481485,13.820370370370373,0)" xlink:href="#N"/><use transform="matrix(0.031481481481481485,0,0,0.031481481481481485,20.11666666666667,0)" xlink:href="#O"/><use transform="matrix(0.031481481481481485,0,0,0.031481481481481485,26.41296296296297,0)" xlink:href="#C"/><use transform="matrix(0.031481481481481485,0,0,0.031481481481481485,30.159259259259265,0)" xlink:href="#I"/><use transform="matrix(0.031481481481481485,0,0,0.031481481481481485,32.6462962962963,0)" xlink:href="#B"/></g><path d="M205 0l-28-72H64L36 0H1l101-248h38L239 0h-34zm-38-99l-47-123c-12 45-31 82-46 123h93" id="P"/><path d="M96-169c-40 0-48 33-48 73s9 75 48 75c24 0 41-14 43-38l32 2c-6 37-31 61-74 61-59 0-76-41-82-99-10-93 101-131 147-64 4 7 5 14 7 22l-32 3c-4-21-16-35-41-35" id="Q"/><path d="M117-194c89-4 53 116 60 194h-32v-121c0-31-8-49-39-48C34-167 62-67 57 0H25l-1-190h30c1 10-1 24 2 32 11-22 29-35 61-36" id="R"/><g id="f"><use transform="matrix(0.031481481481481485,0,0,0.031481481481481485,0,0)" xlink:href="#P"/><use transform="matrix(0.031481481481481485,0,0,0.031481481481481485,7.555555555555556,0)" xlink:href="#F"/><use transform="matrix(0.031481481481481485,0,0,0.031481481481481485,13.851851851851853,0)" xlink:href="#I"/><use transform="matrix(0.031481481481481485,0,0,0.031481481481481485,16.33888888888889,0)" xlink:href="#Q"/><use transform="matrix(0.031481481481481485,0,0,0.031481481481481485,22.005555555555553,0)" xlink:href="#I"/><use transform="matrix(0.031481481481481485,0,0,0.031481481481481485,24.492592592592594,0)" xlink:href="#B"/><use transform="matrix(0.031481481481481485,0,0,0.031481481481481485,30.78888888888889,0)" xlink:href="#R"/><use transform="matrix(0.031481481481481485,0,0,0.031481481481481485,37.08518518518519,0)" xlink:href="#z"/><use transform="matrix(0.031481481481481485,0,0,0.031481481481481485,43.38148148148149,0)" xlink:href="#C"/></g><path d="M127-220V0H93v-220H8v-28h204v28h-85" id="S"/><path d="M101-234c-31-9-42 10-38 44h38v23H63V0H32v-167H5v-23h27c-7-52 17-82 69-68v24" id="T"/><g id="g"><use transform="matrix(0.031481481481481485,0,0,0.031481481481481485,0,0)" xlink:href="#S"/><use transform="matrix(0.031481481481481485,0,0,0.031481481481481485,5.635185185185186,0)" xlink:href="#z"/><use transform="matrix(0.031481481481481485,0,0,0.031481481481481485,11.931481481481484,0)" xlink:href="#C"/><use transform="matrix(0.031481481481481485,0,0,0.031481481481481485,15.67777777777778,0)" xlink:href="#L"/><use transform="matrix(0.031481481481481485,0,0,0.031481481481481485,21.97407407407408,0)" xlink:href="#T"/><use transform="matrix(0.031481481481481485,0,0,0.031481481481481485,25.122222222222227,0)" xlink:href="#z"/><use transform="matrix(0.031481481481481485,0,0,0.031481481481481485,31.418518518518525,0)" xlink:href="#G"/></g><path fill="#333" d="M33 0v-248h34V0H33" id="U"/><path fill="#333" d="M117-194c89-4 53 116 60 194h-32v-121c0-31-8-49-39-48C34-167 62-67 57 0H25l-1-190h30c1 10-1 24 2 32 11-22 29-35 61-36" id="V"/><path fill="#333" d="M34 0v-190h32V0H34zM24-211c8-23 27-35 38-54h36v5l-58 49H24" id="W"/><path fill="#333" d="M96-169c-40 0-48 33-48 73s9 75 48 75c24 0 41-14 43-38l32 2c-6 37-31 61-74 61-59 0-76-41-82-99-10-93 101-131 147-64 4 7 5 14 7 22l-32 3c-4-21-16-35-41-35" id="X"/><path fill="#333" d="M24-231v-30h32v30H24zM24 0v-190h32V0H24" id="Y"/><path fill="#333" d="M100-194c62-1 85 37 85 99 1 63-27 99-86 99S16-35 15-95c0-66 28-99 85-99zM99-20c44 1 53-31 53-75 0-43-8-75-51-75s-53 32-53 75 10 74 51 75" id="Z"/><g id="h"><use transform="matrix(0.02530864197530864,0,0,0.02530864197530864,0,0)" xlink:href="#U"/><use transform="matrix(0.02530864197530864,0,0,0.02530864197530864,2.530864197530864,0)" xlink:href="#V"/><use transform="matrix(0.02530864197530864,0,0,0.02530864197530864,7.592592592592592,0)" xlink:href="#W"/><use transform="matrix(0.02530864197530864,0,0,0.02530864197530864,10.123456790123456,0)" xlink:href="#X"/><use transform="matrix(0.02530864197530864,0,0,0.02530864197530864,14.679012345679011,0)" xlink:href="#Y"/><use transform="matrix(0.02530864197530864,0,0,0.02530864197530864,16.678395061728395,0)" xlink:href="#Z"/></g><g id="i"><use transform="matrix(0.031481481481481485,0,0,0.031481481481481485,0,0)" xlink:href="#P"/><use transform="matrix(0.031481481481481485,0,0,0.031481481481481485,7.555555555555556,0)" xlink:href="#F"/><use transform="matrix(0.031481481481481485,0,0,0.031481481481481485,13.851851851851853,0)" xlink:href="#I"/><use transform="matrix(0.031481481481481485,0,0,0.031481481481481485,16.33888888888889,0)" xlink:href="#Q"/><use transform="matrix(0.031481481481481485,0,0,0.031481481481481485,22.005555555555553,0)" xlink:href="#I"/><use transform="matrix(0.031481481481481485,0,0,0.031481481481481485,24.492592592592594,0)" xlink:href="#B"/><use transform="matrix(0.031481481481481485,0,0,0.031481481481481485,30.78888888888889,0)" xlink:href="#R"/><use transform="matrix(0.031481481481481485,0,0,0.031481481481481485,37.08518518518519,0)" xlink:href="#z"/><use transform="matrix(0.031481481481481485,0,0,0.031481481481481485,43.38148148148149,0)" xlink:href="#C"/></g><path d="M212-179c-10-28-35-45-73-45-59 0-87 40-87 99 0 60 29 101 89 101 43 0 62-24 78-52l27 14C228-24 195 4 139 4 59 4 22-46 18-125c-6-104 99-153 187-111 19 9 31 26 39 46" id="aa"/><path d="M100-194c63 0 86 42 84 106H49c0 40 14 67 53 68 26 1 43-12 49-29l28 8c-11 28-37 45-77 45C44 4 14-33 15-96c1-61 26-98 85-98zm52 81c6-60-76-77-97-28-3 7-6 17-6 28h103zm-74-98c8-23 27-35 38-54h36v5l-58 49H78" id="ab"/><g id="j"><use transform="matrix(0.031481481481481485,0,0,0.031481481481481485,0,0)" xlink:href="#aa"/><use transform="matrix(0.031481481481481485,0,0,0.031481481481481485,8.153703703703705,0)" xlink:href="#C"/><use transform="matrix(0.031481481481481485,0,0,0.031481481481481485,11.900000000000002,0)" xlink:href="#I"/><use transform="matrix(0.031481481481481485,0,0,0.031481481481481485,14.38703703703704,0)" xlink:href="#J"/><use transform="matrix(0.031481481481481485,0,0,0.031481481481481485,17.53518518518519,0)" xlink:href="#ab"/><use transform="matrix(0.031481481481481485,0,0,0.031481481481481485,23.831481481481486,0)" xlink:href="#C"/><use transform="matrix(0.031481481481481485,0,0,0.031481481481481485,27.577777777777783,0)" xlink:href="#I"/><use transform="matrix(0.031481481481481485,0,0,0.031481481481481485,30.06481481481482,0)" xlink:href="#B"/><use transform="matrix(0.031481481481481485,0,0,0.031481481481481485,36.361111111111114,0)" xlink:href="#G"/></g><g id="k"><use transform="matrix(0.031481481481481485,0,0,0.031481481481481485,0,0)" xlink:href="#P"/><use transform="matrix(0.031481481481481485,0,0,0.031481481481481485,7.555555555555556,0)" xlink:href="#Q"/><use transform="matrix(0.031481481481481485,0,0,0.031481481481481485,13.222222222222223,0)" xlink:href="#L"/><use transform="matrix(0.031481481481481485,0,0,0.031481481481481485,19.51851851851852,0)" xlink:href="#I"/><use transform="matrix(0.031481481481481485,0,0,0.031481481481481485,22.005555555555553,0)" xlink:href="#J"/><use transform="matrix(0.031481481481481485,0,0,0.031481481481481485,25.153703703703705,0)" xlink:href="#z"/><use transform="matrix(0.031481481481481485,0,0,0.031481481481481485,31.450000000000003,0)" xlink:href="#D"/><use transform="matrix(0.031481481481481485,0,0,0.031481481481481485,37.11666666666667,0)" xlink:href="#E"/><use transform="matrix(0.031481481481481485,0,0,0.031481481481481485,43.412962962962965,0)" xlink:href="#B"/></g><path d="M30-248c87 1 191-15 191 75 0 78-77 80-158 76V0H30v-248zm33 125c57 0 124 11 124-50 0-59-68-47-124-48v98" id="ac"/><path d="M9 0v-24l116-142H16v-24h144v24L44-24h123V0H9" id="ad"/><g id="l"><use transform="matrix(0.031481481481481485,0,0,0.031481481481481485,0,0)" xlink:href="#ac"/><use transform="matrix(0.031481481481481485,0,0,0.031481481481481485,7.555555555555556,0)" xlink:href="#C"/><use transform="matrix(0.031481481481481485,0,0,0.031481481481481485,11.301851851851854,0)" xlink:href="#I"/><use transform="matrix(0.031481481481481485,0,0,0.031481481481481485,13.788888888888891,0)" xlink:href="#B"/><use transform="matrix(0.031481481481481485,0,0,0.031481481481481485,20.08518518518519,0)" xlink:href="#C"/><use transform="matrix(0.031481481481481485,0,0,0.031481481481481485,23.831481481481486,0)" xlink:href="#I"/><use transform="matrix(0.031481481481481485,0,0,0.031481481481481485,26.318518518518523,0)" xlink:href="#ad"/><use transform="matrix(0.031481481481481485,0,0,0.031481481481481485,31.98518518518519,0)" xlink:href="#z"/><use transform="matrix(0.031481481481481485,0,0,0.031481481481481485,38.281481481481485,0)" xlink:href="#C"/></g><g id="m"><use transform="matrix(0.031481481481481485,0,0,0.031481481481481485,0,0)" xlink:href="#H"/><use transform="matrix(0.031481481481481485,0,0,0.031481481481481485,8.153703703703705,0)" xlink:href="#I"/><use transform="matrix(0.031481481481481485,0,0,0.031481481481481485,10.640740740740743,0)" xlink:href="#G"/><use transform="matrix(0.031481481481481485,0,0,0.031481481481481485,16.30740740740741,0)" xlink:href="#J"/><use transform="matrix(0.031481481481481485,0,0,0.031481481481481485,19.45555555555556,0)" xlink:href="#K"/><use transform="matrix(0.031481481481481485,0,0,0.031481481481481485,25.751851851851857,0)" xlink:href="#C"/><use transform="matrix(0.031481481481481485,0,0,0.031481481481481485,29.498148148148154,0)" xlink:href="#I"/><use transform="matrix(0.031481481481481485,0,0,0.031481481481481485,31.98518518518519,0)" xlink:href="#z"/><use transform="matrix(0.031481481481481485,0,0,0.031481481481481485,38.281481481481485,0)" xlink:href="#G"/></g><g id="n"><use transform="matrix(0.031481481481481485,0,0,0.031481481481481485,0,0)" xlink:href="#F"/><use transform="matrix(0.031481481481481485,0,0,0.031481481481481485,6.296296296296297,0)" xlink:href="#L"/></g><path fill="#333" d="M63-220v92h138v28H63V0H30v-248h175v28H63" id="ae"/><path fill="#333" d="M210-169c-67 3-38 105-44 169h-31v-121c0-29-5-50-35-48C34-165 62-65 56 0H25l-1-190h30c1 10-1 24 2 32 10-44 99-50 107 0 11-21 27-35 58-36 85-2 47 119 55 194h-31v-121c0-29-5-49-35-48" id="af"/><g id="o"><use transform="matrix(0.031481481481481485,0,0,0.031481481481481485,0,0)" xlink:href="#ae"/><use transform="matrix(0.031481481481481485,0,0,0.031481481481481485,6.894444444444446,0)" xlink:href="#Y"/><use transform="matrix(0.031481481481481485,0,0,0.031481481481481485,9.381481481481483,0)" xlink:href="#af"/></g><path fill="#333" d="M160-131c35 5 61 23 61 61C221 17 115-2 30 0v-248c76 3 177-17 177 60 0 33-19 50-47 57zm-97-11c50-1 110 9 110-42 0-47-63-36-110-37v79zm0 115c55-2 124 14 124-45 0-56-70-42-124-44v89" id="ag"/><path fill="#333" d="M141-36C126-15 110 5 73 4 37 3 15-17 15-53c-1-64 63-63 125-63 3-35-9-54-41-54-24 1-41 7-42 31l-33-3c5-37 33-52 76-52 45 0 72 20 72 64v82c-1 20 7 32 28 27v20c-31 9-61-2-59-35zM48-53c0 20 12 33 32 33 41-3 63-29 60-74-43 2-92-5-92 41" id="ah"/><path fill="#333" d="M143 0L79-87 56-68V0H24v-261h32v163l83-92h37l-77 82L181 0h-38" id="ai"/><path fill="#333" d="M24 0v-261h32V0H24" id="aj"/><path fill="#333" d="M177-190C167-65 218 103 67 71c-23-6-38-20-44-43l32-5c15 47 100 32 89-28v-30C133-14 115 1 83 1 29 1 15-40 15-95c0-56 16-97 71-98 29-1 48 16 59 35 1-10 0-23 2-32h30zM94-22c36 0 50-32 50-73 0-42-14-75-50-75-39 0-46 34-46 75s6 73 46 73" id="ak"/><g id="p"><use transform="matrix(0.02530864197530864,0,0,0.02530864197530864,0,0)" xlink:href="#ag"/><use transform="matrix(0.02530864197530864,0,0,0.02530864197530864,6.0740740740740735,0)" xlink:href="#ah"/><use transform="matrix(0.02530864197530864,0,0,0.02530864197530864,11.1358024691358,0)" xlink:href="#X"/><use transform="matrix(0.02530864197530864,0,0,0.02530864197530864,15.691358024691356,0)" xlink:href="#ai"/><use transform="matrix(0.02530864197530864,0,0,0.02530864197530864,20.24691358024691,0)" xlink:href="#aj"/><use transform="matrix(0.02530864197530864,0,0,0.02530864197530864,22.246296296296293,0)" xlink:href="#Z"/><use transform="matrix(0.02530864197530864,0,0,0.02530864197530864,27.30802469135802,0)" xlink:href="#ak"/></g><path fill="#333" d="M85-194c31 0 48 13 60 33l-1-100h32l1 261h-30c-2-10 0-23-3-31C134-8 116 4 85 4 32 4 16-35 15-94c0-66 23-100 70-100zm9 24c-40 0-46 34-46 75 0 40 6 74 45 74 42 0 51-32 51-76 0-42-9-74-50-73" id="al"/><g id="q"><use transform="matrix(0.02530864197530864,0,0,0.02530864197530864,0,0)" xlink:href="#al"/><use transform="matrix(0.02530864197530864,0,0,0.02530864197530864,5.061728395061728,0)" xlink:href="#Z"/></g><path fill="#333" d="M30-248c87 1 191-15 191 75 0 78-77 80-158 76V0H30v-248zm33 125c57 0 124 11 124-50 0-59-68-47-124-48v98" id="am"/><path fill="#333" d="M114-163C36-179 61-72 57 0H25l-1-190h30c1 12-1 29 2 39 6-27 23-49 58-41v29" id="an"/><path fill="#333" d="M84 4C-5 8 30-112 23-190h32v120c0 31 7 50 39 49 72-2 45-101 50-169h31l1 190h-30c-1-10 1-25-2-33-11 22-28 36-60 37" id="ao"/><path fill="#333" d="M59-47c-2 24 18 29 38 22v24C64 9 27 4 27-40v-127H5v-23h24l9-43h21v43h35v23H59v120" id="ap"/><g id="r"><use transform="matrix(0.02530864197530864,0,0,0.02530864197530864,0,0)" xlink:href="#am"/><use transform="matrix(0.02530864197530864,0,0,0.02530864197530864,6.0740740740740735,0)" xlink:href="#an"/><use transform="matrix(0.02530864197530864,0,0,0.02530864197530864,9.085802469135801,0)" xlink:href="#Z"/><use transform="matrix(0.02530864197530864,0,0,0.02530864197530864,14.14753086419753,0)" xlink:href="#al"/><use transform="matrix(0.02530864197530864,0,0,0.02530864197530864,19.209259259259255,0)" xlink:href="#ao"/><use transform="matrix(0.02530864197530864,0,0,0.02530864197530864,24.270987654320983,0)" xlink:href="#ap"/><use transform="matrix(0.02530864197530864,0,0,0.02530864197530864,26.80185185185185,0)" xlink:href="#Z"/></g><path fill="#333" d="M30 0v-248h187v28H63v79h144v27H63v87h162V0H30" id="aq"/><path fill="#333" d="M115-194c53 0 69 39 70 98 0 66-23 100-70 100C84 3 66-7 56-30L54 0H23l1-261h32v101c10-23 28-34 59-34zm-8 174c40 0 45-34 45-75 0-40-5-75-45-74-42 0-51 32-51 76 0 43 10 73 51 73" id="ar"/><path fill="#333" d="M96-169c-40 0-48 33-48 73s9 75 48 75c24 0 41-14 43-38l32 2c-6 37-31 61-74 61-59 0-76-41-82-99-10-93 101-131 147-64 4 7 5 14 7 22l-32 3c-4-21-16-35-41-35zm3 187c19-1 33 8 33 26 0 31-30 33-64 32V58c18 2 39 4 41-13 1-15-18-13-34-13L87 0h19" id="as"/><path fill="#333" d="M141-36C126-15 110 5 73 4 37 3 15-17 15-53c-1-64 63-63 125-63 3-35-9-54-41-54-24 1-41 7-42 31l-33-3c5-37 33-52 76-52 45 0 72 20 72 64v82c-1 20 7 32 28 27v20c-31 9-61-2-59-35zM48-53c0 20 12 33 32 33 41-3 63-29 60-74-43 2-92-5-92 41zm117-205c-3 23-9 48-36 47-26-1-65-44-74 0H39c4-23 8-48 36-47s64 44 74 0h16" id="at"/><g id="s"><use transform="matrix(0.05,0,0,0.05,0,0)" xlink:href="#aq"/><use transform="matrix(0.05,0,0,0.05,12,0)" xlink:href="#aj"/><use transform="matrix(0.05,0,0,0.05,15.949999999999998,0)" xlink:href="#ah"/><use transform="matrix(0.05,0,0,0.05,25.950000000000003,0)" xlink:href="#ar"/><use transform="matrix(0.05,0,0,0.05,35.95,0)" xlink:href="#Z"/><use transform="matrix(0.05,0,0,0.05,45.95,0)" xlink:href="#an"/><use transform="matrix(0.05,0,0,0.05,51.900000000000006,0)" xlink:href="#ah"/><use transform="matrix(0.05,0,0,0.05,61.900000000000006,0)" xlink:href="#as"/><use transform="matrix(0.05,0,0,0.05,70.9,0)" xlink:href="#at"/><use transform="matrix(0.05,0,0,0.05,80.9,0)" xlink:href="#Z"/></g><g id="t"><use transform="matrix(0.05,0,0,0.05,0,0)" xlink:href="#al"/><use transform="matrix(0.05,0,0,0.05,10,0)" xlink:href="#Z"/></g><g id="u"><use transform="matrix(0.05,0,0,0.05,0,0)" xlink:href="#ag"/><use transform="matrix(0.05,0,0,0.05,12,0)" xlink:href="#ah"/><use transform="matrix(0.05,0,0,0.05,22,0)" xlink:href="#X"/><use transform="matrix(0.05,0,0,0.05,31,0)" xlink:href="#ai"/><use transform="matrix(0.05,0,0,0.05,40,0)" xlink:href="#aj"/><use transform="matrix(0.05,0,0,0.05,43.95,0)" xlink:href="#Z"/><use transform="matrix(0.05,0,0,0.05,53.95,0)" xlink:href="#ak"/></g><g id="v"><use transform="matrix(0.05,0,0,0.05,0,0)" xlink:href="#al"/><use transform="matrix(0.05,0,0,0.05,10,0)" xlink:href="#Z"/></g><g id="w"><use transform="matrix(0.05,0,0,0.05,0,0)" xlink:href="#am"/><use transform="matrix(0.05,0,0,0.05,12,0)" xlink:href="#an"/><use transform="matrix(0.05,0,0,0.05,17.95,0)" xlink:href="#Z"/><use transform="matrix(0.05,0,0,0.05,27.950000000000003,0)" xlink:href="#al"/><use transform="matrix(0.05,0,0,0.05,37.95,0)" xlink:href="#ao"/><use transform="matrix(0.05,0,0,0.05,47.95,0)" xlink:href="#ap"/><use transform="matrix(0.05,0,0,0.05,52.95,0)" xlink:href="#Z"/></g></defs></g></svg>