<svg xmlns="http://www.w3.org/2000/svg" xmlns:xlink="http://www.w3.org/1999/xlink" xmlns:lucid="lucid" width="741.66" height="240"><g transform="translate(0 0)" lucid:page-tab-id="VjMd39PQffTe"><path d="M0 0h741.66v240H0z" fill="#fff"/><path d="M78.2 220H28c-4.42 0-8-3.58-8-8V28c0-4.42 3.58-8 8-8h50.2z" stroke="#333" fill="#fff"/><path d="M78.2 20H712c4.42 0 8 3.58 8 8v184c0 4.42-3.58 8-8 8H78.2z" stroke="#333" fill="none"/><use xlink:href="#a" transform="matrix(-1.8369701987210297e-16,-1,1,-1.8369701987210297e-16,20.000000000000014,220) translate(7.574999999999989 22.299999999999997)"/><use xlink:href="#b" transform="matrix(-1.8369701987210297e-16,-1,1,-1.8369701987210297e-16,20.000000000000014,220) translate(103.475 22.299999999999997)"/><use xlink:href="#c" transform="matrix(-1.8369701987210297e-16,-1,1,-1.8369701987210297e-16,20.000000000000014,220) translate(128.475 22.299999999999997)"/><use xlink:href="#b" transform="matrix(-1.8369701987210297e-16,-1,1,-1.8369701987210297e-16,20.000000000000014,220) translate(56.025 43.9)"/><use xlink:href="#d" transform="matrix(-1.8369701987210297e-16,-1,1,-1.8369701987210297e-16,20.000000000000014,220) translate(81.025 43.9)"/><path d="M120 120c0 5.52-4.48 10-10 10s-10-4.48-10-10 4.48-10 10-10 10 4.48 10 10z" stroke="#333" fill="#fff"/><use xlink:href="#e" transform="matrix(1,0,0,1,100,132) translate(-0.8700617283950614 11.822222222222223)"/><path d="M160 98c0-4.42 3.58-8 8-8h64c4.42 0 8 3.58 8 8v44c0 4.42-3.58 8-8 8h-64c-4.42 0-8-3.58-8-8z" stroke="#333" fill="#fff"/><use xlink:href="#f" transform="matrix(1,0,0,1,160,90) translate(18.644814814814815 21.498666666666665)"/><use xlink:href="#g" transform="matrix(1,0,0,1,160,90) translate(10.160555555555556 35.09866666666667)"/><use xlink:href="#h" transform="matrix(1,0,0,1,160,90) translate(57.25685185185185 35.09866666666667)"/><use xlink:href="#i" transform="matrix(1,0,0,1,160,90) translate(17.700370370370372 48.69866666666667)"/><path d="M360 48c0-4.42 3.58-8 8-8h64c4.42 0 8 3.58 8 8v44c0 4.42-3.58 8-8 8h-64c-4.42 0-8-3.58-8-8z" stroke="#333" fill="#fff"/><use xlink:href="#j" transform="matrix(1,0,0,1,360,40) translate(16.441111111111113 24.06666666666667)"/><use xlink:href="#k" transform="matrix(1,0,0,1,360,40) translate(21.462407407407404 37.66666666666667)"/><path d="M360 148c0-4.42 3.58-8 8-8h64c4.42 0 8 3.58 8 8v44c0 4.42-3.58 8-8 8h-64c-4.42 0-8-3.58-8-8z" stroke="#333" fill="#fff"/><use xlink:href="#j" transform="matrix(1,0,0,1,360,140) translate(16.441111111111113 21.498666666666665)"/><use xlink:href="#l" transform="matrix(1,0,0,1,360,140) translate(11.120740740740741 35.09866666666667)"/><use xlink:href="#h" transform="matrix(1,0,0,1,360,140) translate(56.29666666666667 35.09866666666667)"/><use xlink:href="#m" transform="matrix(1,0,0,1,360,140) translate(15.15037037037037 48.69866666666667)"/><path d="M565 98c0-4.42 3.58-8 8-8h64c4.42 0 8 3.58 8 8v44c0 4.42-3.58 8-8 8h-64c-4.42 0-8-3.58-8-8z" stroke="#333" fill="#fff"/><use xlink:href="#n" transform="matrix(1,0,0,1,565,90) translate(18.99111111111111 21.498666666666665)"/><use xlink:href="#g" transform="matrix(1,0,0,1,565,90) translate(10.160555555555556 35.09866666666667)"/><use xlink:href="#h" transform="matrix(1,0,0,1,565,90) translate(57.25685185185185 35.09866666666667)"/><use xlink:href="#i" transform="matrix(1,0,0,1,565,90) translate(17.700370370370372 48.69866666666667)"/><path d="M705 120c0 5.52-4.48 10-10 10s-10-4.48-10-10 4.48-10 10-10 10 4.48 10 10z" stroke="#333" stroke-width="5" fill="#fff"/><use xlink:href="#o" transform="matrix(1,0,0,1,685,132) translate(1.1799382716049394 11.822222222222223)"/><use xlink:href="#p" transform="matrix(1,0,0,1,685,132) translate(3.7108024691358032 11.822222222222223)"/><path d="M121 120h22.12" stroke="#333" fill="none"/><path d="M121.02 120.5h-.58l.06-.5-.06-.5h.58z" fill="#333"/><path d="M157.88 120l-14.26 4.64v-9.28z" stroke="#333" fill="#333"/><path d="M280 120l20-20 20 20-20 20z" stroke="#333" fill="#fff"/><path d="M308 120c0 4.42-3.58 8-8 8s-8-3.58-8-8 3.58-8 8-8 8 3.58 8 8zM241 120h21.9" stroke="#333" fill="none"/><path d="M241 120.5h-.5v-1h.5z" fill="#333"/><path d="M277.67 120l-14.26 4.64v-9.28z" stroke="#333" fill="#333"/><path d="M300 141.2V158c0 6.63 5.37 12 12 12h31.12" stroke="#333" fill="none"/><path d="M300.5 141.22h-1v-1l.5.5.5-.5z" fill="#333"/><path d="M357.88 170l-14.26 4.64v-9.28z" stroke="#333" fill="#333"/><path d="M300 98.8V82c0-6.63 5.37-12 12-12h31.12" stroke="#333" fill="none"/><path d="M300.5 99.8l-.5-.5-.5.5v-1.02h1z" fill="#333"/><path d="M357.88 70l-14.26 4.64v-9.28z" stroke="#333" fill="#333"/><path d="M480 120l22.5-20 22.5 20-22.5 20z" stroke="#333" fill="#fff"/><path d="M511.5 120c0 4.42-4.03 8-9 8s-9-3.58-9-8 4.03-8 9-8 9 3.58 9 8zM441 70h49.5c6.63 0 12 5.37 12 12v.95" stroke="#333" fill="none"/><path d="M441 70.5h-.5v-1h.5z" fill="#333"/><path d="M502.5 97.7l-4.64-14.25h9.28z" stroke="#333" fill="#333"/><path d="M441 170h49.5c6.63 0 12-5.37 12-12v-.95" stroke="#333" fill="none"/><path d="M441 170.5h-.5v-1h.5z" fill="#333"/><path d="M502.5 142.3l4.64 14.25h-9.28z" stroke="#333" fill="#333"/><path d="M526.25 120h21.87" stroke="#333" fill="none"/><path d="M526.27 120.5h-1.08l.55-.5-.56-.5h1.07z" fill="#333"/><path d="M562.88 120l-14.26 4.64v-9.28z" stroke="#333" fill="#333"/><path d="M646 120h20.1" stroke="#333" fill="none"/><path d="M646 120.5h-.5v-1h.5z" fill="#333"/><path d="M680.86 120l-14.27 4.64v-9.28z" stroke="#333" fill="#333"/><path d="M640.82 160l3.88 6v14H635v-20z" stroke="#333" fill="#fff"/><path d="M640.82 160v6h3.88" stroke="#333" fill="none"/><path d="M620 188c0-4.42 3.58-8 8-8h24c4.42 0 8 3.58 8 8v4c0 4.42-3.58 8-8 8h-24c-4.42 0-8-3.58-8-8z" stroke="#000" stroke-opacity="0" fill="#fff" fill-opacity="0"/><g><use xlink:href="#q" transform="matrix(1,0,0,1,625,185) translate(3.4694444444444468 3.733333333333333)"/><use xlink:href="#r" transform="matrix(1,0,0,1,625,185) translate(21.345370370370368 3.733333333333333)"/><use xlink:href="#s" transform="matrix(1,0,0,1,625,185) translate(6.839814814814817 9.333333333333332)"/></g><path d="M605 151v1.17m0 4.66V158l.14 1.04m1.06 4l.4.95.64.83m2.93 2.93l.84.64.96.4m4 1.06l1.04.14h.94m3.78 0h1.9m3.77 0h1.88m3.78 0h.94" stroke="#333" fill="none"/><path d="M605.5 151h-1v-.5h1zM634.5 170.5h-.5v-1h.5z" fill="#333"/><defs><path fill="#333" d="M30 0v-248h187v28H63v79h144v27H63v87h162V0H30" id="t"/><path fill="#333" d="M24 0v-261h32V0H24" id="u"/><path fill="#333" d="M141-36C126-15 110 5 73 4 37 3 15-17 15-53c-1-64 63-63 125-63 3-35-9-54-41-54-24 1-41 7-42 31l-33-3c5-37 33-52 76-52 45 0 72 20 72 64v82c-1 20 7 32 28 27v20c-31 9-61-2-59-35zM48-53c0 20 12 33 32 33 41-3 63-29 60-74-43 2-92-5-92 41" id="v"/><path fill="#333" d="M115-194c53 0 69 39 70 98 0 66-23 100-70 100C84 3 66-7 56-30L54 0H23l1-261h32v101c10-23 28-34 59-34zm-8 174c40 0 45-34 45-75 0-40-5-75-45-74-42 0-51 32-51 76 0 43 10 73 51 73" id="w"/><path fill="#333" d="M100-194c62-1 85 37 85 99 1 63-27 99-86 99S16-35 15-95c0-66 28-99 85-99zM99-20c44 1 53-31 53-75 0-43-8-75-51-75s-53 32-53 75 10 74 51 75" id="x"/><path fill="#333" d="M114-163C36-179 61-72 57 0H25l-1-190h30c1 12-1 29 2 39 6-27 23-49 58-41v29" id="y"/><path fill="#333" d="M96-169c-40 0-48 33-48 73s9 75 48 75c24 0 41-14 43-38l32 2c-6 37-31 61-74 61-59 0-76-41-82-99-10-93 101-131 147-64 4 7 5 14 7 22l-32 3c-4-21-16-35-41-35zm3 187c19-1 33 8 33 26 0 31-30 33-64 32V58c18 2 39 4 41-13 1-15-18-13-34-13L87 0h19" id="z"/><path fill="#333" d="M141-36C126-15 110 5 73 4 37 3 15-17 15-53c-1-64 63-63 125-63 3-35-9-54-41-54-24 1-41 7-42 31l-33-3c5-37 33-52 76-52 45 0 72 20 72 64v82c-1 20 7 32 28 27v20c-31 9-61-2-59-35zM48-53c0 20 12 33 32 33 41-3 63-29 60-74-43 2-92-5-92 41zm117-205c-3 23-9 48-36 47-26-1-65-44-74 0H39c4-23 8-48 36-47s64 44 74 0h16" id="A"/><g id="a"><use transform="matrix(0.05,0,0,0.05,0,0)" xlink:href="#t"/><use transform="matrix(0.05,0,0,0.05,12,0)" xlink:href="#u"/><use transform="matrix(0.05,0,0,0.05,15.949999999999998,0)" xlink:href="#v"/><use transform="matrix(0.05,0,0,0.05,25.950000000000003,0)" xlink:href="#w"/><use transform="matrix(0.05,0,0,0.05,35.95,0)" xlink:href="#x"/><use transform="matrix(0.05,0,0,0.05,45.95,0)" xlink:href="#y"/><use transform="matrix(0.05,0,0,0.05,51.900000000000006,0)" xlink:href="#v"/><use transform="matrix(0.05,0,0,0.05,61.900000000000006,0)" xlink:href="#z"/><use transform="matrix(0.05,0,0,0.05,70.9,0)" xlink:href="#A"/><use transform="matrix(0.05,0,0,0.05,80.9,0)" xlink:href="#x"/></g><path fill="#333" d="M85-194c31 0 48 13 60 33l-1-100h32l1 261h-30c-2-10 0-23-3-31C134-8 116 4 85 4 32 4 16-35 15-94c0-66 23-100 70-100zm9 24c-40 0-46 34-46 75 0 40 6 74 45 74 42 0 51-32 51-76 0-42-9-74-50-73" id="B"/><g id="b"><use transform="matrix(0.05,0,0,0.05,0,0)" xlink:href="#B"/><use transform="matrix(0.05,0,0,0.05,10,0)" xlink:href="#x"/></g><path fill="#333" d="M160-131c35 5 61 23 61 61C221 17 115-2 30 0v-248c76 3 177-17 177 60 0 33-19 50-47 57zm-97-11c50-1 110 9 110-42 0-47-63-36-110-37v79zm0 115c55-2 124 14 124-45 0-56-70-42-124-44v89" id="C"/><path fill="#333" d="M96-169c-40 0-48 33-48 73s9 75 48 75c24 0 41-14 43-38l32 2c-6 37-31 61-74 61-59 0-76-41-82-99-10-93 101-131 147-64 4 7 5 14 7 22l-32 3c-4-21-16-35-41-35" id="D"/><path fill="#333" d="M143 0L79-87 56-68V0H24v-261h32v163l83-92h37l-77 82L181 0h-38" id="E"/><path fill="#333" d="M177-190C167-65 218 103 67 71c-23-6-38-20-44-43l32-5c15 47 100 32 89-28v-30C133-14 115 1 83 1 29 1 15-40 15-95c0-56 16-97 71-98 29-1 48 16 59 35 1-10 0-23 2-32h30zM94-22c36 0 50-32 50-73 0-42-14-75-50-75-39 0-46 34-46 75s6 73 46 73" id="F"/><g id="c"><use transform="matrix(0.05,0,0,0.05,0,0)" xlink:href="#C"/><use transform="matrix(0.05,0,0,0.05,12,0)" xlink:href="#v"/><use transform="matrix(0.05,0,0,0.05,22,0)" xlink:href="#D"/><use transform="matrix(0.05,0,0,0.05,31,0)" xlink:href="#E"/><use transform="matrix(0.05,0,0,0.05,40,0)" xlink:href="#u"/><use transform="matrix(0.05,0,0,0.05,43.95,0)" xlink:href="#x"/><use transform="matrix(0.05,0,0,0.05,53.95,0)" xlink:href="#F"/></g><path fill="#333" d="M30-248c87 1 191-15 191 75 0 78-77 80-158 76V0H30v-248zm33 125c57 0 124 11 124-50 0-59-68-47-124-48v98" id="G"/><path fill="#333" d="M84 4C-5 8 30-112 23-190h32v120c0 31 7 50 39 49 72-2 45-101 50-169h31l1 190h-30c-1-10 1-25-2-33-11 22-28 36-60 37" id="H"/><path fill="#333" d="M59-47c-2 24 18 29 38 22v24C64 9 27 4 27-40v-127H5v-23h24l9-43h21v43h35v23H59v120" id="I"/><g id="d"><use transform="matrix(0.05,0,0,0.05,0,0)" xlink:href="#G"/><use transform="matrix(0.05,0,0,0.05,12,0)" xlink:href="#y"/><use transform="matrix(0.05,0,0,0.05,17.95,0)" xlink:href="#x"/><use transform="matrix(0.05,0,0,0.05,27.950000000000003,0)" xlink:href="#B"/><use transform="matrix(0.05,0,0,0.05,37.95,0)" xlink:href="#H"/><use transform="matrix(0.05,0,0,0.05,47.95,0)" xlink:href="#I"/><use transform="matrix(0.05,0,0,0.05,52.95,0)" xlink:href="#x"/></g><path fill="#333" d="M33 0v-248h34V0H33" id="J"/><path fill="#333" d="M117-194c89-4 53 116 60 194h-32v-121c0-31-8-49-39-48C34-167 62-67 57 0H25l-1-190h30c1 10-1 24 2 32 11-22 29-35 61-36" id="K"/><path fill="#333" d="M34 0v-190h32V0H34zM24-211c8-23 27-35 38-54h36v5l-58 49H24" id="L"/><path fill="#333" d="M24-231v-30h32v30H24zM24 0v-190h32V0H24" id="M"/><g id="e"><use transform="matrix(0.02530864197530864,0,0,0.02530864197530864,0,0)" xlink:href="#J"/><use transform="matrix(0.02530864197530864,0,0,0.02530864197530864,2.530864197530864,0)" xlink:href="#K"/><use transform="matrix(0.02530864197530864,0,0,0.02530864197530864,7.592592592592592,0)" xlink:href="#L"/><use transform="matrix(0.02530864197530864,0,0,0.02530864197530864,10.123456790123456,0)" xlink:href="#D"/><use transform="matrix(0.02530864197530864,0,0,0.02530864197530864,14.679012345679011,0)" xlink:href="#M"/><use transform="matrix(0.02530864197530864,0,0,0.02530864197530864,16.678395061728395,0)" xlink:href="#x"/></g><path d="M30 0v-248h187v28H63v79h144v27H63v87h162V0H30" id="N"/><path d="M24 0v-261h32V0H24" id="O"/><path d="M141-36C126-15 110 5 73 4 37 3 15-17 15-53c-1-64 63-63 125-63 3-35-9-54-41-54-24 1-41 7-42 31l-33-3c5-37 33-52 76-52 45 0 72 20 72 64v82c-1 20 7 32 28 27v20c-31 9-61-2-59-35zM48-53c0 20 12 33 32 33 41-3 63-29 60-74-43 2-92-5-92 41" id="P"/><path d="M115-194c53 0 69 39 70 98 0 66-23 100-70 100C84 3 66-7 56-30L54 0H23l1-261h32v101c10-23 28-34 59-34zm-8 174c40 0 45-34 45-75 0-40-5-75-45-74-42 0-51 32-51 76 0 43 10 73 51 73" id="Q"/><path d="M100-194c62-1 85 37 85 99 1 63-27 99-86 99S16-35 15-95c0-66 28-99 85-99zM99-20c44 1 53-31 53-75 0-43-8-75-51-75s-53 32-53 75 10 74 51 75" id="R"/><path d="M114-163C36-179 61-72 57 0H25l-1-190h30c1 12-1 29 2 39 6-27 23-49 58-41v29" id="S"/><g id="f"><use transform="matrix(0.031481481481481485,0,0,0.031481481481481485,0,0)" xlink:href="#N"/><use transform="matrix(0.031481481481481485,0,0,0.031481481481481485,7.555555555555556,0)" xlink:href="#O"/><use transform="matrix(0.031481481481481485,0,0,0.031481481481481485,10.042592592592595,0)" xlink:href="#P"/><use transform="matrix(0.031481481481481485,0,0,0.031481481481481485,16.338888888888892,0)" xlink:href="#Q"/><use transform="matrix(0.031481481481481485,0,0,0.031481481481481485,22.63518518518519,0)" xlink:href="#R"/><use transform="matrix(0.031481481481481485,0,0,0.031481481481481485,28.931481481481487,0)" xlink:href="#S"/><use transform="matrix(0.031481481481481485,0,0,0.031481481481481485,32.677777777777784,0)" xlink:href="#P"/><use transform="matrix(0.031481481481481485,0,0,0.031481481481481485,38.97407407407408,0)" xlink:href="#S"/></g><path d="M197 0v-115H63V0H30v-248h33v105h134v-105h34V0h-34" id="T"/><path d="M24-231v-30h32v30H24zM24 0v-190h32V0H24" id="U"/><path d="M135-143c-3-34-86-38-87 0 15 53 115 12 119 90S17 21 10-45l28-5c4 36 97 45 98 0-10-56-113-15-118-90-4-57 82-63 122-42 12 7 21 19 24 35" id="V"/><path d="M59-47c-2 24 18 29 38 22v24C64 9 27 4 27-40v-127H5v-23h24l9-43h21v43h35v23H59v120" id="W"/><path d="M100-194c62-1 85 37 85 99 1 63-27 99-86 99S16-35 15-95c0-66 28-99 85-99zM99-20c44 1 53-31 53-75 0-43-8-75-51-75s-53 32-53 75 10 74 51 75zM76-211c8-23 27-35 38-54h36v5l-58 49H76" id="X"/><g id="g"><use transform="matrix(0.031481481481481485,0,0,0.031481481481481485,0,0)" xlink:href="#T"/><use transform="matrix(0.031481481481481485,0,0,0.031481481481481485,8.153703703703705,0)" xlink:href="#U"/><use transform="matrix(0.031481481481481485,0,0,0.031481481481481485,10.640740740740743,0)" xlink:href="#V"/><use transform="matrix(0.031481481481481485,0,0,0.031481481481481485,16.30740740740741,0)" xlink:href="#W"/><use transform="matrix(0.031481481481481485,0,0,0.031481481481481485,19.45555555555556,0)" xlink:href="#X"/><use transform="matrix(0.031481481481481485,0,0,0.031481481481481485,25.751851851851857,0)" xlink:href="#S"/><use transform="matrix(0.031481481481481485,0,0,0.031481481481481485,29.498148148148154,0)" xlink:href="#U"/><use transform="matrix(0.031481481481481485,0,0,0.031481481481481485,31.98518518518519,0)" xlink:href="#P"/><use transform="matrix(0.031481481481481485,0,0,0.031481481481481485,38.281481481481485,0)" xlink:href="#V"/></g><path d="M85-194c31 0 48 13 60 33l-1-100h32l1 261h-30c-2-10 0-23-3-31C134-8 116 4 85 4 32 4 16-35 15-94c0-66 23-100 70-100zm9 24c-40 0-46 34-46 75 0 40 6 74 45 74 42 0 51-32 51-76 0-42-9-74-50-73" id="Y"/><path d="M100-194c63 0 86 42 84 106H49c0 40 14 67 53 68 26 1 43-12 49-29l28 8c-11 28-37 45-77 45C44 4 14-33 15-96c1-61 26-98 85-98zm52 81c6-60-76-77-97-28-3 7-6 17-6 28h103" id="Z"/><g id="h"><use transform="matrix(0.031481481481481485,0,0,0.031481481481481485,0,0)" xlink:href="#Y"/><use transform="matrix(0.031481481481481485,0,0,0.031481481481481485,6.296296296296297,0)" xlink:href="#Z"/></g><path d="M232-93c-1 65-40 97-104 97C67 4 28-28 28-90v-158h33c8 89-33 224 67 224 102 0 64-133 71-224h33v155" id="aa"/><path d="M84 4C-5 8 30-112 23-190h32v120c0 31 7 50 39 49 72-2 45-101 50-169h31l1 190h-30c-1-10 1-25-2-33-11 22-28 36-60 37" id="ab"/><path d="M141-36C126-15 110 5 73 4 37 3 15-17 15-53c-1-64 63-63 125-63 3-35-9-54-41-54-24 1-41 7-42 31l-33-3c5-37 33-52 76-52 45 0 72 20 72 64v82c-1 20 7 32 28 27v20c-31 9-61-2-59-35zM48-53c0 20 12 33 32 33 41-3 63-29 60-74-43 2-92-5-92 41zm25-158c8-23 27-35 38-54h36v5l-58 49H73" id="ac"/><g id="i"><use transform="matrix(0.031481481481481485,0,0,0.031481481481481485,0,0)" xlink:href="#aa"/><use transform="matrix(0.031481481481481485,0,0,0.031481481481481485,8.153703703703705,0)" xlink:href="#V"/><use transform="matrix(0.031481481481481485,0,0,0.031481481481481485,13.820370370370373,0)" xlink:href="#ab"/><use transform="matrix(0.031481481481481485,0,0,0.031481481481481485,20.11666666666667,0)" xlink:href="#ac"/><use transform="matrix(0.031481481481481485,0,0,0.031481481481481485,26.41296296296297,0)" xlink:href="#S"/><use transform="matrix(0.031481481481481485,0,0,0.031481481481481485,30.159259259259265,0)" xlink:href="#U"/><use transform="matrix(0.031481481481481485,0,0,0.031481481481481485,32.6462962962963,0)" xlink:href="#R"/><use transform="matrix(0.031481481481481485,0,0,0.031481481481481485,38.9425925925926,0)" xlink:href="#V"/></g><path d="M205 0l-28-72H64L36 0H1l101-248h38L239 0h-34zm-38-99l-47-123c-12 45-31 82-46 123h93" id="ad"/><path d="M96-169c-40 0-48 33-48 73s9 75 48 75c24 0 41-14 43-38l32 2c-6 37-31 61-74 61-59 0-76-41-82-99-10-93 101-131 147-64 4 7 5 14 7 22l-32 3c-4-21-16-35-41-35" id="ae"/><path d="M117-194c89-4 53 116 60 194h-32v-121c0-31-8-49-39-48C34-167 62-67 57 0H25l-1-190h30c1 10-1 24 2 32 11-22 29-35 61-36" id="af"/><g id="j"><use transform="matrix(0.031481481481481485,0,0,0.031481481481481485,0,0)" xlink:href="#ad"/><use transform="matrix(0.031481481481481485,0,0,0.031481481481481485,7.555555555555556,0)" xlink:href="#Y"/><use transform="matrix(0.031481481481481485,0,0,0.031481481481481485,13.851851851851853,0)" xlink:href="#U"/><use transform="matrix(0.031481481481481485,0,0,0.031481481481481485,16.33888888888889,0)" xlink:href="#ae"/><use transform="matrix(0.031481481481481485,0,0,0.031481481481481485,22.005555555555553,0)" xlink:href="#U"/><use transform="matrix(0.031481481481481485,0,0,0.031481481481481485,24.492592592592594,0)" xlink:href="#R"/><use transform="matrix(0.031481481481481485,0,0,0.031481481481481485,30.78888888888889,0)" xlink:href="#af"/><use transform="matrix(0.031481481481481485,0,0,0.031481481481481485,37.08518518518519,0)" xlink:href="#P"/><use transform="matrix(0.031481481481481485,0,0,0.031481481481481485,43.38148148148149,0)" xlink:href="#S"/></g><path d="M127-220V0H93v-220H8v-28h204v28h-85" id="ag"/><path d="M101-234c-31-9-42 10-38 44h38v23H63V0H32v-167H5v-23h27c-7-52 17-82 69-68v24" id="ah"/><g id="k"><use transform="matrix(0.031481481481481485,0,0,0.031481481481481485,0,0)" xlink:href="#ag"/><use transform="matrix(0.031481481481481485,0,0,0.031481481481481485,5.635185185185186,0)" xlink:href="#P"/><use transform="matrix(0.031481481481481485,0,0,0.031481481481481485,11.931481481481484,0)" xlink:href="#S"/><use transform="matrix(0.031481481481481485,0,0,0.031481481481481485,15.67777777777778,0)" xlink:href="#Z"/><use transform="matrix(0.031481481481481485,0,0,0.031481481481481485,21.97407407407408,0)" xlink:href="#ah"/><use transform="matrix(0.031481481481481485,0,0,0.031481481481481485,25.122222222222227,0)" xlink:href="#P"/><use transform="matrix(0.031481481481481485,0,0,0.031481481481481485,31.418518518518525,0)" xlink:href="#V"/></g><path d="M212-179c-10-28-35-45-73-45-59 0-87 40-87 99 0 60 29 101 89 101 43 0 62-24 78-52l27 14C228-24 195 4 139 4 59 4 22-46 18-125c-6-104 99-153 187-111 19 9 31 26 39 46" id="ai"/><path d="M100-194c63 0 86 42 84 106H49c0 40 14 67 53 68 26 1 43-12 49-29l28 8c-11 28-37 45-77 45C44 4 14-33 15-96c1-61 26-98 85-98zm52 81c6-60-76-77-97-28-3 7-6 17-6 28h103zm-74-98c8-23 27-35 38-54h36v5l-58 49H78" id="aj"/><g id="l"><use transform="matrix(0.031481481481481485,0,0,0.031481481481481485,0,0)" xlink:href="#ai"/><use transform="matrix(0.031481481481481485,0,0,0.031481481481481485,8.153703703703705,0)" xlink:href="#S"/><use transform="matrix(0.031481481481481485,0,0,0.031481481481481485,11.900000000000002,0)" xlink:href="#U"/><use transform="matrix(0.031481481481481485,0,0,0.031481481481481485,14.38703703703704,0)" xlink:href="#W"/><use transform="matrix(0.031481481481481485,0,0,0.031481481481481485,17.53518518518519,0)" xlink:href="#aj"/><use transform="matrix(0.031481481481481485,0,0,0.031481481481481485,23.831481481481486,0)" xlink:href="#S"/><use transform="matrix(0.031481481481481485,0,0,0.031481481481481485,27.577777777777783,0)" xlink:href="#U"/><use transform="matrix(0.031481481481481485,0,0,0.031481481481481485,30.06481481481482,0)" xlink:href="#R"/><use transform="matrix(0.031481481481481485,0,0,0.031481481481481485,36.361111111111114,0)" xlink:href="#V"/></g><path d="M96-169c-40 0-48 33-48 73s9 75 48 75c24 0 41-14 43-38l32 2c-6 37-31 61-74 61-59 0-76-41-82-99-10-93 101-131 147-64 4 7 5 14 7 22l-32 3c-4-21-16-35-41-35zm3 187c19-1 33 8 33 26 0 31-30 33-64 32V58c18 2 39 4 41-13 1-15-18-13-34-13L87 0h19" id="ak"/><path d="M141-36C126-15 110 5 73 4 37 3 15-17 15-53c-1-64 63-63 125-63 3-35-9-54-41-54-24 1-41 7-42 31l-33-3c5-37 33-52 76-52 45 0 72 20 72 64v82c-1 20 7 32 28 27v20c-31 9-61-2-59-35zM48-53c0 20 12 33 32 33 41-3 63-29 60-74-43 2-92-5-92 41zm117-205c-3 23-9 48-36 47-26-1-65-44-74 0H39c4-23 8-48 36-47s64 44 74 0h16" id="al"/><g id="m"><use transform="matrix(0.031481481481481485,0,0,0.031481481481481485,0,0)" xlink:href="#ad"/><use transform="matrix(0.031481481481481485,0,0,0.031481481481481485,7.555555555555556,0)" xlink:href="#ae"/><use transform="matrix(0.031481481481481485,0,0,0.031481481481481485,13.222222222222223,0)" xlink:href="#Z"/><use transform="matrix(0.031481481481481485,0,0,0.031481481481481485,19.51851851851852,0)" xlink:href="#U"/><use transform="matrix(0.031481481481481485,0,0,0.031481481481481485,22.005555555555553,0)" xlink:href="#W"/><use transform="matrix(0.031481481481481485,0,0,0.031481481481481485,25.153703703703705,0)" xlink:href="#P"/><use transform="matrix(0.031481481481481485,0,0,0.031481481481481485,31.450000000000003,0)" xlink:href="#ak"/><use transform="matrix(0.031481481481481485,0,0,0.031481481481481485,37.11666666666667,0)" xlink:href="#al"/><use transform="matrix(0.031481481481481485,0,0,0.031481481481481485,43.412962962962965,0)" xlink:href="#R"/></g><path d="M30-248c87 1 191-15 191 75 0 78-77 80-158 76V0H30v-248zm33 125c57 0 124 11 124-50 0-59-68-47-124-48v98" id="am"/><path d="M9 0v-24l116-142H16v-24h144v24L44-24h123V0H9" id="an"/><g id="n"><use transform="matrix(0.031481481481481485,0,0,0.031481481481481485,0,0)" xlink:href="#am"/><use transform="matrix(0.031481481481481485,0,0,0.031481481481481485,7.555555555555556,0)" xlink:href="#S"/><use transform="matrix(0.031481481481481485,0,0,0.031481481481481485,11.301851851851854,0)" xlink:href="#U"/><use transform="matrix(0.031481481481481485,0,0,0.031481481481481485,13.788888888888891,0)" xlink:href="#R"/><use transform="matrix(0.031481481481481485,0,0,0.031481481481481485,20.08518518518519,0)" xlink:href="#S"/><use transform="matrix(0.031481481481481485,0,0,0.031481481481481485,23.831481481481486,0)" xlink:href="#U"/><use transform="matrix(0.031481481481481485,0,0,0.031481481481481485,26.318518518518523,0)" xlink:href="#an"/><use transform="matrix(0.031481481481481485,0,0,0.031481481481481485,31.98518518518519,0)" xlink:href="#P"/><use transform="matrix(0.031481481481481485,0,0,0.031481481481481485,38.281481481481485,0)" xlink:href="#S"/></g><path fill="#333" d="M63-220v92h138v28H63V0H30v-248h175v28H63" id="ao"/><path fill="#333" d="M210-169c-67 3-38 105-44 169h-31v-121c0-29-5-50-35-48C34-165 62-65 56 0H25l-1-190h30c1 10-1 24 2 32 10-44 99-50 107 0 11-21 27-35 58-36 85-2 47 119 55 194h-31v-121c0-29-5-49-35-48" id="ap"/><g id="p"><use transform="matrix(0.02530864197530864,0,0,0.02530864197530864,0,0)" xlink:href="#ao"/><use transform="matrix(0.02530864197530864,0,0,0.02530864197530864,5.542592592592592,0)" xlink:href="#M"/><use transform="matrix(0.02530864197530864,0,0,0.02530864197530864,7.541975308641974,0)" xlink:href="#ap"/></g><g id="q"><use transform="matrix(0.01296296296296296,0,0,0.01296296296296296,0,0)" xlink:href="#C"/><use transform="matrix(0.01296296296296296,0,0,0.01296296296296296,3.1111111111111107,0)" xlink:href="#v"/><use transform="matrix(0.01296296296296296,0,0,0.01296296296296296,5.703703703703702,0)" xlink:href="#D"/><use transform="matrix(0.01296296296296296,0,0,0.01296296296296296,8.037037037037035,0)" xlink:href="#E"/><use transform="matrix(0.01296296296296296,0,0,0.01296296296296296,10.370370370370367,0)" xlink:href="#u"/><use transform="matrix(0.01296296296296296,0,0,0.01296296296296296,11.39444444444444,0)" xlink:href="#x"/><use transform="matrix(0.01296296296296296,0,0,0.01296296296296296,13.987037037037032,0)" xlink:href="#F"/></g><g id="r"><use transform="matrix(0.01296296296296296,0,0,0.01296296296296296,0,0)" xlink:href="#B"/><use transform="matrix(0.01296296296296296,0,0,0.01296296296296296,2.592592592592592,0)" xlink:href="#x"/></g><g id="s"><use transform="matrix(0.01296296296296296,0,0,0.01296296296296296,0,0)" xlink:href="#G"/><use transform="matrix(0.01296296296296296,0,0,0.01296296296296296,3.1111111111111107,0)" xlink:href="#y"/><use transform="matrix(0.01296296296296296,0,0,0.01296296296296296,4.6537037037037035,0)" xlink:href="#x"/><use transform="matrix(0.01296296296296296,0,0,0.01296296296296296,7.246296296296295,0)" xlink:href="#B"/><use transform="matrix(0.01296296296296296,0,0,0.01296296296296296,9.838888888888887,0)" xlink:href="#H"/><use transform="matrix(0.01296296296296296,0,0,0.01296296296296296,12.431481481481478,0)" xlink:href="#I"/><use transform="matrix(0.01296296296296296,0,0,0.01296296296296296,13.727777777777776,0)" xlink:href="#x"/></g></defs></g></svg>