<svg xmlns="http://www.w3.org/2000/svg" xmlns:xlink="http://www.w3.org/1999/xlink" xmlns:lucid="lucid" width="921.12" height="320.08"><g transform="translate(0 0)" lucid:page-tab-id="VjMd39PQffTe"><path d="M0 0h921.12v320.08H0z" fill="#fff"/><path d="M179.62 118.93c0-4.4 3.58-8 8-8h84c4.42 0 8 3.6 8 8v64c0 4.42-3.58 8-8 8h-84c-4.42 0-8-3.58-8-8z" stroke="#333" fill="#fff"/><use xlink:href="#a" transform="matrix(1,0,0,1,179.61821942696446,110.93333333333334) translate(29.604999999999997 29.06666666666667)"/><use xlink:href="#b" transform="matrix(1,0,0,1,179.61821942696446,110.93333333333334) translate(13.187407407407408 42.66666666666667)"/><use xlink:href="#c" transform="matrix(1,0,0,1,179.61821942696446,110.93333333333334) translate(74.22999999999999 42.66666666666667)"/><use xlink:href="#d" transform="matrix(1,0,0,1,179.61821942696446,110.93333333333334) translate(15.454074074074066 56.26666666666667)"/><use xlink:href="#e" transform="matrix(1,0,0,1,179.61821942696446,110.93333333333334) translate(46.242962962962956 56.26666666666667)"/><path d="M80.38 300h-32c-4.42 0-8-3.58-8-8V28c0-4.42 3.58-8 8-8h32z" stroke="#333" fill="#fff"/><path d="M80.38 20H892c4.42 0 8 3.58 8 8v264c0 4.42-3.58 8-8 8H80.38z" stroke="#333" fill="none"/><use xlink:href="#f" transform="matrix(-1.8369701987210297e-16,-1,1,-1.8369701987210297e-16,40.381780573035584,300) translate(46.624999999999986 23.6)"/><use xlink:href="#g" transform="matrix(-1.8369701987210297e-16,-1,1,-1.8369701987210297e-16,40.381780573035584,300) translate(161.475 23.6)"/><use xlink:href="#h" transform="matrix(-1.8369701987210297e-16,-1,1,-1.8369701987210297e-16,40.381780573035584,300) translate(186.47500000000002 23.6)"/><path d="M137.82 150.93c0 5.63-4.37 10.2-9.76 10.2-5.38 0-9.75-4.57-9.75-10.2 0-5.62 4.38-10.18 9.76-10.18 5.4 0 9.76 4.56 9.76 10.18z" stroke="#333" fill="#fff"/><use xlink:href="#i" transform="matrix(1,0,0,1,118.30947967535731,163.11974086438244) translate(-0.8700617283950614 11.822222222222223)"/><path d="M481.3 250.93c0 5.33-4.47 9.65-10 9.65-5.5 0-10-4.32-10-9.65s4.5-9.65 10-9.65c5.53 0 10 4.32 10 9.65z" stroke="#333" stroke-width="5" fill="#fff"/><use xlink:href="#j" transform="matrix(1,0,0,1,461.30873975160716,262.5844290481383) translate(0.6027777777777761 12.266666666666667)"/><path d="M270.17 110.43c0 .14-.1.25-.25.25-.14 0-.25-.1-.25-.25 0-.13.1-.25.25-.25.14 0 .25.12.25.25z" fill="#333"/><path fill="#333"/><path fill="#333"/><path d="M137.82 68.85c0-4.42 3.58-8 8-8h41.54c4.4 0 8 3.58 8 8V84.7c0 4.43-3.6 8-8 8h-41.54c-4.42 0-8-3.57-8-8z" stroke="#000" stroke-opacity="0" fill="#fff" fill-opacity="0"/><use xlink:href="#k" transform="matrix(1,0,0,1,142.81821942696445,65.84583793626547) translate(1.4879629629629676 7.288888888888889)"/><use xlink:href="#l" transform="matrix(1,0,0,1,142.81821942696445,65.84583793626547) translate(36.38858024691358 7.288888888888889)"/><use xlink:href="#m" transform="matrix(1,0,0,1,142.81821942696445,65.84583793626547) translate(8.068209876543213 18.22222222222222)"/><path d="M168.04 40l5.6 6.25v14.6h-14.02V40z" stroke="#333" fill="#fff"/><path d="M168.04 40v6.25h5.6" stroke="#333" fill="none"/><path d="M239.62 68.85c0-4.42 3.58-8 8-8h48.26c4.42 0 8 3.58 8 8v26.8c0 4.4-3.58 8-8 8h-48.26c-4.42 0-8-3.6-8-8z" stroke="#000" stroke-opacity="0" fill="#fff" fill-opacity="0"/><use xlink:href="#k" transform="matrix(1,0,0,1,244.61821942696446,65.84583793626544) translate(4.987962962962968 7.288888888888889)"/><use xlink:href="#n" transform="matrix(1,0,0,1,244.61821942696446,65.84583793626544) translate(39.88858024691358 7.288888888888889)"/><use xlink:href="#o" transform="matrix(1,0,0,1,244.61821942696446,65.84583793626544) translate(15.63024691358025 18.22222222222222)"/><use xlink:href="#p" transform="matrix(1,0,0,1,244.61821942696446,65.84583793626544) translate(12.099691358024694 29.155555555555555)"/><path d="M272.3 40l5.6 6.25v14.6H263.9V40z" stroke="#333" fill="#fff"/><path d="M272.3 40v6.25h5.6" stroke="#333" fill="none"/><path d="M263.38 50.42c0 .56-.45 1-1 1s-1-.44-1-1c0-.55.45-1 1-1s1 .45 1 1zm-4.6 0c0 .56-.45 1-1 1-.56 0-1-.44-1-1 0-.55.44-1 1-1 .55 0 1 .45 1 1zm-4.6 0c0 .56-.46 1-1 1-.56 0-1-.44-1-1 0-.55.44-1 1-1 .54 0 1 .45 1 1zm-4.62 0c0 .56-.44 1-1 1-.55 0-1-.44-1-1 0-.55.45-1 1-1 .56 0 1 .45 1 1zm-3.68.65c0 .55-.45 1-1 1s-1-.45-1-1 .45-1 1-1 1 .45 1 1zm-3.3 1.72c0 .55-.46 1-1 1-.56 0-1-.45-1-1 0-.56.44-1 1-1 .54 0 1 .44 1 1zm-2.65 2.63c0 .55-.44 1-1 1-.55 0-1-.45-1-1s.45-1 1-1c.56 0 1 .45 1 1zm-1.72 3.3c0 .56-.44 1-1 1-.54 0-1-.44-1-1 0-.55.46-1 1-1 .56 0 1 .45 1 1zm-.64 3.7c0 .55-.44 1-1 1-.55 0-1-.45-1-1 0-.56.45-1 1-1 .56 0 1 .44 1 1zm0 4.2c0 .56-.44 1-1 1-.55 0-1-.44-1-1 0-.54.45-1 1-1 .56 0 1 .46 1 1zm0 4.22c0 .56-.44 1-1 1-.55 0-1-.44-1-1 0-.55.45-1 1-1 .56 0 1 .45 1 1zm0 4.22c0 .55-.44 1-1 1-.55 0-1-.45-1-1s.45-1 1-1c.56 0 1 .45 1 1zm0 4.2c0 .57-.44 1-1 1-.55 0-1-.43-1-1 0-.54.45-1 1-1 .56 0 1 .46 1 1zm0 4.23c0 .55-.44 1-1 1-.55 0-1-.45-1-1s.45-1 1-1c.56 0 1 .45 1 1zm0 4.22c0 .55-.44 1-1 1-.55 0-1-.45-1-1 0-.56.45-1 1-1 .56 0 1 .44 1 1z" fill="#333"/><path d="M263.38 51.42h-1.02v-2h1.02z" fill="#333"/><path d="M236.56 107.2l-4.63-14.27h9.27z" stroke="#333" stroke-width="2" fill="#fff"/><path d="M176.15 50.42c0 .56-.45 1-1 1s-1-.44-1-1c0-.55.45-1 1-1s1 .45 1 1zm4.1 0c0 .56-.44 1-1 1-.54 0-1-.44-1-1 0-.55.46-1 1-1 .56 0 1 .45 1 1zm4.13 0c0 .56-.45 1-1 1-.56 0-1-.44-1-1 0-.55.44-1 1-1 .55 0 1 .45 1 1zm4.1 0c0 .56-.44 1-1 1-.54 0-1-.44-1-1 0-.55.46-1 1-1 .56 0 1 .45 1 1zm4.12 0c0 .56-.45 1-1 1s-1-.44-1-1c0-.55.45-1 1-1s1 .45 1 1zm4.12 0c0 .56-.45 1-1 1-.56 0-1-.44-1-1 0-.55.44-1 1-1 .55 0 1 .45 1 1zm4.1 0c0 .56-.44 1-1 1-.54 0-1-.44-1-1 0-.55.46-1 1-1 .56 0 1 .45 1 1zm4.12 0c0 .56-.45 1-1 1s-1-.44-1-1c0-.55.45-1 1-1s1 .45 1 1zm3.7.65c0 .55-.46 1-1 1-.56 0-1-.45-1-1s.44-1 1-1c.54 0 1 .45 1 1zm3.3 1.72c0 .55-.45 1-1 1-.56 0-1-.45-1-1 0-.56.44-1 1-1 .55 0 1 .44 1 1zm2.63 2.63c0 .55-.45 1-1 1s-1-.45-1-1 .45-1 1-1 1 .45 1 1zm1.73 3.3c0 .56-.45 1-1 1-.56 0-1-.44-1-1 0-.55.44-1 1-1 .55 0 1 .45 1 1zm.64 3.7c0 .55-.45 1-1 1s-1-.45-1-1c0-.56.45-1 1-1s1 .44 1 1zm0 4.2c0 .56-.45 1-1 1s-1-.44-1-1c0-.54.45-1 1-1s1 .46 1 1zm0 4.22c0 .56-.45 1-1 1s-1-.44-1-1c0-.55.45-1 1-1s1 .45 1 1zm0 4.22c0 .55-.45 1-1 1s-1-.45-1-1 .45-1 1-1 1 .45 1 1zm0 4.2c0 .57-.45 1-1 1s-1-.43-1-1c0-.54.45-1 1-1s1 .46 1 1zm0 4.23c0 .55-.45 1-1 1s-1-.45-1-1 .45-1 1-1 1 .45 1 1zm0 4.22c0 .55-.45 1-1 1s-1-.45-1-1c0-.56.45-1 1-1s1 .44 1 1zm0 4.2c0 .56-.45 1-1 1s-1-.44-1-1c0-.54.45-1 1-1s1 .46 1 1z" fill="#333"/><path d="M175.17 51.42h-1.02v-2h1.02z" fill="#333"/><path d="M215.94 107.2l-4.63-14.27h9.28z" stroke="#333" stroke-width="2" fill="#fff"/><path d="M339.62 150.3l20-20 20 20-20 20z" stroke="#333" fill="#fff"/><path d="M351.62 142.3l16 16m-16 0l16-16M280.62 150.93h42.53" stroke="#333" fill="none"/><path d="M280.63 151.43h-.5v-1h.5z" fill="#333"/><path d="M337.92 150.93l-14.27 4.64v-9.27z" stroke="#333" fill="#333"/><path d="M327.5 100.7c0-4.4 3.57-8 8-8h48.25c4.42 0 8 3.6 8 8v26.8c0 4.43-3.58 8-8 8H335.5c-4.43 0-8-3.57-8-8z" stroke="#000" stroke-opacity="0" fill="#fff" fill-opacity="0"/><use xlink:href="#q" transform="matrix(1,0,0,1,332.48695330785,97.71250460293211) translate(13.84598765432099 7.288888888888889)"/><use xlink:href="#r" transform="matrix(1,0,0,1,332.48695330785,97.71250460293211) translate(12.593209876543211 18.22222222222222)"/><use xlink:href="#s" transform="matrix(1,0,0,1,332.48695330785,97.71250460293211) translate(3.975617283950619 29.155555555555555)"/><path d="M689.62 117.53c0-4.4 3.58-8 8-8h64c4.42 0 8 3.6 8 8v26.8c0 4.42-3.58 8-8 8h-64c-4.42 0-8-3.58-8-8z" stroke="#333" fill="#fff"/><use xlink:href="#t" transform="matrix(1,0,0,1,689.6182194269645,109.53333333333333) translate(19.27444444444444 14.076666666666668)"/><use xlink:href="#u" transform="matrix(1,0,0,1,689.6182194269645,109.53333333333333) translate(25.240185185185183 27.67666666666667)"/><path d="M744.5 74.73c0-4.4 3.58-8 8-8h48.27c4.4 0 8 3.6 8 8v26.8c0 4.42-3.6 8-8 8H752.5c-4.42 0-8-3.58-8-8z" stroke="#000" stroke-opacity="0" fill="#fff" fill-opacity="0"/><use xlink:href="#k" transform="matrix(1,0,0,1,749.5024750861679,71.73333333333332) translate(4.987962962962968 13.476388888888888)"/><use xlink:href="#n" transform="matrix(1,0,0,1,749.5024750861679,71.73333333333332) translate(39.88858024691358 13.476388888888888)"/><use xlink:href="#o" transform="matrix(1,0,0,1,749.5024750861679,71.73333333333332) translate(15.63024691358025 24.40972222222222)"/><path d="M778.04 50.93l5.6 6.26v14.58h-14.02V50.93z" stroke="#333" fill="#fff"/><path d="M778.04 50.93v6.26h5.6" stroke="#333" fill="none"/><path d="M730.62 108.03c0 .56-.45 1-1 1s-1-.44-1-1c0-.55.45-1 1-1s1 .45 1 1zm0-3.85c0 .55-.45 1-1 1s-1-.45-1-1 .45-1 1-1 1 .45 1 1zm0-3.85c0 .55-.45 1-1 1s-1-.45-1-1 .45-1 1-1 1 .45 1 1zm0-3.86c0 .56-.45 1-1 1s-1-.44-1-1c0-.55.45-1 1-1s1 .45 1 1zm0-3.85c0 .55-.45 1-1 1s-1-.45-1-1 .45-1 1-1 1 .45 1 1zm0-3.85c0 .55-.45 1-1 1s-1-.45-1-1 .45-1 1-1 1 .45 1 1zm0-3.85c0 .55-.45 1-1 1s-1-.45-1-1c0-.56.45-1 1-1s1 .44 1 1zm0-3.86c0 .55-.45 1-1 1s-1-.45-1-1 .45-1 1-1 1 .45 1 1zm0-3.85c0 .56-.45 1-1 1s-1-.44-1-1c0-.54.45-1 1-1s1 .46 1 1zm0-3.84c0 .55-.45 1-1 1s-1-.45-1-1c0-.56.45-1 1-1s1 .44 1 1zm.64-3.7c0 .56-.44 1-1 1-.55 0-1-.44-1-1 0-.54.45-1 1-1 .56 0 1 .46 1 1zm1.73-3.3c0 .55-.46 1-1 1-.56 0-1-.45-1-1s.44-1 1-1c.54 0 1 .45 1 1zm2.62-2.63c0 .55-.44 1-1 1-.55 0-1-.45-1-1 0-.56.45-1 1-1 .56 0 1 .44 1 1zm3.3-1.73c0 .55-.44 1-1 1-.54 0-1-.45-1-1s.46-1 1-1c.56 0 1 .45 1 1zm3.7-.64c0 .55-.45 1-1 1s-1-.45-1-1c0-.56.45-1 1-1s1 .44 1 1zm3.78 0c0 .55-.44 1-1 1-.55 0-1-.45-1-1 0-.56.45-1 1-1 .56 0 1 .44 1 1zm3.8 0c0 .55-.46 1-1 1-.56 0-1-.45-1-1 0-.56.44-1 1-1 .54 0 1 .44 1 1zm3.78 0c0 .55-.45 1-1 1-.56 0-1-.45-1-1 0-.56.44-1 1-1 .55 0 1 .44 1 1zm3.78 0c0 .55-.45 1-1 1s-1-.45-1-1c0-.56.45-1 1-1s1 .44 1 1zm3.8 0c0 .55-.46 1-1 1-.57 0-1-.45-1-1 0-.56.43-1 1-1 .54 0 1 .44 1 1zm3.77 0c0 .55-.45 1-1 1s-1-.45-1-1c0-.56.45-1 1-1s1 .44 1 1z" fill="#333"/><path d="M730.62 109.03h-2V108h2zM769.12 62.36h-1.03v-2h1.02z" fill="#333"/><path d="M321.3 238.93c0-4.4 3.6-8 8-8h64c4.43 0 8 3.6 8 8v26.8c0 4.42-3.57 8-8 8h-64c-4.4 0-8-3.58-8-8z" stroke="#333" fill="#fff"/><use xlink:href="#v" transform="matrix(1,0,0,1,321.30873975160716,230.93333333333325) translate(22.123518518518523 14.076666666666668)"/><use xlink:href="#w" transform="matrix(1,0,0,1,321.30873975160716,230.93333333333325) translate(14.536481481481482 27.67666666666667)"/><path d="M207.38 238.93c0-4.4 3.58-8 8-8h64c4.42 0 8 3.6 8 8v26.8c0 4.42-3.58 8-8 8h-64c-4.42 0-8-3.58-8-8z" stroke="#333" fill="#fff"/><use xlink:href="#x" transform="matrix(1,0,0,1,207.37763265659214,230.93333333333325) translate(15.181851851851851 14.076666666666668)"/><use xlink:href="#y" transform="matrix(1,0,0,1,207.37763265659214,230.93333333333325) translate(15.78 27.67666666666667)"/><use xlink:href="#z" transform="matrix(1,0,0,1,207.37763265659214,230.93333333333325) translate(30.891111111111112 27.67666666666667)"/><path d="M430 48c0-4.42 3.58-8 8-8h82.4c4.4 0 8 3.58 8 8v64c0 4.42-3.6 8-8 8H438c-4.42 0-8-3.58-8-8z" stroke="#333" fill="#fff"/><use xlink:href="#A" transform="matrix(1,0,0,1,430.0000000000001,39.99999999999998) translate(25.441111111111113 21.72291666666667)"/><use xlink:href="#b" transform="matrix(1,0,0,1,430.0000000000001,39.99999999999998) translate(12.187407407407408 35.32291666666667)"/><use xlink:href="#B" transform="matrix(1,0,0,1,430.0000000000001,39.99999999999998) translate(73.22999999999999 35.32291666666667)"/><use xlink:href="#C" transform="matrix(1,0,0,1,430.0000000000001,39.99999999999998) translate(21.63185185185185 48.92291666666667)"/><use xlink:href="#D" transform="matrix(1,0,0,1,430.0000000000001,39.99999999999998) translate(63.785555555555554 48.92291666666667)"/><use xlink:href="#E" transform="matrix(1,0,0,1,430.0000000000001,39.99999999999998) translate(29.817037037037032 62.522916666666674)"/><path d="M380.83 150.3h12.08c6.64 0 12-5.36 12-12V88.2c0-4.53 3.7-8.2 8.22-8.2" stroke="#333" fill="none"/><path d="M380.84 150.8h-1l.5-.5-.5-.5h1z" fill="#333"/><path d="M427.88 80l-14.26 4.64v-9.28z" stroke="#333" fill="#333"/><path d="M599.62 130.93l20-20 20 20-20 20z" stroke="#333" fill="#fff"/><path d="M359.62 171.52v7.4c0 6.64 5.37 12 12 12h236c6.63 0 12-5.36 12-12v-10.9" stroke="#333" fill="none"/><path d="M359.62 171.02l.5-.5v1h-1v-1z" fill="#333"/><path d="M619.62 153.26l4.63 14.26h-9.27z" stroke="#333" fill="#333"/><path d="M529.4 80h78.22c6.63 0 12 5.37 12 12v1.84" stroke="#333" fill="none"/><path d="M529.4 80.5h-.5v-1h.5z" fill="#333"/><path d="M619.62 108.6l-4.64-14.26h9.27z" stroke="#333" fill="#333"/><path d="M640.83 130.93h31.9" stroke="#333" fill="none"/><path d="M640.84 131.43h-1l.5-.5-.5-.5h1z" fill="#333"/><path d="M687.5 130.93l-14.27 4.64v-9.27z" stroke="#333" fill="#333"/><path d="M357.87 128c0-4.42 3.58-8 8-8h48.26c4.42 0 8 3.58 8 8v26.8c0 4.42-3.58 8-8 8h-48.26c-4.42 0-8-3.58-8-8z" stroke="#000" stroke-opacity="0" fill="#fff" fill-opacity="0"/><use xlink:href="#F" transform="matrix(1,0,0,1,362.86873388088554,125.00000000000003) translate(19.41388888888889 17.601388888888888)"/><path d="M354.95 170.8c0-4.42 3.58-8 8-8h48.26c4.43 0 8 3.58 8 8v26.8c0 4.42-3.57 8-8 8h-48.25c-4.42 0-8-3.58-8-8z" stroke="#000" stroke-opacity="0" fill="#fff" fill-opacity="0"/><use xlink:href="#G" transform="matrix(1,0,0,1,359.94714663574365,167.80000000000004) translate(17.401851851851852 17.601388888888888)"/><path d="M859.62 129.53c0 11.82-8.96 21.4-20 21.4-11.05 0-20-9.58-20-21.4 0-11.82 8.95-21.4 20-21.4 11.04 0 20 9.58 20 21.4z" stroke="#333" fill="#333"/><path d="M827.62 124.6h16.8v-4.9l7.2 9.83-7.2 9.84v-4.92h-16.8z" stroke="#333" fill="#fff"/><path d="M770.62 130.93h32.23" stroke="#333" fill="none"/><path d="M770.63 131.43h-.5v-1h.5z" fill="#333"/><path d="M817.62 130.93l-14.27 4.64v-9.27z" stroke="#333" fill="#333"/><path d="M160 252.33c0 11.82-8.95 21.4-20 21.4s-20-9.58-20-21.4c0-11.82 8.95-21.4 20-21.4s20 9.58 20 21.4z" stroke="#333" fill="#fff"/><path d="M128 247.4h16.8v-4.9l7.2 9.83-7.2 9.84v-4.92H128z" stroke="#333" fill="#fff"/><path d="M402.3 252.33h40.32" stroke="#333" fill="none"/><path d="M402.32 252.83h-.5v-1h.5z" fill="#333"/><path d="M457.4 252.33l-14.28 4.64v-9.27z" stroke="#333" fill="#333"/><path d="M288.38 252.33h16.04" stroke="#333" fill="none"/><path d="M288.4 252.83h-.52v-1h.5z" fill="#333"/><path d="M319.2 252.33l-14.28 4.64v-9.27z" stroke="#333" fill="#333"/><path d="M161 252.33h29.5" stroke="#333" fill="none"/><path d="M161 252.83h-.55l.05-.5-.04-.5h.55z" fill="#333"/><path d="M205.26 252.33L191 256.97v-9.27z" stroke="#333" fill="#333"/><path d="M560 48c0-4.42 3.58-8 8-8h68.26c4.42 0 8 3.58 8 8v26.8c0 4.42-3.58 8-8 8H568c-4.42 0-8-3.58-8-8z" stroke="#000" stroke-opacity="0" fill="#fff" fill-opacity="0"/><g><use xlink:href="#k" transform="matrix(1,0,0,1,565,45) translate(14.987962962962968 7.288888888888889)"/><use xlink:href="#l" transform="matrix(1,0,0,1,565,45) translate(49.88858024691358 7.288888888888889)"/><use xlink:href="#H" transform="matrix(1,0,0,1,565,45) translate(21.568209876543214 18.22222222222222)"/><use xlink:href="#I" transform="matrix(1,0,0,1,565,45) translate(16.26604938271605 29.155555555555555)"/></g><path d="M572.6 41.9l5.6 6.26v14.6H564.2V41.9z" stroke="#333" fill="#fff"/><path d="M572.6 41.9v6.26h5.6" stroke="#333" fill="none"/><path d="M563.68 52.33c0 .56-.45 1-1 1-.56 0-1-.44-1-1 0-.55.44-1 1-1 .55 0 1 .45 1 1zm-3.87 0c0 .56-.44 1-1 1-.54 0-1-.44-1-1 0-.55.46-1 1-1 .56 0 1 .45 1 1zm-3.85 0c0 .56-.45 1-1 1s-1-.44-1-1c0-.55.45-1 1-1s1 .45 1 1zm-3.87 0c0 .56-.44 1-1 1-.55 0-1-.44-1-1 0-.55.45-1 1-1 .56 0 1 .45 1 1zm-3.27 1.5c0 .57-.44 1-1 1-.54 0-1-.43-1-1 0-.54.46-1 1-1 .56 0 1 .46 1 1zm-1.52 3.3c0 .56-.44 1-1 1-.55 0-1-.44-1-1 0-.55.45-1 1-1 .56 0 1 .45 1 1zm-1.5 3.28c0 .56-.45 1-1 1-.56 0-1-.44-1-1 0-.54.44-1 1-1 .55 0 1 .46 1 1zm-3.3 1.53c0 .56-.44 1-1 1-.55 0-1-.44-1-1 0-.55.45-1 1-1 .56 0 1 .45 1 1zm-3.86 0c0 .56-.45 1-1 1s-1-.44-1-1c0-.55.45-1 1-1s1 .45 1 1zm-3.86 0c0 .56-.45 1-1 1-.56 0-1-.44-1-1 0-.55.44-1 1-1 .55 0 1 .45 1 1z" fill="#333"/><path d="M563.68 53.33h-1.03v-2h1.03zM529.92 62.93h-1.03v-2h1.02zM247.63 230.18c0 .14-.1.25-.25.25-.14 0-.25-.1-.25-.25 0-.13.1-.25.25-.25.14 0 .25.12.25.25zm0-1c0 .14-.1.25-.25.25-.14 0-.25-.1-.25-.25 0-.13.1-.25.25-.25.14 0 .25.12.25.25zm0-1c0 .14-.1.25-.25.25-.14 0-.25-.1-.25-.25 0-.13.1-.25.25-.25.14 0 .25.12.25.25zm0-1c0 .14-.1.25-.25.25-.14 0-.25-.1-.25-.25 0-.13.1-.25.25-.25.14 0 .25.12.25.25zm0-1c0 .14-.1.25-.25.25-.14 0-.25-.1-.25-.25 0-.13.1-.25.25-.25.14 0 .25.12.25.25zm0-1c0 .14-.1.25-.25.25-.14 0-.25-.1-.25-.25 0-.13.1-.25.25-.25.14 0 .25.12.25.25zm0-1c0 .14-.1.25-.25.25-.14 0-.25-.1-.25-.25 0-.13.1-.25.25-.25.14 0 .25.12.25.25zm0-1c0 .14-.1.25-.25.25-.14 0-.25-.1-.25-.25 0-.13.1-.25.25-.25.14 0 .25.12.25.25zm0-1c0 .14-.1.25-.25.25-.14 0-.25-.1-.25-.25 0-.13.1-.25.25-.25.14 0 .25.12.25.25zm0-1c0 .14-.1.25-.25.25-.14 0-.25-.1-.25-.25 0-.13.1-.25.25-.25.14 0 .25.12.25.25zm0-1c0 .14-.1.25-.25.25-.14 0-.25-.1-.25-.25 0-.13.1-.25.25-.25.14 0 .25.12.25.25zm0-1c0 .14-.1.25-.25.25-.14 0-.25-.1-.25-.25 0-.13.1-.25.25-.25.14 0 .25.12.25.25zm0-1c0 .14-.1.25-.25.25-.14 0-.25-.1-.25-.25 0-.13.1-.25.25-.25.14 0 .25.12.25.25zm0-1c0 .14-.1.25-.25.25-.14 0-.25-.1-.25-.25 0-.13.1-.25.25-.25.14 0 .25.12.25.25zm0-1c0 .14-.1.25-.25.25-.14 0-.25-.1-.25-.25 0-.13.1-.25.25-.25.14 0 .25.12.25.25zm0-1c0 .14-.1.25-.25.25-.14 0-.25-.1-.25-.25 0-.13.1-.25.25-.25.14 0 .25.12.25.25zm0-1c0 .14-.1.25-.25.25-.14 0-.25-.1-.25-.25 0-.13.1-.25.25-.25.14 0 .25.12.25.25zm0-1c0 .14-.1.25-.25.25-.14 0-.25-.1-.25-.25 0-.13.1-.25.25-.25.14 0 .25.12.25.25zm0-1c0 .14-.1.25-.25.25-.14 0-.25-.1-.25-.25 0-.13.1-.25.25-.25.14 0 .25.12.25.25zm0-1c0 .14-.1.25-.25.25-.14 0-.25-.1-.25-.25 0-.13.1-.25.25-.25.14 0 .25.12.25.25zm0-1c0 .14-.1.25-.25.25-.14 0-.25-.1-.25-.25 0-.13.1-.25.25-.25.14 0 .25.12.25.25zm0-1c0 .14-.1.25-.25.25-.14 0-.25-.1-.25-.25 0-.13.1-.25.25-.25.14 0 .25.12.25.25zm0-1c0 .14-.1.25-.25.25-.14 0-.25-.1-.25-.25 0-.13.1-.25.25-.25.14 0 .25.12.25.25zm0-1c0 .14-.1.25-.25.25-.14 0-.25-.1-.25-.25 0-.13.1-.25.25-.25.14 0 .25.12.25.25zm0-1c0 .14-.1.25-.25.25-.14 0-.25-.1-.25-.25 0-.13.1-.25.25-.25.14 0 .25.12.25.25zm0-1c0 .14-.1.25-.25.25-.14 0-.25-.1-.25-.25 0-.13.1-.25.25-.25.14 0 .25.12.25.25zm0-1c0 .14-.1.25-.25.25-.14 0-.25-.1-.25-.25 0-.13.1-.25.25-.25.14 0 .25.12.25.25zm0-1c0 .14-.1.25-.25.25-.14 0-.25-.1-.25-.25 0-.13.1-.25.25-.25.14 0 .25.12.25.25zm0-1c0 .14-.1.25-.25.25-.14 0-.25-.1-.25-.25 0-.13.1-.25.25-.25.14 0 .25.12.25.25zm0-1c0 .14-.1.25-.25.25-.14 0-.25-.1-.25-.25 0-.13.1-.25.25-.25.14 0 .25.12.25.25zm0-1c0 .14-.1.25-.25.25-.14 0-.25-.1-.25-.25 0-.13.1-.25.25-.25.14 0 .25.12.25.25zm0-1c0 .14-.1.25-.25.25-.14 0-.25-.1-.25-.25 0-.13.1-.25.25-.25.14 0 .25.12.25.25zm0-1c0 .14-.1.25-.25.25-.14 0-.25-.1-.25-.25 0-.13.1-.25.25-.25.14 0 .25.12.25.25zm0-1c0 .14-.1.25-.25.25-.14 0-.25-.1-.25-.25 0-.13.1-.25.25-.25.14 0 .25.12.25.25zm0-1c0 .14-.1.25-.25.25-.14 0-.25-.1-.25-.25 0-.13.1-.25.25-.25.14 0 .25.12.25.25zm0-1c0 .14-.1.25-.25.25-.14 0-.25-.1-.25-.25 0-.13.1-.25.25-.25.14 0 .25.12.25.25zm0-1c0 .14-.1.25-.25.25-.14 0-.25-.1-.25-.25 0-.13.1-.25.25-.25.14 0 .25.12.25.25zm0-1c0 .14-.1.25-.25.25-.14 0-.25-.1-.25-.25 0-.13.1-.25.25-.25.14 0 .25.12.25.25zm0-1c0 .14-.1.25-.25.25-.14 0-.25-.1-.25-.25 0-.13.1-.25.25-.25.14 0 .25.12.25.25zm0-1c0 .14-.1.25-.25.25-.14 0-.25-.1-.25-.25 0-.13.1-.25.25-.25.14 0 .25.12.25.25zm0-1c0 .14-.1.25-.25.25-.14 0-.25-.1-.25-.25 0-.13.1-.25.25-.25.14 0 .25.12.25.25zm0-1c0 .14-.1.25-.25.25-.14 0-.25-.1-.25-.25 0-.13.1-.25.25-.25.14 0 .25.12.25.25zm0-1c0 .14-.1.25-.25.25-.14 0-.25-.1-.25-.25 0-.13.1-.25.25-.25.14 0 .25.12.25.25zm0-1c0 .14-.1.25-.25.25-.14 0-.25-.1-.25-.25 0-.13.1-.25.25-.25.14 0 .25.12.25.25zm0-1c0 .14-.1.25-.25.25-.14 0-.25-.1-.25-.25 0-.13.1-.25.25-.25.14 0 .25.12.25.25zm0-1c0 .14-.1.25-.25.25-.14 0-.25-.1-.25-.25 0-.13.1-.25.25-.25.14 0 .25.12.25.25zm0-1c0 .14-.1.25-.25.25-.14 0-.25-.1-.25-.25 0-.13.1-.25.25-.25.14 0 .25.12.25.25zm0-1c0 .14-.1.25-.25.25-.14 0-.25-.1-.25-.25 0-.13.1-.25.25-.25.14 0 .25.12.25.25zm0-1c0 .14-.1.25-.25.25-.14 0-.25-.1-.25-.25 0-.13.1-.25.25-.25.14 0 .25.12.25.25zm0-1c0 .14-.1.25-.25.25-.14 0-.25-.1-.25-.25 0-.13.1-.25.25-.25.14 0 .25.12.25.25zm0-1c0 .14-.1.25-.25.25-.14 0-.25-.1-.25-.25 0-.13.1-.25.25-.25.14 0 .25.12.25.25zm0-1c0 .14-.1.25-.25.25-.14 0-.25-.1-.25-.25 0-.13.1-.25.25-.25.14 0 .25.12.25.25zm0-1c0 .14-.1.25-.25.25-.14 0-.25-.1-.25-.25 0-.13.1-.25.25-.25.14 0 .25.12.25.25zm0-1c0 .14-.1.25-.25.25-.14 0-.25-.1-.25-.25 0-.13.1-.25.25-.25.14 0 .25.12.25.25zm0-1c0 .14-.1.25-.25.25-.14 0-.25-.1-.25-.25 0-.13.1-.25.25-.25.14 0 .25.12.25.25zm0-1c0 .14-.1.25-.25.25-.14 0-.25-.1-.25-.25 0-.13.1-.25.25-.25.14 0 .25.12.25.25zm0-1c0 .14-.1.25-.25.25-.14 0-.25-.1-.25-.25 0-.13.1-.25.25-.25.14 0 .25.12.25.25zm0-1c0 .14-.1.25-.25.25-.14 0-.25-.1-.25-.25 0-.13.1-.25.25-.25.14 0 .25.12.25.25zm0-1c0 .14-.1.25-.25.25-.14 0-.25-.1-.25-.25 0-.13.1-.25.25-.25.14 0 .25.12.25.25zm0-1c0 .14-.1.25-.25.25-.14 0-.25-.1-.25-.25 0-.13.1-.25.25-.25.14 0 .25.12.25.25zm0-1c0 .14-.1.25-.25.25-.14 0-.25-.1-.25-.25 0-.13.1-.25.25-.25.14 0 .25.12.25.25zm0-1c0 .14-.1.25-.25.25-.14 0-.25-.1-.25-.25 0-.13.1-.25.25-.25.14 0 .25.12.25.25zm0-1c0 .14-.1.25-.25.25-.14 0-.25-.1-.25-.25 0-.13.1-.25.25-.25.14 0 .25.12.25.25zm0-1c0 .14-.1.25-.25.25-.14 0-.25-.1-.25-.25 0-.13.1-.25.25-.25.14 0 .25.12.25.25zm0-1c0 .14-.1.25-.25.25-.14 0-.25-.1-.25-.25 0-.13.1-.25.25-.25.14 0 .25.12.25.25zm0-1c0 .14-.1.25-.25.25-.14 0-.25-.1-.25-.25 0-.13.1-.25.25-.25.14 0 .25.12.25.25zm0-1c0 .14-.1.25-.25.25-.14 0-.25-.1-.25-.25 0-.13.1-.25.25-.25.14 0 .25.12.25.25zm0-1c0 .14-.1.25-.25.25-.14 0-.25-.1-.25-.25 0-.13.1-.25.25-.25.14 0 .25.12.25.25zm0-1c0 .14-.1.25-.25.25-.14 0-.25-.1-.25-.25 0-.13.1-.25.25-.25.14 0 .25.12.25.25zm0-1c0 .14-.1.25-.25.25-.14 0-.25-.1-.25-.25 0-.13.1-.25.25-.25.14 0 .25.12.25.25zm0-1c0 .14-.1.25-.25.25-.14 0-.25-.1-.25-.25 0-.13.1-.25.25-.25.14 0 .25.12.25.25zm0-1c0 .14-.1.25-.25.25-.14 0-.25-.1-.25-.25 0-.13.1-.25.25-.25.14 0 .25.12.25.25zm0-1c0 .14-.1.25-.25.25-.14 0-.25-.1-.25-.25 0-.13.1-.25.25-.25.14 0 .25.12.25.25zm0-1c0 .14-.1.25-.25.25-.14 0-.25-.1-.25-.25 0-.13.1-.25.25-.25.14 0 .25.12.25.25zm0-1c0 .14-.1.25-.25.25-.14 0-.25-.1-.25-.25 0-.13.1-.25.25-.25.14 0 .25.12.25.25zm0-1c0 .14-.1.25-.25.25-.14 0-.25-.1-.25-.25 0-.13.1-.25.25-.25.14 0 .25.12.25.25zm0-1c0 .14-.1.25-.25.25-.14 0-.25-.1-.25-.25 0-.13.1-.25.25-.25.14 0 .25.12.25.25zm0-1c0 .14-.1.25-.25.25-.14 0-.25-.1-.25-.25 0-.13.1-.25.25-.25.14 0 .25.12.25.25zm0-1c0 .14-.1.25-.25.25-.14 0-.25-.1-.25-.25 0-.13.1-.25.25-.25.14 0 .25.12.25.25z" fill="#333"/><path d="M247.63 230.43h-.5v-.25h.5z" fill="#333"/><path d="M247.38 151.2v-.27" stroke="#333" stroke-width=".5" fill="none"/><defs><path d="M137 0h-34L2-248h35l83 218 83-218h36" id="J"/><path d="M100-194c63 0 86 42 84 106H49c0 40 14 67 53 68 26 1 43-12 49-29l28 8c-11 28-37 45-77 45C44 4 14-33 15-96c1-61 26-98 85-98zm52 81c6-60-76-77-97-28-3 7-6 17-6 28h103" id="K"/><path d="M114-163C36-179 61-72 57 0H25l-1-190h30c1 12-1 29 2 39 6-27 23-49 58-41v29" id="L"/><path d="M24-231v-30h32v30H24zM24 0v-190h32V0H24" id="M"/><path d="M101-234c-31-9-42 10-38 44h38v23H63V0H32v-167H5v-23h27c-7-52 17-82 69-68v24" id="N"/><path d="M96-169c-40 0-48 33-48 73s9 75 48 75c24 0 41-14 43-38l32 2c-6 37-31 61-74 61-59 0-76-41-82-99-10-93 101-131 147-64 4 7 5 14 7 22l-32 3c-4-21-16-35-41-35" id="O"/><path d="M141-36C126-15 110 5 73 4 37 3 15-17 15-53c-1-64 63-63 125-63 3-35-9-54-41-54-24 1-41 7-42 31l-33-3c5-37 33-52 76-52 45 0 72 20 72 64v82c-1 20 7 32 28 27v20c-31 9-61-2-59-35zM48-53c0 20 12 33 32 33 41-3 63-29 60-74-43 2-92-5-92 41" id="P"/><g id="a"><use transform="matrix(0.031481481481481485,0,0,0.031481481481481485,0,0)" xlink:href="#J"/><use transform="matrix(0.031481481481481485,0,0,0.031481481481481485,6.9259259259259265,0)" xlink:href="#K"/><use transform="matrix(0.031481481481481485,0,0,0.031481481481481485,13.222222222222223,0)" xlink:href="#L"/><use transform="matrix(0.031481481481481485,0,0,0.031481481481481485,16.968518518518522,0)" xlink:href="#M"/><use transform="matrix(0.031481481481481485,0,0,0.031481481481481485,19.45555555555556,0)" xlink:href="#N"/><use transform="matrix(0.031481481481481485,0,0,0.031481481481481485,22.603703703703708,0)" xlink:href="#M"/><use transform="matrix(0.031481481481481485,0,0,0.031481481481481485,25.090740740740745,0)" xlink:href="#O"/><use transform="matrix(0.031481481481481485,0,0,0.031481481481481485,30.757407407407413,0)" xlink:href="#P"/><use transform="matrix(0.031481481481481485,0,0,0.031481481481481485,37.05370370370371,0)" xlink:href="#L"/></g><path d="M115-194c55 1 70 41 70 98S169 2 115 4C84 4 66-9 55-30l1 105H24l-1-265h31l2 30c10-21 28-34 59-34zm-8 174c40 0 45-34 45-75s-6-73-45-74c-42 0-51 32-51 76 0 43 10 73 51 73" id="Q"/><path d="M117-194c89-4 53 116 60 194h-32v-121c0-31-8-49-39-48C34-167 62-67 57 0H25l-1-190h30c1 10-1 24 2 32 11-22 29-35 61-36" id="R"/><path d="M85-194c31 0 48 13 60 33l-1-100h32l1 261h-30c-2-10 0-23-3-31C134-8 116 4 85 4 32 4 16-35 15-94c0-66 23-100 70-100zm9 24c-40 0-46 34-46 75 0 40 6 74 45 74 42 0 51-32 51-76 0-42-9-74-50-73" id="S"/><path d="M100-194c63 0 86 42 84 106H49c0 40 14 67 53 68 26 1 43-12 49-29l28 8c-11 28-37 45-77 45C44 4 14-33 15-96c1-61 26-98 85-98zm52 81c6-60-76-77-97-28-3 7-6 17-6 28h103zm-32-149c12 18 30 30 39 51-31 2-38-20-57-30-20 10-27 32-59 30 9-22 29-33 41-51h36" id="T"/><path d="M135-143c-3-34-86-38-87 0 15 53 115 12 119 90S17 21 10-45l28-5c4 36 97 45 98 0-10-56-113-15-118-90-4-57 82-63 122-42 12 7 21 19 24 35" id="U"/><g id="b"><use transform="matrix(0.031481481481481485,0,0,0.031481481481481485,0,0)" xlink:href="#Q"/><use transform="matrix(0.031481481481481485,0,0,0.031481481481481485,6.296296296296297,0)" xlink:href="#K"/><use transform="matrix(0.031481481481481485,0,0,0.031481481481481485,12.592592592592593,0)" xlink:href="#R"/><use transform="matrix(0.031481481481481485,0,0,0.031481481481481485,18.88888888888889,0)" xlink:href="#S"/><use transform="matrix(0.031481481481481485,0,0,0.031481481481481485,25.185185185185187,0)" xlink:href="#T"/><use transform="matrix(0.031481481481481485,0,0,0.031481481481481485,31.481481481481485,0)" xlink:href="#R"/><use transform="matrix(0.031481481481481485,0,0,0.031481481481481485,37.77777777777778,0)" xlink:href="#O"/><use transform="matrix(0.031481481481481485,0,0,0.031481481481481485,43.44444444444444,0)" xlink:href="#M"/><use transform="matrix(0.031481481481481485,0,0,0.031481481481481485,45.931481481481484,0)" xlink:href="#P"/><use transform="matrix(0.031481481481481485,0,0,0.031481481481481485,52.22777777777778,0)" xlink:href="#U"/></g><g id="c"><use transform="matrix(0.031481481481481485,0,0,0.031481481481481485,0,0)" xlink:href="#S"/><use transform="matrix(0.031481481481481485,0,0,0.031481481481481485,6.296296296296297,0)" xlink:href="#P"/></g><path d="M59-47c-2 24 18 29 38 22v24C64 9 27 4 27-40v-127H5v-23h24l9-43h21v43h35v23H59v120" id="V"/><g id="d"><use transform="matrix(0.031481481481481485,0,0,0.031481481481481485,0,0)" xlink:href="#U"/><use transform="matrix(0.031481481481481485,0,0,0.031481481481481485,5.666666666666667,0)" xlink:href="#Q"/><use transform="matrix(0.031481481481481485,0,0,0.031481481481481485,11.962962962962964,0)" xlink:href="#L"/><use transform="matrix(0.031481481481481485,0,0,0.031481481481481485,15.70925925925926,0)" xlink:href="#M"/><use transform="matrix(0.031481481481481485,0,0,0.031481481481481485,18.196296296296296,0)" xlink:href="#R"/><use transform="matrix(0.031481481481481485,0,0,0.031481481481481485,24.492592592592594,0)" xlink:href="#V"/></g><path d="M100-194c62-1 85 37 85 99 1 63-27 99-86 99S16-35 15-95c0-66 28-99 85-99zM99-20c44 1 53-31 53-75 0-43-8-75-51-75s-53 32-53 75 10 74 51 75" id="W"/><g id="e"><use transform="matrix(0.031481481481481485,0,0,0.031481481481481485,0,0)" xlink:href="#P"/><use transform="matrix(0.031481481481481485,0,0,0.031481481481481485,6.296296296296297,0)" xlink:href="#R"/><use transform="matrix(0.031481481481481485,0,0,0.031481481481481485,12.592592592592593,0)" xlink:href="#V"/><use transform="matrix(0.031481481481481485,0,0,0.031481481481481485,15.740740740740742,0)" xlink:href="#K"/><use transform="matrix(0.031481481481481485,0,0,0.031481481481481485,22.037037037037038,0)" xlink:href="#L"/><use transform="matrix(0.031481481481481485,0,0,0.031481481481481485,25.783333333333335,0)" xlink:href="#M"/><use transform="matrix(0.031481481481481485,0,0,0.031481481481481485,28.270370370370372,0)" xlink:href="#W"/><use transform="matrix(0.031481481481481485,0,0,0.031481481481481485,34.56666666666667,0)" xlink:href="#L"/></g><path fill="#333" d="M30-248c87 1 191-15 191 75 0 78-77 80-158 76V0H30v-248zm33 125c57 0 124 11 124-50 0-59-68-47-124-48v98" id="X"/><path fill="#333" d="M24 0v-261h32V0H24" id="Y"/><path fill="#333" d="M141-36C126-15 110 5 73 4 37 3 15-17 15-53c-1-64 63-63 125-63 3-35-9-54-41-54-24 1-41 7-42 31l-33-3c5-37 33-52 76-52 45 0 72 20 72 64v82c-1 20 7 32 28 27v20c-31 9-61-2-59-35zM48-53c0 20 12 33 32 33 41-3 63-29 60-74-43 2-92-5-92 41" id="Z"/><path fill="#333" d="M117-194c89-4 53 116 60 194h-32v-121c0-31-8-49-39-48C34-167 62-67 57 0H25l-1-190h30c1 10-1 24 2 32 11-22 29-35 61-36" id="aa"/><path fill="#333" d="M100-194c63 0 86 42 84 106H49c0 40 14 67 53 68 26 1 43-12 49-29l28 8c-11 28-37 45-77 45C44 4 14-33 15-96c1-61 26-98 85-98zm52 81c6-60-76-77-97-28-3 7-6 17-6 28h103" id="ab"/><path fill="#333" d="M24-231v-30h32v30H24zM-9 49c24 4 33-6 33-30v-209h32V24c2 40-23 58-65 49V49" id="ac"/><path fill="#333" d="M210-169c-67 3-38 105-44 169h-31v-121c0-29-5-50-35-48C34-165 62-65 56 0H25l-1-190h30c1 10-1 24 2 32 10-44 99-50 107 0 11-21 27-35 58-36 85-2 47 119 55 194h-31v-121c0-29-5-49-35-48" id="ad"/><path fill="#333" d="M59-47c-2 24 18 29 38 22v24C64 9 27 4 27-40v-127H5v-23h24l9-43h21v43h35v23H59v120" id="ae"/><path fill="#333" d="M100-194c62-1 85 37 85 99 1 63-27 99-86 99S16-35 15-95c0-66 28-99 85-99zM99-20c44 1 53-31 53-75 0-43-8-75-51-75s-53 32-53 75 10 74 51 75" id="af"/><g id="f"><use transform="matrix(0.05,0,0,0.05,0,0)" xlink:href="#X"/><use transform="matrix(0.05,0,0,0.05,12,0)" xlink:href="#Y"/><use transform="matrix(0.05,0,0,0.05,15.949999999999998,0)" xlink:href="#Z"/><use transform="matrix(0.05,0,0,0.05,25.950000000000003,0)" xlink:href="#aa"/><use transform="matrix(0.05,0,0,0.05,35.95,0)" xlink:href="#ab"/><use transform="matrix(0.05,0,0,0.05,45.95,0)" xlink:href="#ac"/><use transform="matrix(0.05,0,0,0.05,49.900000000000006,0)" xlink:href="#Z"/><use transform="matrix(0.05,0,0,0.05,59.900000000000006,0)" xlink:href="#ad"/><use transform="matrix(0.05,0,0,0.05,74.85000000000001,0)" xlink:href="#ab"/><use transform="matrix(0.05,0,0,0.05,84.85000000000001,0)" xlink:href="#aa"/><use transform="matrix(0.05,0,0,0.05,94.85000000000001,0)" xlink:href="#ae"/><use transform="matrix(0.05,0,0,0.05,99.85000000000001,0)" xlink:href="#af"/></g><path fill="#333" d="M85-194c31 0 48 13 60 33l-1-100h32l1 261h-30c-2-10 0-23-3-31C134-8 116 4 85 4 32 4 16-35 15-94c0-66 23-100 70-100zm9 24c-40 0-46 34-46 75 0 40 6 74 45 74 42 0 51-32 51-76 0-42-9-74-50-73" id="ag"/><g id="g"><use transform="matrix(0.05,0,0,0.05,0,0)" xlink:href="#ag"/><use transform="matrix(0.05,0,0,0.05,10,0)" xlink:href="#Z"/></g><path fill="#333" d="M185-189c-5-48-123-54-124 2 14 75 158 14 163 119 3 78-121 87-175 55-17-10-28-26-33-46l33-7c5 56 141 63 141-1 0-78-155-14-162-118-5-82 145-84 179-34 5 7 8 16 11 25" id="ah"/><path fill="#333" d="M115-194c55 1 70 41 70 98S169 2 115 4C84 4 66-9 55-30l1 105H24l-1-265h31l2 30c10-21 28-34 59-34zm-8 174c40 0 45-34 45-75s-6-73-45-74c-42 0-51 32-51 76 0 43 10 73 51 73" id="ai"/><path fill="#333" d="M114-163C36-179 61-72 57 0H25l-1-190h30c1 12-1 29 2 39 6-27 23-49 58-41v29" id="aj"/><path fill="#333" d="M24-231v-30h32v30H24zM24 0v-190h32V0H24" id="ak"/><g id="h"><use transform="matrix(0.05,0,0,0.05,0,0)" xlink:href="#ah"/><use transform="matrix(0.05,0,0,0.05,12,0)" xlink:href="#ai"/><use transform="matrix(0.05,0,0,0.05,22,0)" xlink:href="#aj"/><use transform="matrix(0.05,0,0,0.05,27.950000000000003,0)" xlink:href="#ak"/><use transform="matrix(0.05,0,0,0.05,31.899999999999995,0)" xlink:href="#aa"/><use transform="matrix(0.05,0,0,0.05,41.9,0)" xlink:href="#ae"/></g><path fill="#333" d="M33 0v-248h34V0H33" id="al"/><path fill="#333" d="M34 0v-190h32V0H34zM24-211c8-23 27-35 38-54h36v5l-58 49H24" id="am"/><path fill="#333" d="M96-169c-40 0-48 33-48 73s9 75 48 75c24 0 41-14 43-38l32 2c-6 37-31 61-74 61-59 0-76-41-82-99-10-93 101-131 147-64 4 7 5 14 7 22l-32 3c-4-21-16-35-41-35" id="an"/><g id="i"><use transform="matrix(0.02530864197530864,0,0,0.02530864197530864,0,0)" xlink:href="#al"/><use transform="matrix(0.02530864197530864,0,0,0.02530864197530864,2.530864197530864,0)" xlink:href="#aa"/><use transform="matrix(0.02530864197530864,0,0,0.02530864197530864,7.592592592592592,0)" xlink:href="#am"/><use transform="matrix(0.02530864197530864,0,0,0.02530864197530864,10.123456790123456,0)" xlink:href="#an"/><use transform="matrix(0.02530864197530864,0,0,0.02530864197530864,14.679012345679011,0)" xlink:href="#ak"/><use transform="matrix(0.02530864197530864,0,0,0.02530864197530864,16.678395061728395,0)" xlink:href="#af"/></g><path fill="#333" d="M63-220v92h138v28H63V0H30v-248h175v28H63" id="ao"/><g id="j"><use transform="matrix(0.031481481481481485,0,0,0.031481481481481485,0,0)" xlink:href="#ao"/><use transform="matrix(0.031481481481481485,0,0,0.031481481481481485,6.894444444444446,0)" xlink:href="#ak"/><use transform="matrix(0.031481481481481485,0,0,0.031481481481481485,9.381481481481483,0)" xlink:href="#ad"/></g><path fill="#333" d="M160-131c35 5 61 23 61 61C221 17 115-2 30 0v-248c76 3 177-17 177 60 0 33-19 50-47 57zm-97-11c50-1 110 9 110-42 0-47-63-36-110-37v79zm0 115c55-2 124 14 124-45 0-56-70-42-124-44v89" id="ap"/><path fill="#333" d="M143 0L79-87 56-68V0H24v-261h32v163l83-92h37l-77 82L181 0h-38" id="aq"/><path fill="#333" d="M177-190C167-65 218 103 67 71c-23-6-38-20-44-43l32-5c15 47 100 32 89-28v-30C133-14 115 1 83 1 29 1 15-40 15-95c0-56 16-97 71-98 29-1 48 16 59 35 1-10 0-23 2-32h30zM94-22c36 0 50-32 50-73 0-42-14-75-50-75-39 0-46 34-46 75s6 73 46 73" id="ar"/><g id="k"><use transform="matrix(0.02530864197530864,0,0,0.02530864197530864,0,0)" xlink:href="#ap"/><use transform="matrix(0.02530864197530864,0,0,0.02530864197530864,6.0740740740740735,0)" xlink:href="#Z"/><use transform="matrix(0.02530864197530864,0,0,0.02530864197530864,11.1358024691358,0)" xlink:href="#an"/><use transform="matrix(0.02530864197530864,0,0,0.02530864197530864,15.691358024691356,0)" xlink:href="#aq"/><use transform="matrix(0.02530864197530864,0,0,0.02530864197530864,20.24691358024691,0)" xlink:href="#Y"/><use transform="matrix(0.02530864197530864,0,0,0.02530864197530864,22.246296296296293,0)" xlink:href="#af"/><use transform="matrix(0.02530864197530864,0,0,0.02530864197530864,27.30802469135802,0)" xlink:href="#ar"/></g><g id="l"><use transform="matrix(0.02530864197530864,0,0,0.02530864197530864,0,0)" xlink:href="#ag"/><use transform="matrix(0.02530864197530864,0,0,0.02530864197530864,5.061728395061728,0)" xlink:href="#af"/></g><path fill="#333" d="M84 4C-5 8 30-112 23-190h32v120c0 31 7 50 39 49 72-2 45-101 50-169h31l1 190h-30c-1-10 1-25-2-33-11 22-28 36-60 37" id="as"/><g id="m"><use transform="matrix(0.02530864197530864,0,0,0.02530864197530864,0,0)" xlink:href="#X"/><use transform="matrix(0.02530864197530864,0,0,0.02530864197530864,6.0740740740740735,0)" xlink:href="#aj"/><use transform="matrix(0.02530864197530864,0,0,0.02530864197530864,9.085802469135801,0)" xlink:href="#af"/><use transform="matrix(0.02530864197530864,0,0,0.02530864197530864,14.14753086419753,0)" xlink:href="#ag"/><use transform="matrix(0.02530864197530864,0,0,0.02530864197530864,19.209259259259255,0)" xlink:href="#as"/><use transform="matrix(0.02530864197530864,0,0,0.02530864197530864,24.270987654320983,0)" xlink:href="#ae"/><use transform="matrix(0.02530864197530864,0,0,0.02530864197530864,26.80185185185185,0)" xlink:href="#af"/></g><g id="n"><use transform="matrix(0.02530864197530864,0,0,0.02530864197530864,0,0)" xlink:href="#ag"/><use transform="matrix(0.02530864197530864,0,0,0.02530864197530864,5.061728395061728,0)" xlink:href="#Z"/></g><g id="o"><use transform="matrix(0.02530864197530864,0,0,0.02530864197530864,0,0)" xlink:href="#ah"/><use transform="matrix(0.02530864197530864,0,0,0.02530864197530864,6.0740740740740735,0)" xlink:href="#ai"/><use transform="matrix(0.02530864197530864,0,0,0.02530864197530864,11.1358024691358,0)" xlink:href="#aj"/><use transform="matrix(0.02530864197530864,0,0,0.02530864197530864,14.147530864197526,0)" xlink:href="#ak"/><use transform="matrix(0.02530864197530864,0,0,0.02530864197530864,16.14691358024691,0)" xlink:href="#aa"/><use transform="matrix(0.02530864197530864,0,0,0.02530864197530864,21.208641975308637,0)" xlink:href="#ae"/></g><g id="p"><use transform="matrix(0.02530864197530864,0,0,0.02530864197530864,0,0)" xlink:href="#Z"/><use transform="matrix(0.02530864197530864,0,0,0.02530864197530864,5.061728395061728,0)" xlink:href="#aa"/><use transform="matrix(0.02530864197530864,0,0,0.02530864197530864,10.123456790123456,0)" xlink:href="#ae"/><use transform="matrix(0.02530864197530864,0,0,0.02530864197530864,12.65432098765432,0)" xlink:href="#ab"/><use transform="matrix(0.02530864197530864,0,0,0.02530864197530864,17.716049382716047,0)" xlink:href="#aj"/><use transform="matrix(0.02530864197530864,0,0,0.02530864197530864,20.727777777777774,0)" xlink:href="#ak"/><use transform="matrix(0.02530864197530864,0,0,0.02530864197530864,22.727160493827157,0)" xlink:href="#af"/><use transform="matrix(0.02530864197530864,0,0,0.02530864197530864,27.788888888888884,0)" xlink:href="#aj"/></g><path fill="#333" d="M135-143c-3-34-86-38-87 0 15 53 115 12 119 90S17 21 10-45l28-5c4 36 97 45 98 0-10-56-113-15-118-90-4-57 82-63 122-42 12 7 21 19 24 35" id="at"/><g id="q"><use transform="matrix(0.02530864197530864,0,0,0.02530864197530864,0,0)" xlink:href="#X"/><use transform="matrix(0.02530864197530864,0,0,0.02530864197530864,6.0740740740740735,0)" xlink:href="#af"/><use transform="matrix(0.02530864197530864,0,0,0.02530864197530864,11.1358024691358,0)" xlink:href="#at"/><use transform="matrix(0.02530864197530864,0,0,0.02530864197530864,15.691358024691356,0)" xlink:href="#at"/><use transform="matrix(0.02530864197530864,0,0,0.02530864197530864,20.24691358024691,0)" xlink:href="#as"/><use transform="matrix(0.02530864197530864,0,0,0.02530864197530864,25.30864197530864,0)" xlink:href="#ak"/></g><g id="r"><use transform="matrix(0.02530864197530864,0,0,0.02530864197530864,0,0)" xlink:href="#Z"/><use transform="matrix(0.02530864197530864,0,0,0.02530864197530864,5.061728395061728,0)" xlink:href="#Y"/><use transform="matrix(0.02530864197530864,0,0,0.02530864197530864,7.06111111111111,0)" xlink:href="#ar"/><use transform="matrix(0.02530864197530864,0,0,0.02530864197530864,12.122839506172838,0)" xlink:href="#as"/><use transform="matrix(0.02530864197530864,0,0,0.02530864197530864,17.184567901234566,0)" xlink:href="#ad"/><use transform="matrix(0.02530864197530864,0,0,0.02530864197530864,24.75185185185185,0)" xlink:href="#Z"/></g><path fill="#333" d="M100-194c63 0 86 42 84 106H49c0 40 14 67 53 68 26 1 43-12 49-29l28 8c-11 28-37 45-77 45C44 4 14-33 15-96c1-61 26-98 85-98zm52 81c6-60-76-77-97-28-3 7-6 17-6 28h103zm-32-149c12 18 30 30 39 51-31 2-38-20-57-30-20 10-27 32-59 30 9-22 29-33 41-51h36" id="au"/><path fill="#333" d="M103-251c84 0 111 97 45 133-19 10-37 24-39 52H78c0-63 77-55 77-114 0-30-21-42-52-43-32 0-53 17-56 46l-32-2c7-45 34-72 88-72zM77 0v-35h34V0H77" id="av"/><g id="s"><use transform="matrix(0.02530864197530864,0,0,0.02530864197530864,0,0)" xlink:href="#ai"/><use transform="matrix(0.02530864197530864,0,0,0.02530864197530864,5.061728395061728,0)" xlink:href="#ab"/><use transform="matrix(0.02530864197530864,0,0,0.02530864197530864,10.123456790123456,0)" xlink:href="#aa"/><use transform="matrix(0.02530864197530864,0,0,0.02530864197530864,15.185185185185183,0)" xlink:href="#ag"/><use transform="matrix(0.02530864197530864,0,0,0.02530864197530864,20.24691358024691,0)" xlink:href="#au"/><use transform="matrix(0.02530864197530864,0,0,0.02530864197530864,25.30864197530864,0)" xlink:href="#aa"/><use transform="matrix(0.02530864197530864,0,0,0.02530864197530864,30.370370370370367,0)" xlink:href="#an"/><use transform="matrix(0.02530864197530864,0,0,0.02530864197530864,34.925925925925924,0)" xlink:href="#ak"/><use transform="matrix(0.02530864197530864,0,0,0.02530864197530864,36.925308641975306,0)" xlink:href="#Z"/><use transform="matrix(0.02530864197530864,0,0,0.02530864197530864,41.987037037037034,0)" xlink:href="#av"/></g><path d="M30-248c87 1 191-15 191 75 0 78-77 80-158 76V0H30v-248zm33 125c57 0 124 11 124-50 0-59-68-47-124-48v98" id="aw"/><path d="M24 0v-261h32V0H24" id="ax"/><path d="M24-231v-30h32v30H24zM-9 49c24 4 33-6 33-30v-209h32V24c2 40-23 58-65 49V49" id="ay"/><g id="t"><use transform="matrix(0.031481481481481485,0,0,0.031481481481481485,0,0)" xlink:href="#aw"/><use transform="matrix(0.031481481481481485,0,0,0.031481481481481485,7.555555555555556,0)" xlink:href="#ax"/><use transform="matrix(0.031481481481481485,0,0,0.031481481481481485,10.042592592592595,0)" xlink:href="#P"/><use transform="matrix(0.031481481481481485,0,0,0.031481481481481485,16.338888888888892,0)" xlink:href="#R"/><use transform="matrix(0.031481481481481485,0,0,0.031481481481481485,22.63518518518519,0)" xlink:href="#K"/><use transform="matrix(0.031481481481481485,0,0,0.031481481481481485,28.931481481481487,0)" xlink:href="#ay"/><use transform="matrix(0.031481481481481485,0,0,0.031481481481481485,31.418518518518525,0)" xlink:href="#P"/><use transform="matrix(0.031481481481481485,0,0,0.031481481481481485,37.71481481481482,0)" xlink:href="#L"/></g><path d="M185-189c-5-48-123-54-124 2 14 75 158 14 163 119 3 78-121 87-175 55-17-10-28-26-33-46l33-7c5 56 141 63 141-1 0-78-155-14-162-118-5-82 145-84 179-34 5 7 8 16 11 25" id="az"/><g id="u"><use transform="matrix(0.031481481481481485,0,0,0.031481481481481485,0,0)" xlink:href="#az"/><use transform="matrix(0.031481481481481485,0,0,0.031481481481481485,7.555555555555556,0)" xlink:href="#Q"/><use transform="matrix(0.031481481481481485,0,0,0.031481481481481485,13.851851851851853,0)" xlink:href="#L"/><use transform="matrix(0.031481481481481485,0,0,0.031481481481481485,17.598148148148148,0)" xlink:href="#M"/><use transform="matrix(0.031481481481481485,0,0,0.031481481481481485,20.085185185185185,0)" xlink:href="#R"/><use transform="matrix(0.031481481481481485,0,0,0.031481481481481485,26.381481481481483,0)" xlink:href="#V"/></g><path d="M205 0l-28-72H64L36 0H1l101-248h38L239 0h-34zm-38-99l-47-123c-12 45-31 82-46 123h93" id="aA"/><path d="M115-194c53 0 69 39 70 98 0 66-23 100-70 100C84 3 66-7 56-30L54 0H23l1-261h32v101c10-23 28-34 59-34zm-8 174c40 0 45-34 45-75 0-40-5-75-45-74-42 0-51 32-51 76 0 43 10 73 51 73" id="aB"/><path d="M84 4C-5 8 30-112 23-190h32v120c0 31 7 50 39 49 72-2 45-101 50-169h31l1 190h-30c-1-10 1-25-2-33-11 22-28 36-60 37" id="aC"/><g id="v"><use transform="matrix(0.031481481481481485,0,0,0.031481481481481485,0,0)" xlink:href="#aA"/><use transform="matrix(0.031481481481481485,0,0,0.031481481481481485,7.555555555555556,0)" xlink:href="#V"/><use transform="matrix(0.031481481481481485,0,0,0.031481481481481485,10.703703703703704,0)" xlink:href="#L"/><use transform="matrix(0.031481481481481485,0,0,0.031481481481481485,14.450000000000001,0)" xlink:href="#M"/><use transform="matrix(0.031481481481481485,0,0,0.031481481481481485,16.937037037037037,0)" xlink:href="#aB"/><use transform="matrix(0.031481481481481485,0,0,0.031481481481481485,23.233333333333334,0)" xlink:href="#aC"/><use transform="matrix(0.031481481481481485,0,0,0.031481481481481485,29.529629629629632,0)" xlink:href="#M"/><use transform="matrix(0.031481481481481485,0,0,0.031481481481481485,32.016666666666666,0)" xlink:href="#L"/></g><path d="M108 0H70L1-190h34L89-25l56-165h34" id="aD"/><g id="w"><use transform="matrix(0.031481481481481485,0,0,0.031481481481481485,0,0)" xlink:href="#P"/><use transform="matrix(0.031481481481481485,0,0,0.031481481481481485,6.296296296296297,0)" xlink:href="#V"/><use transform="matrix(0.031481481481481485,0,0,0.031481481481481485,9.444444444444445,0)" xlink:href="#M"/><use transform="matrix(0.031481481481481485,0,0,0.031481481481481485,11.931481481481482,0)" xlink:href="#aD"/><use transform="matrix(0.031481481481481485,0,0,0.031481481481481485,17.598148148148148,0)" xlink:href="#M"/><use transform="matrix(0.031481481481481485,0,0,0.031481481481481485,20.085185185185185,0)" xlink:href="#S"/><use transform="matrix(0.031481481481481485,0,0,0.031481481481481485,26.381481481481483,0)" xlink:href="#P"/><use transform="matrix(0.031481481481481485,0,0,0.031481481481481485,32.67777777777778,0)" xlink:href="#S"/><use transform="matrix(0.031481481481481485,0,0,0.031481481481481485,38.974074074074075,0)" xlink:href="#K"/><use transform="matrix(0.031481481481481485,0,0,0.031481481481481485,45.27037037037037,0)" xlink:href="#U"/></g><path d="M140-251c81 0 123 46 123 126C263-46 219 4 140 4 59 4 17-45 17-125s42-126 123-126zm0 227c63 0 89-41 89-101s-29-99-89-99c-61 0-89 39-89 99S79-25 140-24" id="aE"/><path d="M177-190C167-65 218 103 67 71c-23-6-38-20-44-43l32-5c15 47 100 32 89-28v-30C133-14 115 1 83 1 29 1 15-40 15-95c0-56 16-97 71-98 29-1 48 16 59 35 1-10 0-23 2-32h30zM94-22c36 0 50-32 50-73 0-42-14-75-50-75-39 0-46 34-46 75s6 73 46 73" id="aF"/><path d="M9 0v-24l116-142H16v-24h144v24L44-24h123V0H9" id="aG"/><g id="x"><use transform="matrix(0.031481481481481485,0,0,0.031481481481481485,0,0)" xlink:href="#aE"/><use transform="matrix(0.031481481481481485,0,0,0.031481481481481485,8.814814814814817,0)" xlink:href="#L"/><use transform="matrix(0.031481481481481485,0,0,0.031481481481481485,12.561111111111114,0)" xlink:href="#aF"/><use transform="matrix(0.031481481481481485,0,0,0.031481481481481485,18.85740740740741,0)" xlink:href="#P"/><use transform="matrix(0.031481481481481485,0,0,0.031481481481481485,25.15370370370371,0)" xlink:href="#R"/><use transform="matrix(0.031481481481481485,0,0,0.031481481481481485,31.450000000000006,0)" xlink:href="#M"/><use transform="matrix(0.031481481481481485,0,0,0.031481481481481485,33.937037037037044,0)" xlink:href="#aG"/><use transform="matrix(0.031481481481481485,0,0,0.031481481481481485,39.60370370370371,0)" xlink:href="#P"/><use transform="matrix(0.031481481481481485,0,0,0.031481481481481485,45.900000000000006,0)" xlink:href="#L"/></g><g id="y"><use transform="matrix(0.031481481481481485,0,0,0.031481481481481485,0,0)" xlink:href="#P"/><use transform="matrix(0.031481481481481485,0,0,0.031481481481481485,6.296296296296297,0)" xlink:href="#U"/></g><g id="z"><use transform="matrix(0.031481481481481485,0,0,0.031481481481481485,0,0)" xlink:href="#S"/><use transform="matrix(0.031481481481481485,0,0,0.031481481481481485,6.296296296296297,0)" xlink:href="#aC"/><use transform="matrix(0.031481481481481485,0,0,0.031481481481481485,12.592592592592593,0)" xlink:href="#Q"/><use transform="matrix(0.031481481481481485,0,0,0.031481481481481485,18.88888888888889,0)" xlink:href="#ax"/><use transform="matrix(0.031481481481481485,0,0,0.031481481481481485,21.375925925925927,0)" xlink:href="#P"/><use transform="matrix(0.031481481481481485,0,0,0.031481481481481485,27.672222222222224,0)" xlink:href="#U"/></g><g id="A"><use transform="matrix(0.031481481481481485,0,0,0.031481481481481485,0,0)" xlink:href="#aA"/><use transform="matrix(0.031481481481481485,0,0,0.031481481481481485,7.555555555555556,0)" xlink:href="#S"/><use transform="matrix(0.031481481481481485,0,0,0.031481481481481485,13.851851851851853,0)" xlink:href="#M"/><use transform="matrix(0.031481481481481485,0,0,0.031481481481481485,16.33888888888889,0)" xlink:href="#O"/><use transform="matrix(0.031481481481481485,0,0,0.031481481481481485,22.005555555555553,0)" xlink:href="#M"/><use transform="matrix(0.031481481481481485,0,0,0.031481481481481485,24.492592592592594,0)" xlink:href="#W"/><use transform="matrix(0.031481481481481485,0,0,0.031481481481481485,30.78888888888889,0)" xlink:href="#R"/><use transform="matrix(0.031481481481481485,0,0,0.031481481481481485,37.08518518518519,0)" xlink:href="#P"/><use transform="matrix(0.031481481481481485,0,0,0.031481481481481485,43.38148148148149,0)" xlink:href="#L"/></g><g id="B"><use transform="matrix(0.031481481481481485,0,0,0.031481481481481485,0,0)" xlink:href="#P"/><use transform="matrix(0.031481481481481485,0,0,0.031481481481481485,6.296296296296297,0)" xlink:href="#W"/></g><path d="M143 0L79-87 56-68V0H24v-261h32v163l83-92h37l-77 82L181 0h-38" id="aH"/><g id="C"><use transform="matrix(0.031481481481481485,0,0,0.031481481481481485,0,0)" xlink:href="#aB"/><use transform="matrix(0.031481481481481485,0,0,0.031481481481481485,6.296296296296297,0)" xlink:href="#P"/><use transform="matrix(0.031481481481481485,0,0,0.031481481481481485,12.592592592592593,0)" xlink:href="#O"/><use transform="matrix(0.031481481481481485,0,0,0.031481481481481485,18.25925925925926,0)" xlink:href="#aH"/><use transform="matrix(0.031481481481481485,0,0,0.031481481481481485,23.925925925925927,0)" xlink:href="#ax"/><use transform="matrix(0.031481481481481485,0,0,0.031481481481481485,26.412962962962965,0)" xlink:href="#W"/><use transform="matrix(0.031481481481481485,0,0,0.031481481481481485,32.70925925925926,0)" xlink:href="#aF"/></g><g id="D"><use transform="matrix(0.031481481481481485,0,0,0.031481481481481485,0,0)" xlink:href="#S"/><use transform="matrix(0.031481481481481485,0,0,0.031481481481481485,6.296296296296297,0)" xlink:href="#W"/></g><g id="E"><use transform="matrix(0.031481481481481485,0,0,0.031481481481481485,0,0)" xlink:href="#Q"/><use transform="matrix(0.031481481481481485,0,0,0.031481481481481485,6.296296296296297,0)" xlink:href="#L"/><use transform="matrix(0.031481481481481485,0,0,0.031481481481481485,10.042592592592595,0)" xlink:href="#W"/><use transform="matrix(0.031481481481481485,0,0,0.031481481481481485,16.338888888888892,0)" xlink:href="#S"/><use transform="matrix(0.031481481481481485,0,0,0.031481481481481485,22.63518518518519,0)" xlink:href="#aC"/><use transform="matrix(0.031481481481481485,0,0,0.031481481481481485,28.931481481481487,0)" xlink:href="#V"/><use transform="matrix(0.031481481481481485,0,0,0.031481481481481485,32.079629629629636,0)" xlink:href="#W"/></g><path fill="#333" d="M169-182c-1-43-94-46-97-3 18 66 151 10 154 114 3 95-165 93-204 36-6-8-10-19-12-30l50-8c3 46 112 56 116 5-17-69-150-10-154-114-4-87 153-88 188-35 5 8 8 18 10 28" id="aI"/><path fill="#333" d="M24 0v-248h52V0H24" id="aJ"/><path fill="#333" d="M230 0l2-204L168 0h-37L68-204 70 0H24v-248h70l56 185 57-185h69V0h-46" id="aK"/><g id="F"><use transform="matrix(0.02530864197530864,0,0,0.02530864197530864,0,0)" xlink:href="#aI"/><use transform="matrix(0.02530864197530864,0,0,0.02530864197530864,6.0740740740740735,0)" xlink:href="#aJ"/><use transform="matrix(0.02530864197530864,0,0,0.02530864197530864,8.604938271604937,0)" xlink:href="#aK"/></g><path fill="#333" d="M175 0L67-191c6 58 2 128 3 191H24v-248h59L193-55c-6-58-2-129-3-193h46V0h-61" id="aL"/><path fill="#333" d="M101-320c28 0 65 44 74 0h23c0 29-10 51-39 51-28-1-66-45-74 0H61c2-28 9-52 40-51zM199 0l-22-63H83L61 0H9l90-248h61L250 0h-51zm-33-102l-36-108c-10 38-24 72-36 108h72" id="aM"/><path fill="#333" d="M140-251c80 0 125 45 125 126S219 4 139 4C58 4 15-44 15-125s44-126 125-126zm-1 214c52 0 73-35 73-88 0-50-21-86-72-86-52 0-73 35-73 86s22 88 72 88" id="aN"/><g id="G"><use transform="matrix(0.02530864197530864,0,0,0.02530864197530864,0,0)" xlink:href="#aL"/><use transform="matrix(0.02530864197530864,0,0,0.02530864197530864,6.554938271604938,0)" xlink:href="#aM"/><use transform="matrix(0.02530864197530864,0,0,0.02530864197530864,13.109876543209875,0)" xlink:href="#aN"/></g><g id="H"><use transform="matrix(0.02530864197530864,0,0,0.02530864197530864,0,0)" xlink:href="#X"/><use transform="matrix(0.02530864197530864,0,0,0.02530864197530864,6.0740740740740735,0)" xlink:href="#aj"/><use transform="matrix(0.02530864197530864,0,0,0.02530864197530864,9.085802469135801,0)" xlink:href="#af"/><use transform="matrix(0.02530864197530864,0,0,0.02530864197530864,14.14753086419753,0)" xlink:href="#ag"/><use transform="matrix(0.02530864197530864,0,0,0.02530864197530864,19.209259259259255,0)" xlink:href="#as"/><use transform="matrix(0.02530864197530864,0,0,0.02530864197530864,24.270987654320983,0)" xlink:href="#ae"/><use transform="matrix(0.02530864197530864,0,0,0.02530864197530864,26.80185185185185,0)" xlink:href="#af"/></g><path fill="#333" d="M205 0l-28-72H64L36 0H1l101-248h38L239 0h-34zm-38-99l-47-123c-12 45-31 82-46 123h93" id="aO"/><path fill="#333" d="M9 0v-24l116-142H16v-24h144v24L44-24h123V0H9" id="aP"/><g id="I"><use transform="matrix(0.02530864197530864,0,0,0.02530864197530864,0,0)" xlink:href="#aO"/><use transform="matrix(0.02530864197530864,0,0,0.02530864197530864,6.0740740740740735,0)" xlink:href="#ae"/><use transform="matrix(0.02530864197530864,0,0,0.02530864197530864,8.604938271604937,0)" xlink:href="#as"/><use transform="matrix(0.02530864197530864,0,0,0.02530864197530864,13.666666666666664,0)" xlink:href="#Z"/><use transform="matrix(0.02530864197530864,0,0,0.02530864197530864,18.728395061728392,0)" xlink:href="#Y"/><use transform="matrix(0.02530864197530864,0,0,0.02530864197530864,20.727777777777774,0)" xlink:href="#ak"/><use transform="matrix(0.02530864197530864,0,0,0.02530864197530864,22.727160493827157,0)" xlink:href="#aP"/><use transform="matrix(0.02530864197530864,0,0,0.02530864197530864,27.282716049382714,0)" xlink:href="#Z"/><use transform="matrix(0.02530864197530864,0,0,0.02530864197530864,32.34444444444444,0)" xlink:href="#ag"/><use transform="matrix(0.02530864197530864,0,0,0.02530864197530864,37.40617283950617,0)" xlink:href="#af"/></g></defs></g></svg>